<?xml version="1.0" encoding="UTF-8"?>
<svg id="Layer_2" data-name="Layer 2" xmlns="http://www.w3.org/2000/svg" viewBox="0 0 19.04 22.68">
  <g id="Layer_1-2" data-name="Layer 1">
    <g>
      <path d="M6.86,4.63c.24.24.53.64.7.94.05.09.27.55.22.61l-1.4.31c-.12-.18-.22-.36-.36-.52-1.12-1.31-3.25-1.12-4.11.38s.05,3.3,1.66,3.73c.05.23.07.46.11.69,0,.05.04.1.05.15,0,.07.07.52.05.55,0,.01-.1.06-.12.06-.31.02-1.05-.24-1.35-.38C.05,10.08-.7,7.3.72,5.24s4.37-2.36,6.14-.61Z"/>
      <path d="M14.5,0c3.71-.2,5.96,4.15,3.51,7-2.26,2.64-6.58,1.66-7.4-1.74C9.98,2.66,11.83.15,14.5,0ZM14.62.63c-2.61.17-4.27,2.67-3.21,5.12s4.38,2.89,6.11.9c2.06-2.37.27-6.22-2.9-6.02Z"/>
      <path d="M9.85,11.8c-.06.86-.3,1.7-.39,2.56l1.06,1.38-.07.51h.14s.6-2.36.6-2.36c.04-.01.05.01.07.03.29.2.83.83,1.06,1.12.04.05.15.17.14.22,0,.02-.22.25-.25.29-.18.2-.4.36-.58.55-.46.48-1.08,1.42-1.66,1.69-.34.16-.89.35-1.26.47-.35.11-.45.17-.8,0-.64-.31-.49-.71-.52-1.3-.02-.34-.11-.82-.03-1.14.03-.14.15-.33.22-.46.64-1.23,1.52-2.35,2.19-3.56l.09-.02Z"/>
      <path d="M7.1,15.33l-.05.25-.72,2.18-1.84.92c-.08.02-.24-.1-.33-.14-.56-.25-1.16-.47-1.7-.74-.1-.05-.44-.2-.47-.3-.02-.06-.02-.32,0-.38.02-.05.2-.24.25-.32.2-.3.37-.65.59-.94s.34-.34.66-.47c.62-.27,1.29-.41,1.9-.71l1.69.66Z"/>
      <path d="M10.19,5.56c.01.08-.02.05-.06.06-.28.11-.57,0-.62.38-.06.49.36.93.57,1.35.46.91.86,2.19,1.07,3.19.05.24.15.36-.09.49-.41.23-.88.37-1.27.63l-.84,1.21-.1.03-.51-1.77c.21-.81.47-1.61.64-2.42.07-.34.29-1.37.19-1.65-.06-.19-.53-.38-.68-.54-.03-.03-.05-.05-.04-.09l.22-.95,1.5.07Z"/>
      <path d="M14.79,18.19c-.22,0-.42.03-.64.03-.23,0-.46-.04-.71-.03-1.12.05-2.23.51-3.38.57-.59.03-1.23-.05-1.8-.17-.01-.05.02-.07.06-.09.18-.09.57-.16.79-.24.38-.14.75-.31,1.12-.47l2.33-2.41,2.23,2.81Z"/>
      <path d="M2.84,6.89l1.15-.06s-.03.45-.06.51c-.04.1-.48.38-.59.49-.02.02-.06.02-.05.07.02.08.49.21.59.26.38.18,1.23,1.47,1.5,1.88.19.28.43.63.58.93.17.33.12.42.02.76-.17.57-.45,1.13-.66,1.7-.03.05-.06,0-.09-.03-.48-.48-.88-1.24-1.34-1.75-.04-.82-.19-1.63-.39-2.42-.05-.21-.17-.74-.26-.9-.07-.13-.2-.16-.28-.28-.05-.08-.12-.27-.12-.36v-.78Z"/>
      <path d="M6.25,6.58l-2.11.48v-.4s-1.41.11-1.41.11c-.04.27-.06,1.15.11,1.35.18.21.26.12.38.47.15.4.21.89.3,1.3-.79-.18-1.51-.89-1.73-1.66-.36-1.28.41-2.62,1.69-2.93,1.13-.28,2.28.2,2.77,1.27Z"/>
      <path d="M16.5,15.92v2.75l-1.59-.55-2.87-3.6s.08,0,.11,0c.6.21,1.16.49,1.75.72.85.33,1.71.49,2.6.68Z"/>
      <path d="M16.5,14.36v1.48c-.71-.22-1.44-.37-2.15-.59s-2.29-.73-2.8-1.2c-.21-.19-.37-.35-.25-.65.7-.13,1.48-.02,2.15.24.46.18.9.53,1.38.63.53.12,1.13.06,1.68.1Z"/>
      <path d="M8.01,6.84c.28,1.57-.52,3.36-1.96,4.07-.04-.06-.09-.12-.14-.18-.13-.19-.44-.68-.52-.87-.02-.04-.03-.07-.02-.11.51-.31.91-.81,1.1-1.38.09-.27.15-.62.15-.9s-.15-.32.19-.4c.14-.04,1.14-.26,1.19-.23Z"/>
      <path d="M11.27,11.12c.02.4.05.8.03,1.21-.04,1.11-.32,1.84-.59,2.87-.03.13-.03.29-.11.4-.07,0-.79-.92-.88-1.05-.06-.09-.15-.2-.13-.32l.41-2.52,1.26-.6Z"/>
      <path d="M2.98,18.19l-.02,2.54c-.05.64-.04,1.3-.17,1.93-.09.06-.57-.04-.68-.09-.08-.04-.22-.18-.29-.25-.1-.1-1.09-1.35-1.02-1.41l1.36.34-.14-3.49.96.43Z"/>
      <path d="M7.53,14.5c-.22-.05-.46-.08-.68-.01-.12.04-.26.17-.38.16l-1.07-.34c0-.15-.05-.32-.06-.47-.02-.39.27-.7.43-1.05.2-.43.35-.9.51-1.35.33.25,1.35,2.93,1.25,3.06Z"/>
      <path d="M6.44,7.18c.14.77-.16,1.64-.75,2.15-.08.07-.38.31-.48.28-.09-.03-.91-1.29-1.05-1.45-.04-.11.07-.46.2-.51.65-.11,1.3-.35,1.94-.48.05,0,.1-.01.15,0Z"/>
      <path d="M2.44,14.85l.37.77-.84,1.24c-.03-.08,0-.18-.02-.27,0-.04-.01-.2-.07-.19l-1.14,1.11c-.06-.05-.04-.11-.03-.17.13-.6.62-1.72.97-2.24.19-.29.43-.23.74-.25Z"/>
      <path d="M8.38,6.16l-.03.38-.04.04-4.24,1c.06-.14-.04-.33.14-.38l4.17-1.04Z"/>
      <path d="M7.19,16.03c-.03.31.03.62.06.92.03.4,0,.76.16,1.15l.15.28-1.62-.06s.02-.06.04-.09c.14-.19.39-.35.53-.55l.53-1.65.14-.02Z"/>
      <path d="M3.07,18.33l.55.45c0,.25.07.53.07.78.01.59-.39,1.02-.56,1.57l-.06.04v-2.84Z"/>
      <path d="M10.71,6.04l-1.11.26.09-.42c.27,0,.62-.21.87-.23.08,0,.12.32.15.39Z"/>
      <path d="M3.91,7.58c.29.11.2.24.1.47-.03.02-.42-.1-.44-.13-.07-.1.26-.3.35-.34Z"/>
      <path d="M14.7.86c3.23-.07,4.68,4.09,2.18,6.06-1.61,1.27-4.14.81-5.11-1.02-1.21-2.28.36-4.99,2.93-5.04ZM14.42,2.76c-1.66.22-1.56,3.21.5,3,1.78-.18,1.72-2.86.03-3-.15-.01-.39-.01-.53,0Z"/>
      <path d="M14.53,2.87c1.85-.27,2.19,2.6.33,2.75s-2.01-2.5-.33-2.75Z"/>
    </g>
  </g>
</svg>