<?xml version="1.0" encoding="UTF-8"?>
<svg id="Layer_2" data-name="Layer 2" xmlns="http://www.w3.org/2000/svg" viewBox="0 0 45.42 33.79">
  <g id="Layer_1-2" data-name="Layer 1">
    <g>
      <path d="M5.48,3.65c4.23-.37,6.5,4.27,6.26,7.94-.28,4.16-4.11,8.45-8.41,5.93C-1.91,14.44-.8,4.19,5.48,3.65ZM5.61,8.75c-2.5.33-2.16,4.83.51,4.48,2.45-.33,2.14-4.83-.51-4.48Z"/>
      <path d="M18.12,6.04c.11-.04.13-.31.16-.42.06-.27.13-1.11.36-1.18.21-.07,1.44-.23,1.66-.22s.38.21.46.2.16-.19.25-.23c.23-.11,1.72.05,1.99.15s.56.42.62.71l-1.73.92c.03.79.51.14.84-.07.39-.24.8-.45,1.22-.63l-.06-.53c1.31-.26,2.63-.63,3.98-.59.31.32.9.65,1.09,1.06.16.35.71,2.58.56,2.81-.33.1-.66.29-1.02.19-.1-.03-.22-.15-.34-.2-.38-.15-.85-.3-1.21-.47-.54-.25-.99-.57-1.5-.85-.06-.03-.17-.15-.22-.05.88.64,1.88,1.63,2.99,1.77.26.03.98-.03,1.17.11.07.05.08.28.14.4.18.34.94.73.94,1.15,0,.35-1.14,2.04-1.45,2.31-.49.43-1.5.73-2.11.44-.07-.03-1.1-1.02-1.13-1.09-.08-.28-.11-.57-.15-.86-.07-.59-.04-1.45-.16-1.98-.16-.7-2.17-1.77-2.69-2.34l-.07.2,1.85,1.74c-.57,0-1.79-.17-2.19-.6-.08-.09-.09-.26-.14-.28-.31-.09-1.1.29-1.5.1-.31-.14-.88-1.79-1.13-2.16-.06-.09-.08-.18-.21-.15-.17.2.91,2.31,1.07,2.65l-.72,1.87c.15.48,1.26,1.23,1.37,1.59.09.29.03,1.32-.04,1.65-.05.26-.7.54-.94.41-.11-.08-.03-.11.02-.19.05-.09.63-.79.22-.65-.08.02-.33.72-.69.8-.19.04-.48,0-.46-.26.19-.15.38-.29.56-.45.04-.04.13,0,.09-.15l-.33-.04c-.27.4-.38.68-.94.57l.06-.24.47-.37c-.39-.29-.52-.29-1.01-.2v-2.15l.27-.03c-.25-.24-.59-.38-.66-.75-.19-1.04-.16-2.28-.29-3.35l.68-1.57v1.48Z"/>
      <path d="M28.53,26.19c.1.01.12-.18.13-.24.04-.4.04-.82.09-1.22.07,0,.77-.54.79-.38,0,.27.02.53,0,.8-.19,1.87-.84,3.9-1.06,5.79.02.29.14.52.37.69.37.26,1.64.88,2.09,1.07.28.12,1.21.3,1.28.53.22.72-.87.35-1.23.35-.16,0-.28.12-.47.14-.71.07-1.3-.11-1.95-.14-.73-.03-1.74.1-2.42,0-.36-.06-.47-.36-.44-.69.06-.56.42-1.23.47-1.88.09-1.09-.02-2.31-.14-3.39.37.18.75.49,1.11.66.07.03.23.13.29.04-.77-1.05-2.11-1.01-2.28-2.49-.11-.97.14-1.72.53-2.58l1.67.6c-.23-.31-1.02-.64-1.21-.9-.09-.12-.07-.33-.13-.47,0-.09.84-.11.96-.12.08,0,.36-.01.32-.15-.08-.12-.18-.1-.3-.11-1.36-.11-2.96.16-4.09-.75l-.96-2.5c0-.14.96-1.45,1.13-1.67.36-.46.43-.62,1.05-.77.99-.23,1.07.03,1.79.59,1.39,1.07,2.54,2.29,3.48,3.78.36.58.43.79.39,1.49-.02.25-.14,1.2-.22,1.39-.17.38-.93.56-1.22.85l.17,1.68ZM26.04,21.49l-2.08-2.95c.49,1.2.83,2.34,2.08,2.95ZM27.85,31.22l-.69.26-.65-.46.58.93c.17.03.84-.65.76-.73Z"/>
      <path d="M36.83,16c.07.07.19.54.32.72.39.53,1.12.61,1.66.26,1.26-.8.59-3.06-1.05-2.73-.38.08-.4.36-.95.31-.8-.07-1.71-.37-2.52-.47-.2-.23.92-2.28,1.31-2.47.52.24,2.98-1.59,2.98-1.59,4.15.45,5.5,5.52,3.66,8.83-2.57,4.63-7.94,2.48-8.29-2.39-.02-.26-.07-.83.2-.94.13-.05,2.57.36,2.67.45Z"/>
      <path d="M20.67,33.3l.13.47c-.53.08-.62-.04-.94-.4l.07.4c-.47.05-.59.01-.87-.34l.07.34c-.41.02-.66.05-.94-.27l.07.27c-.32-.02-.66.03-.98,0-.24-.02-.44-.12-.67-.14-.43-.04-1.34.21-1.31-.44,0-.17.37-1,.46-1.22.13-.31.35-.53.45-.89.3-1.04.36-2.35.44-3.43.23.05.78,1.09,1,.73.16-1.52.7-2.99,1.28-4.39.01-.2-.08-.05-.12.01-.46.61-1.08,1.94-1.2,2.69-.02.14-.03,1.23-.18,1.22-.27-.37-.88-.88-.96-1.32-.21-1.24.19-2.4,1.02-3.31.11-.12.65-.63.75-.66.34-.1.81.36,1.12.47.08.03.18.04.18-.05,0-.11-.73-.63-.84-.77-.14-.18-.16-.42-.33-.61-.19-.21-1.83-1.41-1.65-1.67,1.23-.21,2.45.26,3.65.46l1.15-1.53c.06,0,.21.35.25.42.21.44.63,1.43.75,1.87.19.74-.06,1.1-.39,1.74-.17.32-.47.7-.61,1.01-.25.57-.37,1.32-.63,1.93-.32.77-.8,1.62-1.19,2.37-.31.62-1.25,2.01-1.25,2.65,0,.39.82.98,1.08,1.27l2.18,1.05c.29.41-.1.67-.5.5-.1-.04-.43-.53-.54-.43ZM17.85,31.02l-1.27.48.06.46c.08.06,1.13-.75,1.21-.94Z"/>
      <path d="M19.46,15.17l1.87,3.4-1.18,1.49c-.95-.21-1.9-.42-2.87-.53-.37-.04-.76.08-1.1-.11-.47-.71-.98-1.42-1.4-2.16-.1-.18-.67-1.18-.68-1.27-.03-.22.17-.77.25-1.02.16-.52.88-2.41,1.51-2.41.16,0,1.67.27,1.81.33.13.05.13.19.21.26.5.39,1.36.45,1.92.63.14.04.21.21.37.24.25.05.6-.16.7-.1.21.11.75,1.24.98,1.51.3.34.92.69,1.27,1.01.08.12-.41.74-.52.9s-.74.96-.83.98l-2.31-3.15Z"/>
      <path d="M7.58,18.33l.73-.31c3.14-1.62,4.48-5.54,3.82-8.9-.4-2.02-1.66-4.24-3.54-5.16-.02-.11.09-.07.17-.07.75,0,1.67.39,2.31.78,4.85,2.96,4.22,11.59-1.3,13.39-.21.07-.9.27-1.08.27h-1.11Z"/>
      <path d="M39.6,21.69l1.12-.53c3.65-2.2,3.86-8.04.49-10.58-.08-.06-.78-.47-.73-.51,2.61.14,4.51,2.41,4.88,4.89s-1.02,5.46-3.51,6.4c-.16.06-1.04.33-1.14.33h-1.11Z"/>
      <path d="M35.71,0l-2.47,2.46.05.46c.59.51,1.28.99,1.75,1.61,0,.09-.97,1.23-1.11,1.38-.09.09-.17.23-.3.18-.37-.32-.78-.62-1.14-.95-.15-.14-.94-.86-1-.95-.12-.19-.37-1.72-.32-1.91.03-.12.15-.23.26-.28l4.28-2Z"/>
      <path d="M29.79,4.92c.44-.06,1.71.09,2.11.27.47.21.69,1.56.66,2.03-.01.18-.37,1.46-.46,1.63-.21.45-.86.66-1.27.88l-.9-1.03c.1-.88-.16-1.91-.37-2.78-.14-.59-.53-.89.22-.99Z"/>
      <path d="M32.55,9.8c.13.43,1.11.4,1.07.97,0,.13-.39.79-.48.93-.55.81-1.27,1.31-2.03,1.9l-2.52-.44c.38-.43.87-.68,1.24-1.15s.88-1.7,1.15-1.94c.39-.36,1.2-.32,1.41-.94l.49.51c.02.17-.22.16-.33.16Z"/>
      <path d="M32.02,14.77l-10.57-1.61-.04-.88,10.8,1.82c.05.29,0,.46-.19.66.11-.07.18,0,.28-.22.43-.86-.29-.65-.82-.89.16-.16.3-.33.5-.44.1-.06.26-.05.29-.07.04-.04.03-.28.15-.36.32-.2,1.1.58.07.44.21.39,1.12.21,1.31.47.1.15.22,1.38.16,1.56-.03.09-.21.16-.29.24-.07.06-.11.21-.17.24-.12.07-.24-.05-.36-.03s-.18.22-.3.25-1.19-.23-1.26-.33c-.06-.08-.14-.63-.1-.67.31.07.36-.08.54-.2Z"/>
      <path d="M23.13,8.74c.1-.03,1.73.24,1.83.3.18.11.23.83.26,1.08.06.53.07,1.07.14,1.6l-.79.77-1.33-.26-.94-2.21.82-1.27Z"/>
      <path d="M23.56,13.83c-.04.29-.36.17-.47.4l1.01.3c-.08-.04-.63-.69-.44-.71l3.93.64c-.41.72-1.37.33-1.93.55-.2.08-.32.37-.49.52-.39.35-1.19.72-1.71.63-.37-.06-.96-.71-1.24-.97.19-.17.47-.34.47-.64-.28-.06-.55.46-.79.32-.06-.04-.76-1.13-.75-1.22l.44-.18,1.99.34Z"/>
      <path d="M22.75,12.15l-1.21-.23c-.12-.1-.03-.34-.1-.5-.14-.33-1.27-1.07-1.23-1.56.01-.15.58-1.65.66-1.7.73-.21,1.26-.12,1.78.44l-.69,1.36c.07.3.92,2.06.79,2.19Z"/>
      <path d="M39.94,1.95l.51,3.83c-.09.56-1.38,1.14-1.82,1.47-.19,0-.21-1.39-.15-1.56.07-.23.54-.19.68-.47.28-.97.36-2.09.65-3.04.03-.09,0-.21.14-.23Z"/>
      <path d="M34.23,15.24l.03-.81,3.9.74c.11.26.01.67-.33.67l-3.6-.6Z"/>
      <path d="M17.84,11.69c.07.08-.07.85-.17.87l-2.98-.52.07-.9,3.08.54Z"/>
      <path d="M37.25,16.05c.44,0,1,.12,1.16-.41.2-.63-.23-.8-.76-.86-.1-.14.85-.38,1.26.25.86,1.31-1.06,2.75-1.67,1.03Z"/>
      <path d="M26.17,12.76c-.35-.12-.77,0-1.07-.23l.49-.36c.1.03.68.5.58.59Z"/>
      <path d="M17.78,10.68v.67s-.81-.14-.81-.14c-.06-.06.77-.58.81-.54Z"/>
      <path d="M18.72,12.62c.04.16-.04.11-.09.15-.22.2-.45.3-.65,0,.1-.36.46-.2.73-.16Z"/>
      <path d="M5.54,9.21c1.97-.36,2.44,2.82.89,3.44s-2.51-1.25-1.92-2.52c.16-.35.64-.85,1.03-.92Z"/>
      <g>
        <path d="M34.11,13.98l1.68-.91-1.09-.63c-.25.47-.46.98-.59,1.54Z"/>
        <path d="M38.39,9.99c-1.53,0-2.88.97-3.69,2.45l1.09.63,4.6-2.48c-.6-.38-1.28-.6-2-.6Z"/>
      </g>
      <polyline points="34.11 13.98 34.1 14.04 34.3 14.09 34.29 13.88"/>
    </g>
    <path d="M33.76,10.47l.1.29,2.19-.31c.47-.68,1.1-1.24,1.6-1.9.26-.34.36-.47.42-.9.06-.44.03-.91.06-1.36,0-.11.09-.43.08-.49,0-.07-.16-.35-.22-.41-.09-.09-.54-.05-.68-.04-.74.04-1.51.17-2.26.24-.11.01-.37-.02-.43.05l-1.41,2.08.54,2.75Z"/>
  </g>
</svg>