<?xml version="1.0" encoding="UTF-8"?>
<svg id="Layer_2" data-name="Layer 2" xmlns="http://www.w3.org/2000/svg" viewBox="0 0 44.48 29.78">
  <g id="Layer_1-2" data-name="Layer 1">
    <g>
      <path d="M34.76,16.85l-2.05,1.85c-.71.2-1.46.21-2.19.34l-1.14-1.33c.03-.13,2.07-.87,2.36-1,1.04-.47,1.94-1.16,2.72-1.99l.18-3.15.53-4.3,1.17,2.99c0,1.47-.16,2.94-.08,4.39-.19.5-.71.78-1.02,1.19-.21.29-.35.67-.49.99Z"/>
      <path d="M9.27,7.32l.47,4.22.16,3.08c.81.86,1.78,1.59,2.86,2.09.47.22.97.37,1.45.57.13.05.85.35.89.41.03.05.02.07-.02.1l-1.1,1.24-2.13-.31-2.12-1.92c-.17-.33-.31-.71-.54-1.01s-.91-.77-1-1.1c-.04-.15,0-.38,0-.54-.1-1.04-.06-2.01-.08-3.05,0-.6-.09-.77.13-1.37.28-.8.75-1.55.9-2.41h.12Z"/>
      <polygon points="3.25 0 5.09 0 5.15 .06 5.15 10.08 5.09 10.14 3.31 10.14 3.21 9.72 3.21 .22 3.25 0"/>
      <path d="M39.25.04s.09-.04.1-.04h1.74l.06.06v10.02l-.06.06h-1.7s-.14-.09-.14-.1V.04Z"/>
      <path d="M31.76,4.79s-.33.66-.44.69H13.08c-.1-.05-.34-.56-.37-.69h19.05Z"/>
      <path d="M28.24,17.7c.06-.05.43.25.51.3.44.32,1.15.81,1.53,1.16.03.03.1.06.08.12l-1.72,3.46-2.56,1.96-.57-1.64,2.11-2,.61-3.37Z"/>
      <polygon points="16.24 17.7 16.81 20.94 18.96 23.03 18.44 24.7 15.84 22.75 14.16 19.28 16.24 17.7"/>
      <polygon points="43.13 8.79 41.51 8.79 41.51 1.35 43.07 1.35 43.13 1.41 43.13 8.79"/>
      <polygon points="1.31 8.79 1.31 1.35 2.87 1.35 2.93 1.41 2.93 8.73 2.87 8.79 1.31 8.79"/>
      <path d="M22.57,21.1l-.07-3.28,2.72-1.23,2.47.61c.01.06-.1.14-.14.18-1.18,1.11-3.16,2.56-4.52,3.48-.06.04-.41.29-.45.24Z"/>
      <path d="M21.9,21.14l-5.06-3.89v-.11s2.46-.55,2.46-.55l2.68,1.24c.21.15.05.39.04.59-.02.34-.02.69-.04,1.03-.03.56-.03,1.12-.08,1.68Z"/>
      <path d="M21.74,21.46l-1.96,1.19-2.47-1.65c-.08-1.19-.56-2.3-.6-3.5l5.03,3.96Z"/>
      <path d="M27.8,17.58c-.2.84-.29,1.69-.45,2.53-.04.19-.15.89-.24.99l-2.38,1.54-2-1.23,5.07-3.84Z"/>
      <path d="M14.37,14.34l1.67,2.71c.02.05,0,.07-.03.11-.04.04-.52.3-.57.3-.14,0-.49-.2-.65-.26-.79-.3-1.57-.56-2.32-.96-.81-.43-1.53-.97-2.19-1.61.49-.29,1.09-.47,1.65-.56.64-.1.97-.09,1.59.05.29.06.57.18.86.23Z"/>
      <path d="M30.15,14.34c.91-.27,1.74-.45,2.68-.22.29.07.98.3,1.22.44.04.02.1.04.09.1-.02.08-.9.81-1.03.91-1.19.89-2.53,1.29-3.88,1.87-.19.05-.53-.15-.69-.26-.03-.02-.07-.04-.06-.09l1.67-2.75Z"/>
      <path d="M12,13.22c-.65-.45-1.37-.86-1.93-1.41l-.6-4.66c0-.06.04-.08.08-.12.19-.13.61-.2.82-.33h.1c.15.07.85.38.89.49.02.06.01.13,0,.19-.03.56-.28,1.42-.24,1.94.06.73.65,1.88.78,2.66l.09,1.24Z"/>
      <path d="M34.89,7.01l-.6,4.88-.13.15-1.8,1.27c.06-.47.04-.97.14-1.43.17-.8.59-1.66.77-2.48l-.23-2.25.89-.46.96.32Z"/>
      <path d="M21.82,29.69l-3.27-1.19-.42-1.25.56-1.88c.11-.09.75.57.85.67.46.49.84,1.06,1.38,1.47l.89,2.18Z"/>
      <path d="M25.82,25.34l.56,1.92-.38,1.21-3.27,1.23.77-2.1c.73-.57,1.49-1.72,2.22-2.22.03-.02.04-.06.1-.04Z"/>
      <path d="M19.33,23.2l2.91-1.02,2.95,1.04c0,.07-.43.24-.52.28-.8.35-1.61.68-2.44.97-.89-.38-1.87-.72-2.74-1.14-.06-.03-.15-.05-.17-.13Z"/>
      <path d="M23.33,8.2l2.05,1.96c-.17.22-1.43,1.96-1.56,1.96-.06,0-.1-.06-.13-.11l-1.23-2.18c-.03-.2.8-1.34.87-1.63Z"/>
      <polygon points="21.11 8.2 22.02 9.8 20.65 12.11 19.13 10.16 21.11 8.2"/>
      <path d="M24.9,23.8c.29-.05.46.31.62.51.08.09.39.34.37.45l-2.06,1.96c-.06-.02-1.01-.73-1.04-.79-.13-.27-.04-.88-.13-1.2.02-.09.33-.2.43-.24.59-.26,1.23-.41,1.81-.69Z"/>
      <polygon points="21.86 24.71 21.72 25.93 20.65 26.73 18.65 24.76 19.47 23.79 21.86 24.71"/>
      <polygon points="23.64 12.55 23.2 14.49 21.27 14.49 20.87 12.55 23.64 12.55"/>
      <path d="M25.43,12.45l-1.82,3.6-.08.02c-.02-.76-.02-1.44.13-2.18.06-.28.24-1.26.34-1.45.13-.27,1.03-1.33,1.28-1.61.04-.05.1-.11.16-.14v1.76Z"/>
      <path d="M19.05,10.69c.11.08.22.19.32.3.24.27.97,1.14,1.12,1.42.12.23.32,1.25.38,1.56.1.51.16,1.01.13,1.53l-.08.57-1.86-3.66v-1.72Z"/>
      <path d="M22.34,29.77c-.14.03-.15-.07-.2-.17-.41-.79-.36-1.86-1.14-2.46l1.25-.85,1.25.85-.49.57-.65,2.06Z"/>
      <path d="M18.73,16.39l-2.23.55-.94-1.9c.45.03,1.16-.24,1.57-.05.27.13,1.12.83,1.36,1.06.06.05.3.26.24.34Z"/>
      <path d="M28.12,16.94l-2.37-.65,1.65-1.32c.44-.05.87.02,1.31.06.07,0,.26-.07.27.07.03.22-.84,1.49-.86,1.84Z"/>
      <polygon points="23.21 14.81 23.21 16.71 21.33 16.71 21.27 16.65 21.27 14.81 23.21 14.81"/>
      <path d="M29.62,8.08l-.06.12-1.78,1.82h-1.76c0-.09.07-.15.12-.22.3-.37,1.24-1.31,1.6-1.6.05-.04.1-.09.16-.12h1.72Z"/>
      <polygon points="27.41 8.08 25.6 9.94 23.76 8.08 27.41 8.08"/>
      <polygon points="20.71 8.08 18.88 9.94 17.11 8.08 20.71 8.08"/>
      <path d="M18.5,10.02h-1.76l-1.78-1.82-.06-.12h1.68c.15.11.25.26.38.38.52.51,1.04,1.03,1.55,1.56Z"/>
      <path d="M38.97,4.79v.75l-3.86-.05c-.12-.04-.09-.61.03-.71h3.82Z"/>
      <path d="M9.15,4.79v.71c-.88.01-1.76-.02-2.64,0-.34,0-.83.15-1.13-.06v-.65h3.76Z"/>
      <polygon points="23.49 12.23 21.03 12.23 22.24 10.17 22.37 10.28 23.49 12.23"/>
      <path d="M9.51,4.53l2.34-.61.12.75h-.28c-.02.12.06.55-.06.59l-2.11.05v-.77Z"/>
      <polygon points="32.87 5.31 32.86 4.71 32.44 4.67 32.59 3.92 34.85 4.52 34.81 5.31 32.87 5.31"/>
      <path d="M10.61,6.49l.32-.85,1.03.02-.04-.75c.61-.09.77.41.98.86l-.97.99-1.32-.27Z"/>
      <path d="M32.59,4.95l-.08.71.98-.03s.25.76.24.81c0,.05-.02.08-.07.09l-1.18.23-.93-.88c-.07-.15.4-.92.46-.92h.57Z"/>
      <path d="M20.55,16.75l-1.86-.81c0-.09.96-1.5,1.05-1.52.06-.01.09.05.1.1l.71,2.24Z"/>
      <polygon points="10.18 14.41 10.1 12.31 11.92 13.64 10.18 14.41"/>
      <path d="M24.83,14.42c.02.05.03.1.07.15.18.27.74.99.83,1.23.02.06.04.13.02.19l-1.78.72.76-2.29h.11Z"/>
      <polygon points="34.26 12.39 34.18 14.41 32.55 13.68 34.26 12.39"/>
      <polygon points="29.62 7.8 28 7.8 28 6.14 29.62 7.8"/>
      <polygon points="16.52 7.8 14.89 7.8 16.52 6.14 16.52 7.8"/>
      <path d="M44.3,4.51s.09.04.1.07l.08,1.08h-1.07v-1.15c.27.03.63-.04.89,0Z"/>
      <path d="M.99,5.66h-.99c.05-.31-.01-.77.04-1.05,0-.04.02-.07.06-.1h.83l.06.06v1.09Z"/>
      <path d="M9.35,6.81v-1.09s.05-.06.04-.1h.61c.08.12.29.75.24.83l-.89.36Z"/>
      <path d="M34.97,5.62l.08,1.19-.99-.36.33-.79c.12-.09.42-.01.58-.04Z"/>
    </g>
  </g>
</svg>