<?xml version="1.0" encoding="UTF-8"?>
<svg id="Layer_2" data-name="Layer 2" xmlns="http://www.w3.org/2000/svg" viewBox="0 0 22.91 17.23">
  <defs>
    <style>
      .cls-1 {
        fill: none;
      }

      .cls-2 {
        fill: #231f20;
      }
    </style>
  </defs>
  <g id="Layer_1-2" data-name="Layer 1">
    <g>
      <g id="_5IyImg" data-name="5IyImg">
        <g>
          <path class="cls-2" d="M12.49,7.55s-.04,0-.06,0l-.84-1.47.59-1.01,1.27,1.24-.96,1.23Z"/>
          <polygon class="cls-2" points="10.73 5.07 11.32 6.08 10.45 7.55 9.49 6.32 10.73 5.07"/>
          <polygon class="cls-2" points="12.33 7.83 12.07 9.06 10.85 9.05 10.6 7.83 12.33 7.83"/>
          <path class="cls-2" d="M9.44,6.64c.33.34.61.75.92,1.12.07.46.26.98.29,1.44.02.28-.02.59,0,.88l-1.21-2.36v-1.08Z"/>
          <path class="cls-2" d="M13.47,7.75l-1.16,2.33s-.02-.05-.02-.08c0-.26-.02-.61,0-.87.03-.43.22-.91.27-1.35l.92-1.14v1.1Z"/>
          <polygon class="cls-2" points="12.06 9.26 12.06 10.47 10.88 10.47 10.85 10.43 10.85 9.26 12.06 9.26"/>
          <polygon class="cls-2" points="14.74 5 13.59 6.16 12.42 5 14.74 5"/>
          <polygon class="cls-2" points="16.15 5 14.96 6.21 13.86 6.21 13.89 6.14 15.03 5 16.15 5"/>
          <polygon class="cls-2" points="10.49 5 9.34 6.17 8.19 5 10.49 5"/>
          <polygon class="cls-2" points="9.07 6.21 7.97 6.21 6.78 5 7.88 5 9.07 6.21"/>
          <polygon class="cls-2" points="10.69 7.62 11.48 6.3 12.24 7.62 10.69 7.62"/>
          <polygon class="cls-2" points="7.82 4.8 6.78 4.8 7.82 3.75 7.82 4.8"/>
          <polygon class="cls-2" points="16.15 4.8 15.11 4.8 15.11 3.75 16.15 4.8"/>
        </g>
      </g>
      <g>
        <polygon class="cls-1" points="19.34 8.25 19.56 8.26 19.34 8.25 19.34 8.25"/>
        <polygon class="cls-1" points="19.34 8.25 19.34 8.25 17.09 8.15 18.33 8.2 19.34 8.25"/>
        <polygon points="2.52 2.88 2.52 0 1.19 0 1.19 4.75 1.24 4.8 2.52 4.8 2.52 3.28 3.96 3.28 3.96 2.88 2.52 2.88"/>
        <path d="M18.93,2.88H3.96l.04.05s0,.06,0,.09c0,.08.02.2-.05.25h15.03c-.1-.1-.03-.27-.05-.4Z"/>
        <path d="M4.01,3.03s0-.06,0-.09l-.04-.05v.4c.07-.05.06-.17.05-.25Z"/>
        <polygon points="20.39 2.88 19.08 2.88 19.08 3.28 20.39 3.28 20.39 4.8 21.72 4.8 21.72 0 20.39 0 20.39 2.88"/>
        <path d="M18.93,2.88c.02.13-.05.3.05.4h.1v-.4h-.15Z"/>
        <polygon points="22.34 3.67 22.91 3.67 22.91 1.22 22.34 1.22 22.33 .79 22.01 .76 22.01 4.1 22.34 4.1 22.34 3.67"/>
        <path d="M.56,4.1h.33V.81c-.04-.07-.28-.07-.32-.02v.43h-.58v2.45h.56v.43Z"/>
        <g>
          <polygon points="14.53 8.58 11.72 11.44 12.1 12.89 13.66 13.03 16.28 8.13 14.53 8.58"/>
          <polygon points="17.81 8.24 16.58 8.18 15.93 9.38 15.28 10.59 15.28 10.65 15.28 10.71 16.29 10.56 17.3 10.41 17.35 10.35 18.83 8.28 17.81 8.24"/>
          <path d="M11.65,13.06v4.02s.04.11.05.15l2.11-1.7-.84-1.76-1.31-.71Z"/>
          <g>
            <polygon points="18.93 7.92 18.93 7.92 18.93 7.92 18.93 7.92"/>
            <polygon points="18.88 7.92 18.91 7.92 18.91 7.92 18.88 7.92"/>
            <polygon points="18.93 7.92 18.93 7.92 18.93 7.92 18.93 7.92"/>
            <polygon points="18.91 7.92 18.91 7.92 18.93 7.92 18.93 7.92 18.93 7.92 18.91 7.92"/>
            <g>
              <polygon points="18.23 7.48 19.02 7.14 18.98 7.52 18.98 7.52 19.7 3.28 18.12 3.21 18.47 4.07 16.77 6.92 16.64 7.93 17.81 7.16 18.23 7.48"/>
              <polygon points="18.4 7.62 16.64 7.93 18.87 8 18.9 8 18.4 7.62"/>
              <polygon points="18.21 7.49 18.23 7.48 17.81 7.16 16.64 7.93 18.4 7.62 18.21 7.49"/>
              <polygon points="18.92 8 18.92 8 18.98 7.52 18.41 7.62 18.92 8"/>
              <polygon points="18.23 7.48 18.41 7.62 18.98 7.52 19.02 7.14 18.23 7.48"/>
              <polygon points="18.4 7.62 18.9 8 18.92 8 18.41 7.62 18.4 7.62"/>
              <polygon points="18.23 7.48 18.21 7.49 18.4 7.62 18.41 7.62 18.23 7.48"/>
            </g>
          </g>
        </g>
        <g>
          <polygon points="8.47 8.56 11.26 11.44 10.87 12.88 9.32 13.02 6.72 8.1 8.47 8.56"/>
          <polygon points="5.18 8.21 6.42 8.15 7.06 9.36 7.71 10.57 7.71 10.63 7.71 10.69 6.7 10.54 5.68 10.39 5.63 10.32 4.16 8.25 5.18 8.21"/>
          <path d="M11.32,13.05l-.02,4.02s-.04.11-.05.15l-2.1-1.71.85-1.76,1.32-.7Z"/>
          <g>
            <polygon points="4.07 7.89 4.07 7.89 4.07 7.89 4.07 7.89"/>
            <polygon points="4.12 7.89 4.09 7.89 4.09 7.89 4.12 7.89"/>
            <polygon points="4.07 7.89 4.07 7.89 4.07 7.89 4.07 7.89"/>
            <polygon points="4.09 7.89 4.09 7.89 4.07 7.89 4.07 7.89 4.07 7.89 4.09 7.89"/>
            <g>
              <polygon points="4.77 7.45 3.98 7.11 4.02 7.49 4.02 7.49 3.32 3.24 4.9 3.18 4.54 4.04 6.23 6.9 6.36 7.91 5.19 7.14 4.77 7.45"/>
              <polygon points="4.6 7.59 6.36 7.91 4.13 7.97 4.1 7.97 4.6 7.59"/>
              <polygon points="4.78 7.46 4.77 7.45 5.19 7.14 6.36 7.91 4.6 7.59 4.78 7.46"/>
              <polygon points="4.08 7.97 4.08 7.97 4.02 7.49 4.59 7.59 4.08 7.97"/>
              <polygon points="4.77 7.45 4.59 7.59 4.02 7.49 3.98 7.11 4.77 7.45"/>
              <polygon points="4.6 7.59 4.1 7.97 4.08 7.97 4.59 7.59 4.6 7.59"/>
              <polygon points="4.77 7.45 4.78 7.46 4.6 7.59 4.59 7.59 4.77 7.45"/>
            </g>
          </g>
        </g>
      </g>
    </g>
  </g>
</svg>