<?xml version="1.0" encoding="UTF-8"?>
<svg id="Layer_2" xmlns="http://www.w3.org/2000/svg" viewBox="0 0 1603.43 1999.61">
  <g id="Layer_1-2" data-name="Layer_1">
    <g id="XvCvGx">
      <g>
        <path d="M422.26,1999.61c7.02-36.73,14.01-73.46,21.16-110.17.45-2.34,1.81-4.64,3.23-6.62,6.7-9.34,13.73-18.44,20.25-27.9,1.76-2.56,3.02-6.07,3.01-9.13-.04-9.97-.94-19.94-1.16-29.91-.07-2.99.32-6.36,1.67-8.95,7.49-14.3,15.1-28.54,23.2-42.49,2.69-4.63,6.65-8.67,10.6-12.38,6.31-5.93,13.36-11.07,19.59-17.07,4.89-4.71,9.65-8.06,17.14-3.87.45-8.71.91-16.59,1.26-24.47.41-9.31.57-18.64,1.19-27.93.14-2.1,1.38-4.38,2.72-6.11,10.16-13.19,20.44-26.29,30.77-39.35,2.57-3.26,3.74-6.69,3.84-10.94.71-30.97,2.32-61.93,2.24-92.9-.04-14.53-3.27-29.03-4.86-43.57-.3-2.72-.18-5.67.58-8.27,3.41-11.65,6.43-23.49,10.93-34.72,4.49-11.19,4.16-22.44,3.33-33.88-2.15-29.88-4.53-59.74-6.75-89.62-.55-7.47-.71-14.97-1.32-22.43-.15-1.82-.95-3.96-2.18-5.27-17.54-18.72-35.21-37.33-52.86-55.95-.21-.23-.59-.3-1.31-.65-3.27,3.53-6.71,7.09-9.97,10.8-16.27,18.52-32.88,36.77-48.54,55.79-5.38,6.53-8.14,15.17-12.52,22.59-1.47,2.48-3.92,4.96-6.52,6.11-13.68,6.06-27.51,11.79-41.38,17.42-3.41,1.39-4.65,3.13-4.47,6.98,1.21,26.63,2.14,53.26,3.13,79.9.08,2.15.01,4.3.01,6.94-16.97,3.82-33.78,7.6-51.1,11.5.49-9.9.91-19.14,1.4-28.38.58-11.14.91-22.31,1.97-33.41.44-4.62,1.79-9.46,3.95-13.55,4.1-7.72,9.09-14.98,12.87-23.32-1.18,1.06-2.57,1.96-3.52,3.2-5.86,7.67-11.64,15.41-17.39,23.17-.56.75-.97,1.74-1.11,2.67-3.34,22.67-6.8,45.33-9.8,68.05-.55,4.18-2.82,5.55-5.94,6.92-18.72,8.23-37.43,16.48-56.14,24.76-1.48.65-2.86,1.5-4.06,2.99,42.5-13.29,85.17-25.72,130.03-33.53,0,8-.84,15.9.2,23.54,1.59,11.72-2.3,21.28-8.33,30.88-17.7,28.19-34.93,56.68-52.44,84.99-.98,1.59-2.71,2.9-4.37,3.86-25.95,14.97-52,29.76-77.86,44.88-4.33,2.53-8.46,5.94-11.67,9.79-22.43,26.85-44.31,54.12-63.26,83.63-2.65,4.13-2.79,7.03-.16,11.46,13.29,22.29,26.16,44.83,38.9,67.43,1.4,2.48,1.39,5.98,1.38,9-.02,9.47-.69,18.95-.36,28.41.1,2.83,2.25,5.88,4.14,8.29,5.74,7.36,9.13,15.47,8.84,24.86-.05,1.74-.71,3.91-1.89,5.08-4.36,4.35-8.89,8.57-13.72,12.38-1.68,1.33-4.41,1.78-6.68,1.82-3.26.06-6.54-.62-9.69-.98-1.46,7.75-2.88,15.23-4.28,22.72-.63,3.36-2.1,4.77-6.02,4.8-9.06.07-17.25-1.36-24.73-7.1-5.77-4.43-12.35-7.81-18.79-11.79,2.69,12.95,5.31,25.63,8.04,38.79-5.64,1.6-10.38,2.97-15.14,4.29-3.21.89-6.55,1.42-9.62,2.64-12.33,4.89-24.78,4.66-37.61,2.14-14.02-2.75-28.23-4.55-42.32-6.99-2.07-.36-4.52-1.53-5.78-3.13-12.79-16.21-25.38-32.58-38.01-48.93-4.38-5.67-4.92-11.56-1.25-17.93.79-1.37.81-3.81.15-5.3-4.95-11.09-9.97-22.15-15.38-33.01-1.95-3.92-2.34-7.48-.69-11.39,6.13-14.55,12.2-29.13,18.44-43.63,4.28-9.93,8.85-19.73,13.21-29.62,4.37-9.91,8.31-19.88,8.92-30.96.89-16.16,6.92-31.05,12.35-46.04,5.04-13.92,10.33-27.75,15.03-41.78,1.5-4.48,1.8-9.46,2.04-14.25,1.53-31.09,2.32-62.24,4.53-93.28,1.22-17.2,3.78-34.45,7.47-51.29,3.65-16.66,8.8-33.1,14.59-49.17,5.09-14.12,6.17-28.45,6.3-43.11.13-14.49.36-28.99.75-43.48.06-2.21.73-4.65,1.84-6.56,15.88-27.54,31.84-55.03,47.92-82.45,1.82-3.1,4.25-5.93,6.79-8.49,7.06-7.08,14.19-14.09,21.55-20.86,18.18-16.7,29.17-37.52,34.26-61.34,3.46-16.22,5.37-32.76,8.25-49.1.68-3.83,1.74-7.98,3.9-11.1,16.58-23.94,33.26-47.81,50.36-71.38,10.95-15.09,22.72-29.58,33.93-44.48,1.09-1.45,1.43-4.01,1.1-5.88-4.81-27.33-10.34-54.54-14.39-81.98-1.24-8.4.84-17.5,2.49-26.08,4.2-21.87,8.99-43.62,13.64-65.4.36-1.7,1-3.66,2.18-4.81,20.68-20.07,40.79-40.8,62.49-59.71,11.52-10.04,25.61-17.26,38.92-25.11,23.51-13.86,47.35-27.15,70.95-40.87,4.47-2.6,8.67-3.4,13.72-2.04,19.07,5.14,38.21,10,58.54,15.28-4.65,4.51-8.67,8.57-12.93,12.37-.71.63-2.46.3-3.68.1-8.34-1.37-16.65-3.01-25.02-4.18-7.24-1.01-14.23.22-20.88,3.49-8.34,4.09-16.78,7.96-25.18,11.93.17.43.33.85.5,1.28,2.84-1.21,5.75-2.3,8.51-3.67,9.25-4.56,18.6-5.53,28.39-1.65,7.24,2.87,14.67,5.28,23.07,8.27-22.25,16.37-43.38,32.48-65.26,47.52-4.55,3.13-11.81,2.75-17.88,3.12-11.47.72-22.98.81-34.47,1.17-1.63.05-3.26.18-4.87,1.13,3.12,0,6.24.02,9.36,0,12.83-.09,25.68-.58,38.49-.14,7.52.26,13.44-2.35,19.29-6.55,20.56-14.75,41.22-29.36,61.95-43.89,7.55-5.29,5.21-4.98,12,.46,9.6,7.7,18.9,15.76,29.15,24.36-7.42,1.81-13.83,3.76-20.38,4.9-19.04,3.31-35.35,13.13-52.58,20.97-15.35,6.99-27.61,17.75-40.08,28.48-19.68,16.92-39.34,33.88-57.9,49.88,35.58-6.41,72.36-13.03,109.75-19.76,1.92,37.42,3.82,74.26,5.72,111.11.29.02.59.03.88.05.36-4.07.84-8.13,1.07-12.21,1.93-33.91,3.78-67.82,5.82-101.72.13-2.21,1.03-5.23,2.63-6.38,19.18-13.81,38.49-27.44,57.91-40.91,11.5-7.98,24.95-11.43,39.38-16.17-7.71,9.06-14.55,17.05-21.33,25.09-8.7,10.32-17.31,20.7-26.04,30.99-1.88,2.22-2.36,4.1-1.23,7.1,6.75,17.87,13.26,35.84,19.62,53.85,1.03,2.93,2.44,4.08,5.43,4.76,16.7,3.79,33.34,7.87,49.98,11.89,1.89.46,3.72,1.17,6.23,1.97-10.68,9.54-20.88,18.58-31,27.71-8.28,7.48-16.55,14.98-24.6,22.71-1.21,1.16-1.91,3.75-1.6,5.46,3.58,19.78,7.35,39.52,11.23,59.24.32,1.65,1.45,3.37,2.67,4.59,9.16,9.22,18.22,18.56,27.82,27.3,2.28,2.07,6.46,2.06,10.1,3.1-5.14-5.17-9.68-9.7-14.19-14.26-2.82-2.84-5.33-6.06-8.46-8.5-9.49-7.4-13.69-16.85-14.71-28.92-1.15-13.7-4.39-27.22-6.53-40.85-.23-1.45.41-3.67,1.47-4.6,18.86-16.65,37.84-33.15,57.4-50.21,19.59,38.56,30.37,79.52,38.58,121.38.44-20.11,1.22-39.87-4.48-59.72-5.96-20.74-12.94-40.82-23.08-59.8-1.88-3.52-1.54-5.66,1.53-8.8,11.88-12.13,23.2-24.81,34.86-37.42.63.21,1.27.34,1.82.63,19.85,10.49,39.72,20.95,59.5,31.57,2.22,1.19,4.54,2.98,5.79,5.1,8.4,14.17,16.73,28.38,24.65,42.82,5.44,9.91,5.06,21.09,6.36,32,1.58,13.22-4.38,22-14,29.09-4.19,3.09-9.42,4.77-14.19,7.07-1.63.78-3.29,1.49-4.84,2.49,10.74-1.65,21.32-3.23,30-11.04,5.61-5.05,9.55-10.44,8.46-18.06-1.24-8.56,2.49-13.18,9.47-17.9,10.96-7.41,20.69-16.63,31.06-24.93.96-.77,3.04-1.04,4.15-.54,5.9,2.68,11.72,5.56,17.42,8.64,1.5.81,2.85,2.37,3.64,3.91,5.68,11.09,11.78,22.02,16.53,33.51,2.31,5.59,2.31,12.24,2.79,18.45.4,5.14-2.49,7.97-7.55,9.5-20.35,6.19-40.7,12.43-60.88,19.15-47.16,15.7-94.23,31.66-141.31,47.58-5.61,1.9-11.11,3.45-17.77.66,12.97-18.26,25.84-36.37,38.7-54.48-.3-.46-.6-.92-.9-1.38-2.27,1.27-5.35,1.98-6.68,3.9-12.49,18.07-24.68,36.35-36.95,54.58-.17.25-.23.59-.37.97,2.65.41,5.42.43,7.89,1.3,11.12,3.89,20.76-1.6,30.7-4.73,51.97-16.36,103.88-32.91,155.85-49.29,10.62-3.35,21.42-6.12,32.06-9.4,1.85-.57,3.99-2.02,4.83-3.66,3.09-6.02,5.68-12.3,8.46-18.49,7.3,15.36,23.03,23.01,34.93,34.66.36-.36.73-.72,1.09-1.08-4.07-4.24-7.77-8.95-12.29-12.64-15.29-12.5-15.46-12.35-19.44-31.02-.37-1.72.53-3.83,1.18-5.64,10.11-28.33,20.39-56.6,30.39-84.97,4.19-11.88,2.93-24.38,3-36.66.02-3.6.88-6.1,3.81-8.5,19.23-15.7,38.28-31.61,57.4-47.44,1.5-1.24,3.07-2.39,5.11-3.97,7.77,23.69,17.84,45.86,19.11,70.89,1.61,31.74,5.25,63.36,7.3,95.09,1.02,15.76,1.9,31.79.03,47.36-1.17,9.77-7.16,19.12-11.87,28.19-1.33,2.56-5.7,3.7-8.85,5.11-5.74,2.57-11.6,4.85-17.05,8.33,6.4-2.04,12.75-4.29,19.22-6.07,7.24-2,10.73-7.84,15.21-13.2-2.89,11.53-6.04,23-8.64,34.59-10.07,45-29.03,86.95-44.17,130.22-4.64,13.25-12.94,23.99-22.18,34.02-24.19,26.24-52.24,47.91-81.76,67.76-2.34,1.58-4.57,3.33-6.82,5.04-.49.37-.82.95-.7,2.07,45.69-28.23,92.6-54.92,125.14-100.44-4.23,19.25-8.46,38.51-12.7,57.76-.57,2.6-1.53,5.14-1.8,7.77-1.63,16.11-12.62,27.15-21.3,39.38-11.18,15.75-22.78,31.19-34.17,46.79-1.76,2.41-3.4,4.92-5.37,7.79,27.76,11,55.25,21.89,84.18,33.35-23.46,31.93-45.99,62.59-68.74,93.55,4.13,2.04,9.27,4.6,14.44,7.11,10.03,4.87,20.03,9.79,30.13,14.5,2.84,1.33,3.22,2.65,2.38,5.74-4.44,16.37-11.17,31.52-22.02,44.78,17.26-10.46,28.53-25.35,33.75-45.98,1.06,3.76,1.89,6.82,2.78,9.87,4.46,15.32,9,30.62,13.29,45.99.52,1.88-.3,4.15-.57,6.24-1.62,12.71-7.74,21.61-19.67,27.54-10.45,5.2-19.81,12.61-29.99,19.27-5.25-8.79-10.74-18.47-16.78-27.79-2.04-3.15-5.04-6.52-8.38-7.86-27.91-11.26-56-22.07-84.04-32.99-.57-.22-1.25-.13-2.24.77,10.2,4.31,20.41,8.63,31.9,13.49-25.24-3.93-48.86-8.52-72.7-10.98-14.63-1.51-29.6.25-44.42.57-.58.01-1.15.26-1.77,1.26,1.89.2,3.79.38,5.68.59,23.31,2.53,46.66,4.77,69.92,7.68,14.18,1.78,28.54,3.43,42.25,7.21,17.1,4.71,33.52,11.79,50.41,17.34,5.71,1.88,9.11,5.22,11.88,10.28,4.71,8.61,10.06,16.86,14.95,25.37.79,1.37.9,3.39.7,5.03-.78,6.38-1.82,12.72-2.85,19.72,11.71,1.89,22.46,4.03,33.31,5.3,20.83,2.44,41.7,4.43,62.57,6.52,2.8.28,5.66-.04,8.48.09,4.57.21,6.47-2.33,7.19-6.5-.62-.23-1.28-.67-1.45-.53-6.99,6.05-15.17,4.44-22.79,2.7-25.46-5.82-50.95-11.28-77.68-13.11,1.69-6.78,3.09-13.05,4.92-19.2.44-1.48,2.09-3.01,3.57-3.72,10.07-4.78,20.21-9.41,30.38-13.97,11.3-5.06,23.43-6.16,35.57-6.92,15.08-.95,30.18-1.66,45.27-2.48.03-.43.06-.86.1-1.29-24.1-1.86-48.2-3.72-72.66-5.61,3.8-12.74,7.96-25.68,11.47-38.8,2.04-7.62,5.57-13.92,11.03-19.65,10.46-10.97,20.28-22.54,30.65-33.6,1.48-1.58,4.68-2.71,6.79-2.35,15.74,2.65,31.41,5.75,47.11,8.63,2.47.45,4.32.97,4.48,4.12,1.4,27.5,5.92,55.16-4.37,82.03-.64,1.66-1.6,3.2-2.39,4.74,7.67,13.21,15.56,26.82,23.89,41.17-8.03,1.01-15.37,1.89-22.69,2.88-9.73,1.31-19.46,2.56-29.16,4.1-5.45.86-10.57,2.66-14.47,9.37,6.3-1.11,11.37-2,16.43-2.89,24.79-4.34,49.67-7.72,74.91-7.44.67,0,1.34.1,2,.06,4.75-.28,7.56,1.36,8.31,6.61.86,6.04,3.31,11.85.8,18.11-.46,1.15.45,3.24,1.33,4.47,6.77,9.47,13.41,19.05,20.61,28.2,12.05,15.31,23.95,30.8,36.98,45.25,7.08,7.85,11.19,15.97,12.85,26.35,5.73,35.97,12.4,71.81,14.25,108.27,1.69,33.33-.04,66.52-4.43,99.59-.31,2.3-.29,4.63-.42,6.95H422.26ZM519.9,983.5c-85.09,36.64-168.48,75.35-255.41,105.69,23.51-3.45,47.46-5.34,70.08-11.84,22.74-6.53,44.17-17.65,66.34-26.84,4.13,21.53,8.23,43.22,12.54,64.88.42,2.09,1.63,4.54,3.27,5.78,19.58,14.96,39.33,29.69,58.95,44.6,2.34,1.78,4.21,1.87,6.76.58,15.57-7.88,31.11-15.82,46.86-23.34,6.31-3.02,9.29-7.02,11.57-14.12,10.05-31.32,21.12-62.35,32.73-93.13,2.36-6.26,1.37-9.36-2.71-13.59-13.63-14.16-27.11-28.48-40.31-43.05-3.75-4.15-7.38-8-12.68-10.09-8.19-3.25-16.29-6.74-24.47-10-3.82-1.52-7.75-2.74-11.63-4.1-.18.39-.36.77-.54,1.16,13.77,7.39,27.51,14.82,38.65,27.42ZM893.45,1719.4c1.81.42,3.38.71,4.91,1.15,19.16,5.57,38.38,10.93,57.45,16.82,24.03,7.42,48.31,12.42,73.67,10.23,4.87-.42,9.81-.06,15.11-.06-1.76,31.41-.92,62.85-12.05,92.94,4.93-6.25,9.11-12.79,13.49-19.18,5.93-8.64,8.55-17.97,8.47-28.59-.1-13.3,1.26-26.61,1.66-39.92.1-3.24,1.47-4.44,4.21-4.93,2.56-.45,5.13-.85,7.16-1.18,13.68,23.2,27.1,45.94,40.51,68.68.46-.18.93-.35,1.39-.53-2.68-7.03-4.73-14.39-8.16-21.03-6.34-12.26-13.51-24.09-20.28-36.13-2.23-3.97-4.28-8.04-6.72-12.65,8.64-1.33,16.48-2.79,24.38-3.61,2.65-.28,5.97.32,8.13,1.77,20.44,13.73,38.34,30.45,54.99,48.45,7.31,7.91,15.28,16,19.84,25.5,10.83,22.6,19.8,46.09,29.52,69.23.48,1.15.86,2.34,1.7,4.67-2.4-29.32-13.15-54.75-24.15-80.1-.72-1.65-1.93-3.11-3.05-4.55-19-24.4-42.18-44.31-66.9-62.65-9.95-7.38-20.17-9.41-32.34-6.69-10.1,2.25-20.32,5.44-31.02,3.61-8.51-1.45-17.03-2.94-25.6-3.99-11.72-1.43-23.53-2.09-35.22-3.72-14.98-2.1-29.84-5.03-44.81-7.26-18.25-2.72-36.55-5.17-54.86-7.52-3.52-.45-5.01-1.75-5.85-5.28-2.37-9.96-5.46-14.77-10.94-18.48,3.27,6.98,6.45,13.79,9.82,20.99h-36.49c9.3,1.36,18.6,1.85,27.9,2.09,3.24.08,5.43.89,7.4,3.82,4.24,6.32,9.08,12.24,13.68,18.32l1.11-.6c-2.63-6.37-5.25-12.74-8.1-19.63ZM908.61,1024.11c-.34-.49-.68-.98-1.02-1.47-6.49,3.94-13.33,7.41-19.4,11.91-17.38,12.9-34.53,26.11-51.6,39.42-36.77,28.65-72.88,58.23-114.03,80.7-3.24,1.77-6.22,4.04-9.32,6.07,2.04.5,3.61.11,5.11-.47,13.49-5.2,27.02-10.31,40.44-15.7,6.15-2.47,12.75-4.56,17.98-8.4,19.19-14.08,38.53-28.08,56.63-43.51,21.28-18.14,41.3-37.75,61.9-56.7,4.37-4.02,8.87-7.91,13.31-11.86ZM287.13,1329.07c22.44,9.03,44.89,15.5,68.95,15.65,6.09.04,10.06-1.68,13.12-6.61,9.26-14.96,18.42-29.99,27.96-44.77,3.15-4.89,3.99-9.62,2.29-15.03-2.79-8.85-5.15-17.86-8.32-26.57-7.42-20.42-16.35-40.01-32.13-55.68-2.29-2.28-4.18-3.02-6.81-1.12-11.6,8.33-23.23,16.6-34.72,25.08-1.43,1.06-2.66,3.15-2.91,4.92-2.56,17.75-5.34,35.48-7.15,53.31-1.4,13.82-4.58,26.7-12.84,38.13-2.79,3.85-4.84,8.23-7.42,12.69ZM673.43,1768.9c-.36-12.96-.82-25.92-.96-38.88-.02-1.4,1.54-3.82,2.74-4.09,9.72-2.18,19.47-4.4,29.33-5.73,9.94-1.34,20.42-2.91,25.45,9.6.71,1.76,2.44,3.14,3.78,4.62,17.86,19.79,35.69,39.6,53.64,59.3,3.27,3.59,7.06,6.69,11.22,10.6-3.65-5.62-6.91-10.56-10.08-15.55-16.56-26.05-34.19-51.28-56.71-72.65-1.43-1.36-4.07-2.33-6.01-2.12-6.76.72-13.44,2.24-20.19,3.08-22.79,2.83-45.38,8.16-68.87,6.09,8.95,10.73,20.33,1.91,30.09,3.79,2.68,13.97-.3,28.66,6.57,41.95ZM759.68,1651.13c52.43,4.42,105.96-2.21,159.22,4.51-15.3-4.29-30.62-9.79-46.25-10.83-38.06-2.54-76.04.75-112.97,6.33ZM868.91,1670.59c-.12.62-.25,1.25-.37,1.87,2.37,1.1,4.64,2.72,7.13,3.2,16.13,3.12,32.23,6.57,48.49,8.79,15.14,2.07,30.47,2.89,45.73,4,12.77.93,25.56,1.56,38.36,2.17,2.02.1,4.08-.62,6.12-.96-48.38-8.45-96.88-14.09-145.45-19.08ZM477.5,693.76c-.95.59-1.93,1.15-2.85,1.78-9.33,6.38-18.78,12.6-27.95,19.21-11.85,8.54-24.28,16.51-35.02,26.3-16.94,15.43-29.15,34.95-42.26,53.6-.43.61-.46,1.5-.68,2.27.4.24.8.48,1.21.72,10.25-12.81,21.03-25.24,30.63-38.53,11.55-15.99,25.61-28.66,43.05-37.82,13.08-6.87,24.25-16.3,33.87-27.52ZM727.43,1655.33c-.11-.69-.22-1.39-.32-2.08-18.08,2.31-36.12,5.17-54.27,6.72-10.68.91-15.27,6.81-17.74,15.96-1.37,5.06-2.77,10.1-4.16,15.15.53.16,1.05.31,1.58.47.58-1.46,1.22-2.89,1.74-4.37,1.77-5.01,3.46-10.04,5.25-15.04,1.01-2.82,2.56-4.6,6.04-4.88,5.94-.47,11.82-1.73,17.75-2.47,3.83-.48,7.71-.62,12.2-.97v17.38c.48.02.95.04,1.43.06.36-4.69,1.17-9.39.94-14.05-.16-3.3.87-4.21,3.82-4.94,8.63-2.12,17.17-4.61,25.75-6.95ZM1172.36,1707.97c.36-.53.73-1.07,1.09-1.6-3.45-4.63-6.78-9.34-10.42-13.82-.86-1.06-2.69-1.85-4.09-1.87-14.78-.23-29.57-.28-44.36-.36-1,0-2.01.25-3.87.5,4.78,3.48,8.77,6.39,12.75,9.3.2-.22.39-.45.59-.67-1.08-2.09-2.17-4.17-3.48-6.69,4.87.35,9,.93,13.12.87,6.04-.09,10.09,1.98,11.46,8.27.51,2.36,1.64,4.59,2.49,6.88.22-.05.43-.11.65-.16-.77-4.29-1.54-8.57-2.27-12.61,12.19-3.17,21.02.34,26.32,11.95ZM1214.46,1773.94c.2-.16.39-.31.59-.47-4.11-2.71-8.08-5.67-12.37-8.07-12.61-7.05-25.08-14.45-38.15-20.56-8.13-3.81-17.19-5.69-25.93-8.09-2.4-.66-5.14-.1-7.73-.1,1.13,1.44,2.21,1.8,3.32,1.96,10.8,1.57,20.84,5.24,30.52,10.26,16.48,8.55,33.15,16.73,49.75,25.07ZM1060.5,1685.9c-.69.08-1.38.17-2.07.25.19,4.14-.53,8.59.75,12.36,3.53,10.4,7.89,20.51,11.92,30.73.46-.14.93-.27,1.39-.41-3.99-14.31-7.99-28.62-11.99-42.93ZM771.64,1657.21c-.28.38-.55.76-.83,1.15,4.37,3.49,9.73,6.27,12.83,10.65,3.09,4.36,3.91,10.33,5.73,15.59.45-.07.9-.14,1.35-.21.18-3.77.22-7.54.56-11.29.41-4.64-1.62-7.57-5.74-9.42-4.66-2.09-9.27-4.31-13.9-6.47ZM826.14,1672.9c4.72,11.39,9.04,21.79,13.35,32.19.4-.18.8-.36,1.21-.54-3.71-10.72-3.99-22.93-14.56-31.65ZM806.69,1707.01c4.48-11.18,5.72-21.52-2.25-29.46.67,8.76,1.44,18.9,2.25,29.46ZM1005.29,1728.27c.84-.35,1.69-.7,2.53-1.05-.87-4.28-.4-9.71-2.89-12.61-5.68-6.64-12.8-12.05-19.34-17.96-.39.39-.78.79-1.17,1.18,8.82,8.81,21.74,14.67,20.87,30.44ZM844.64,1716.36c0-.72-.01-1.44-.02-2.15h-51.19c0,.11,0,.21-.01.32,17.07.61,34.15,1.22,51.22,1.84ZM855.65,1675.45c-.67.11-1.34.23-2,.34,2.58,12.23,5.16,24.46,7.75,36.69.63-.13,1.26-.27,1.89-.4-2.54-12.21-5.09-24.42-7.63-36.63ZM954.76,1722.89c.39-9.88-6.77-15.64-12.56-22.21-.38.23-.77.47-1.15.7,4.57,7.17,9.14,14.34,13.71,21.51Z"/>
        <path d="M1006.88,721.68c8.62-1.01,16.8-1.96,25.43-2.97,3.63,11.12,7.26,22.13,10.82,33.17,2.09,6.48,3.62,13.17,6.19,19.44,5.55,13.53,5.99,27.79,6.92,42.02.15,2.24.68,4.45,1.61,6.57.39-8.04.79-16.08,1.22-24.84,8.13,13.88,16.13,26.86,23.38,40.24,3.29,6.07,8.26,8.37,14.32,9.22,19.76,2.79,39.56,5.29,59.31,8.17,1.85.27,4.37,2,4.99,3.65,10.37,27.66,16.02,56.56,22.13,85.34.61,2.86-.97,3.71-3.16,4.64-18.22,7.72-36.42,15.48-54.54,23.41-1.39.61-2.17,2.61-3.23,3.96,1.72,1.01,3.41,2.77,5.17,2.84,2.55.11,5.25-.73,7.71-1.64,18.07-6.71,36.09-13.54,55.28-20.76,2.36,9.65,5.96,18.81,6.63,28.18,1.89,26.39,2.58,52.86,3.75,79.58-21.04,7.53-42.41,12.4-62.43,21.26,20.81-3.19,40.1-11.71,61.29-16.99-1.4,6.44-2.7,12.35-3.98,18.26-2.63,12.18-6.46,24.27-7.53,36.59-1.05,12.08-5.67,22.34-10.93,32.69-.9,1.78-1.83,3.55-2.69,5.35-3.79,7.94-6.26,15.58-4.61,25.09,4.22,24.25,2.48,48.79,1.01,73.25-.37,6.15-.57,12.31-.63,18.47-.1,12.09,1.21,24.35-4.9,35.7,7.43-9.46,14.38-18.65,15.98-31.41,2.25-17.94,6.4-35.64,9.42-53.49.46-2.71-.21-5.97-1.36-8.52-5.66-12.59-11.58-25.07-17.6-37.49-1.52-3.14-1.56-5.52.25-8.72,6.27-11.15,12.82-22.25,17.83-33.99,4-9.4,6.01-19.66,8.73-29.59,6.38-23.24,12.92-46.44,18.8-69.81,1.64-6.5,1.25-13.52,1.72-20.31.07-.97.07-2.18-.42-2.93-5.97-8.88-5.94-19.18-7.14-29.21-1.32-11.07-2.56-22.15-4.35-33.15-.65-4,1.13-6.48,2.96-9.43,10.17-16.41,20.2-32.9,30.29-49.36.26-.42.57-.79,1.28-1.75,4.93,9.47,9.4,18.79,14.52,27.75,9.41,16.47,11.45,34.9,14.65,53.02.26,1.48-1.15,3.66-2.38,4.93-5.01,5.21-10.25,10.19-15.41,15.25.4.52.79,1.05,1.19,1.57,5.53-3.91,11.06-7.81,17.04-12.04,2.18,4.18,4.24,8.43,6.55,12.53,5.07,8.98,10.41,17.82,15.33,26.89,1.27,2.34,1.96,5.31,1.93,7.98-.1,12.16-.55,24.32-.86,36.47-.04,1.41,0,2.82,0,4.22.61.17,1.23.35,1.84.52,4.69-12.06,9.37-24.13,14.13-36.36,16.79,8.8,34.02,17.78,51.17,26.9,1.3.69,2.6,2.22,2.99,3.62,4.37,15.34,9.71,30.53,12.39,46.17,1.85,10.8.02,22.24-.33,33.39-.17,5.3-.75,10.59-.43,16.02,2.07-10.23,4.21-20.45,6.16-30.7.9-4.74,1.54-9.53,2.07-14.32.33-3,1.76-4.7,4.72-4.69,7.79.02,15.57.1,23.35.39,3.3.12,6.58.82,10.52,1.35,1.42-4.14,3.32-8.23,4.21-12.52,3.5-16.92,6.97-33.85,9.78-50.89.75-4.56-.57-9.56-1.43-14.27-.62-3.4-.21-5.85,2.45-8.4,9.97-9.58,19.68-19.42,30.02-29.69,6.94,6.45,13.97,12.95,20.96,19.49,3.53,3.3,6.74,6.99,10.51,9.98,14.91,11.83,23.8,28.02,32.54,44.34.72,1.34,1.2,3.25.84,4.65-4.45,17.2-8.74,34.45-13.88,51.45-1.42,4.71-5.26,8.8-8.49,12.78-.93,1.14-3.6,1.34-5.43,1.22-16.29-1.04-32.56-2.25-48.84-3.39-1.4-.1-2.81-.01-4.21-.01-.05.51-.09,1.02-.14,1.53,5.34.64,10.67,1.41,16.03,1.9,11.94,1.08,23.91,1.82,35.82,3.12,5.28.57,8.6-.79,12.12-5.15,7.08-8.75,10.3-18.83,12.95-29.36,2.63-10.47,5.37-20.92,8.19-31.89.84,1.11,1.62,2.03,2.27,3.03,3.97,6.16,7.49,12.65,11.93,18.43,9.45,12.31,13.5,26.59,15.95,41.46,1.7,10.33,3.36,20.73,3.93,31.17.91,16.72-2.24,33.13-6.04,49.32-.57,2.42-3.83,5.19-6.4,5.98-6.31,1.93-12.9,3.16-19.47,3.96-3.71.45-6.05,1.27-7.36,5.13-5.99,17.62-12.19,35.16-18.45,52.69-1,2.79-.42,4.41,1.76,6.38,14.83,13.4,29.65,26.83,44.14,40.59,3.65,3.47,6.2,8.13,9.08,12.37,1.57,2.31,2.77,4.88,4.52,7.13-2.24-8.72-5.3-17.07-11.72-23.65-12.91-13.23-25.99-26.29-38.87-39.55-.96-.98-1.55-3.21-1.14-4.49,5.01-15.67,10.15-31.29,15.54-46.83.54-1.57,2.74-3.14,4.47-3.61,4.96-1.34,10.06-2.19,15.14-3.08,7.85-1.37,12.24-6.14,13.99-13.71.62-2.7,1.47-5.34,2.92-7.86-1.05,12.23-1.44,24.56-3.3,36.66-3.99,25.98-2.88,51.69,1.66,77.45,1.96,11.13,3.3,22.38,4.49,33.63.65,6.13,3.17,11.04,7.09,15.58,7.63,8.83,14.96,17.85,18.94,29.12,2.04,5.77,1.82,11.14-.26,16.94-7.46,20.82-14.62,41.76-21.73,62.7-1.95,5.74-3.33,11.66-5.42,17.52,1.76-10.74-2.65-19.87-6.81-29.15-10.34-23.07-20.64-46.16-30.61-69.39-2.66-6.2-8.18-6.59-13.21-8.18-.91-.29-2.66,1.08-3.6,2.08-11.82,12.67-23.73,25.26-35.15,38.28-1.76,2.01-1.97,6.17-1.57,9.16,1.68,12.51,3.91,24.95,5.83,37.43,1.01,6.56,2.29,13.14,2.58,19.75.23,5.17,2.49,8.41,6.14,11.75,18.06,16.54,35.86,33.35,53.96,50.26-8.01,23.26-17.49,45.87-31.05,66.59-8.57,13.1-17.69,25.85-25.71,39.27-15.42,25.81-35.54,47.81-55.52,69.92-18.43,20.39-37.09,40.59-56.27,60.26-6.66,6.84-8.83,14.54-9.36,23.28-.21,3.46-1.38,5.71-4.3,7.76-9.29,6.54-14.2,15.43-15.99,26.97-1.71,11.07-5.67,21.8-8.83,32.62-.34,1.16-1.79,2.41-3,2.86-21.82,8.08-40.61,20.48-55.6,38.41-.06.07-.29-.01-1.13-.07.81-54.96-15.61-107.42-24.62-161.22,1.59-.52,2.77-.91,4.38-1.43-.77-1.88-1.05-3.91-2.2-5.11-6.43-6.7-3.47-11.66.92-18.63,12.91-20.53,24.47-41.91,36.45-63.03,9.52-16.79,18.92-33.65,28.21-50.57,1.12-2.05,1.65-4.68,1.67-7.05.19-36.83-.08-73.66.5-110.49.23-14.75,1.19-29.67,3.92-44.12,1.56-8.28,6.43-16.4,11.4-23.47,10.91-15.49,14.87-33.65,21.34-50.85.16-.42.02-.95.02-1.39-20.49-5.12-34.79-19.96-50.87-31.81-17.69-13.03-34.89-26.71-52.83-40.5-7.04,6.48-14.64,12.93-21.62,19.98-21.44,21.68-42.84,43.4-63.85,65.49-10.62,11.17-15.59,25.81-21.92,39.54-8.64,18.75-13.52,38.55-16.19,58.95-.17,1.29-.6,2.54-.99,4.12-9.73-2.96-19.16-6.02-28.72-8.67-6.56-1.82-13.28-3.02-19.92-4.56-3.94-.91-7.11.22-9.92,3.1-13.72,14.07-27.63,27.97-41.15,42.23-2.72,2.87-4.58,6.88-5.91,10.69-2.6,7.49-4.54,15.2-7.8,22.77-.43-3.94-.71-7.9-1.3-11.82-1.98-12.97-4.24-25.89-6.04-38.89-1-7.22-1.94-14.55-1.76-21.8.54-20.97,1.33-41.96,2.67-62.89,1.21-18.89,3.27-37.73,5.02-57.29,9.7-.9,20.16-1.87,30.62-2.85.09-.45.18-.9.27-1.35-9.76-2.63-19.51-5.26-29.44-7.94-1.03-11.44-2.12-23.48-3.31-36.6,11.13,9.56,24.32,15.5,30.59,29.39,5.12,11.36,11.75,22.04,16.82,33.42,3.28,7.37,5.16,15.4,7.29,23.24,2.38,8.74,4.35,17.59,6.18,25.13,2.22-7.05-.34-15.5-1.43-23.95-.68-5.27-1.27-10.68-2.98-15.66-2.35-6.83-5.57-13.38-8.69-19.92-3.44-7.2-7.77-14.03-10.66-21.44-3.97-10.15-10.67-17.55-19.89-22.85-5.62-3.23-11.35-6.29-17.22-9.02-2.49-1.16-5.47-1.26-9.32-2.08-2.4-18.6-5.96-38.13-7.09-57.79-.69-12.09,2.07-24.42,3.75-36.58,2.6-18.77,5.07-37.58,8.63-56.17,2.43-12.7,6.75-25.02,9.97-37.57,11.22-43.79,22.27-87.62,33.5-131.4,3.1-12.09,1.01-24.11,0-36.13-2.01-24.04-5.31-48.01-6.32-72.08-1.88-44.95-12.21-87.74-29.22-129.19-6.37-15.53-11.86-31.41-17.73-47.14-.63-1.68-1.08-3.43-1.76-5.61ZM1247.62,1025.12c-.2.3-.4.6-.6.9,1.41,3.67,2.86,7.32,4.21,11.01,3.47,9.47,5.93,19.25,12.16,27.66,16.43,22.19,32.58,44.59,48.46,67.17,5.39,7.66,9.67,16.11,15.17,25.41-19.49,9.34-37.93,18.17-56.78,27.2,1.69,0,3.78.61,5.25-.09,16.95-8.08,33.82-16.32,50.63-24.68,1.02-.51,2.19-2.78,1.84-3.65-3.89-9.7-6.84-20.07-12.4-28.75-12.63-19.72-26.13-38.93-40.17-57.67-7.91-10.55-16.35-20.48-19.26-33.78-.35-1.59-1.03-3.29-2.07-4.5-1.95-2.25-4.27-4.18-6.43-6.25ZM1134.62,1320.68c8.84,17.45,17.61,34.76,27.02,53.32-.52-2.44-.67-3.56-.99-4.63-3.88-12.85-7.68-25.73-11.73-38.53-3.26-10.32-3.4-10.28-14.29-10.15Z"/>
        <path d="M644.05,337.14c20.14-23.94,40.38-47.8,60.35-71.88,7.6-9.15,16.25-14.85,28.64-16.51,25.34-3.4,50.46-8.41,75.68-12.72,1.13-.19,2.32-.02,4.17-.02,2.49,8.69,5.14,17.56,7.57,26.48,6.64,24.35,13.59,48.64,19.55,73.16,1.84,7.59,1,15.85,1.2,23.81.14,5.66-.14,11.33.03,16.99.06,1.93.88,3.83,1.65,6.94,2.03-2.58,3.1-3.94,4.7-5.98,6.34,5.3,12.79,10.23,18.7,15.74,7.55,7.05,14.62,14.6,21.97,21.87,7.17,7.09,12.42,15.4,17.5,24.11,3.42,5.86,9.71,10.23,15.24,14.61,3.44,2.73,5.37,5.81,7.06,9.78,7.39,17.38,13.01,35.68,25.25,50.67,1.42,1.74,2.36,3.86,3.95,6.5-15.81-1.44-30.69-2.8-46.96-4.29,0-9.94-.29-19.7.1-29.44.26-6.42-1.49-11.71-5.82-16.37-2.94-3.17-6-6.34-8.35-9.94-4.88-7.49-12.1-10.42-20.43-11.81-3.02-.5-4.75.28-6.54,2.87-9.09,13.13-14.66,27.94-20.75,42.5-.62,1.47-1.3,2.92-2.39,5.36-10.6-11.32-20.68-22.09-31.21-33.33,7.67-6.9,11.16-17.71,13.97-28.9-6.33,10.46-12.65,20.93-19.29,31.9,7.02,8.32,14.18,17.52,22.12,25.99,5.81,6.2,8.57,12.34,5.64,20.83-3.05,8.82-5.34,17.9-8.07,27.25.49-.13,1.94-.15,2.88-.85,4.99-3.71,9.32-7.82,11.01-14.29,1.8-6.9,4.23-13.65,6.73-20.33.55-1.48,2.6-3.44,3.93-3.42,14.14.21,28.27.78,42.92,1.27.53,6,1.2,11.75,1.42,17.52.04,1.08-1.52,2.8-2.71,3.26-35.49,13.57-69.84,29.46-102.65,48.74-7.17,4.21-15.97,5.54-23.77,8.79-25.93,10.82-51.76,21.87-77.59,32.91-8.23,3.52-16.36,7.3-25.09,11.2-2.4-12.63-4.69-24.69-6.97-36.75-7.52-39.67-15.01-79.34-22.55-119-3.44-18.11-7.63-36.11-10.13-54.35-1.02-7.44,1.09-15.44,2.53-23.05,2.6-13.69,5.61-27.31,8.81-40.88,1.25-5.3,3.45-10.36,5.23-15.54.25-.47.51-.94.76-1.41Z"/>
        <path d="M659.69,745.63c-13.54-2.43-26.24-4.78-38.96-6.99-8.36-1.45-16.76-2.63-25.12-4.12-1.51-.27-3.2-1.12-4.22-2.24-5.14-5.67-10.09-11.51-15.44-17.67,8.84-12.37,16.33-26.21,29.91-34.63,24.17-14.99,48.57-29.62,72.83-44.45,3.35-2.05,5.76-2.21,9.07.83,4.99,4.59,10.67,8.52,16.47,12.08,3.1,1.91,3.57,3.69,2.63,6.82-3.4,11.29-6.65,22.63-9.95,33.96-.27.92-.46,1.86.11,3.17,6.83-11.12,13.79-22.15,20.37-33.41,1.31-2.24,2.18-3.61,5-3.67,34.46-.78,68.91-2.32,103.39-.03,15.94,1.06,31.97.9,47.95,1.28,1.82.04,3.63,0,6.33,0,0,2.97-.03,5.57,0,8.16.34,22.15.98,44.31.87,66.46-.03,6.44-2.21,12.87-3.48,19.75-12.82-2.2-24.39-4.19-35.96-6.18-.05.2-.1.39-.15.59,9.45,3.01,18.84,6.26,28.39,8.92,4.54,1.26,5.87,2.82,4.93,7.86-1.51,8.13-1.91,16.5-2.25,24.8-.15,3.77-1.49,5.77-4.92,6.95-5.71,1.95-11.34,4.12-16.8,6.96,6.95-1.49,14.03-2.57,20.78-4.7,2.44-.77,4.7-3.77,5.96-6.29,5.75-11.6,11.13-23.38,16.62-35.11.48-1.02.85-2.1,1.3-3.23,17.57,25.74,35,51.27,52.42,76.79.28.41.46.92.82,1.25,6.35,5.9,6.47,13.38,5.28,21.96-6.25-1.55-12.46-3.05-18.66-4.64-42.02-10.74-84.04-21.45-126.02-32.35-2.69-.7-5.49-2.4-7.42-4.42-11.73-12.29-23.2-24.83-34.85-37.2-1.23-1.31-3.07-2.06-4.62-3.07-.4.46-.81.91-1.21,1.37,9.01,15.38,18.02,30.75,27.05,46.17-5.04,4.77-9.09,8.49-16.49,5.9-5.51-1.92-11.82-2.03-17.77-1.95-2.32.03-4.9,2.46-6.88,4.32-19.68,18.48-39.25,37.06-58.86,55.61-2.54,2.4-5.43,4.5-7.65,7.17-4.01,4.81-8.51,5.58-14.51,4.08-15.96-3.99-32.09-7.28-48.09-11.11-1.7-.41-3.71-2.24-4.34-3.89-6.19-15.96-12.07-32.05-18.18-48.04-.95-2.49-.63-4.05,1.11-6.14,18.32-22.03,36.5-44.17,54.67-66.32,2.72-3.32,5.17-6.86,8.54-11.35Z"/>
        <path d="M644.05,337.14c-.25.47-.51.94-.76,1.41-3.04,3.69-6.29,7.23-9.06,11.12-1.8,2.52-3.66,3.32-6.69,2.79-26.02-4.57-52.06-9.02-78.09-13.49-1.15-.2-2.31-.32-3.47-.42-8.52-.73-15.49-3.98-22.11-9.88-41.29-36.8-83.06-73.06-124.45-109.76-11.7-10.38-22.64-21.62-33.97-32.42-2.58-2.46-3.18-4.44-1.23-8.05,26.02-48.16,51.58-96.56,77.85-144.58,4.05-7.41,10.99-13.26,16.68-19.75,2.41-2.75,5.03-5.33,7.6-7.95q5.55-5.66,11.36-.57c.75.66,1.49,1.33,3.35,2.98-21.06,50.45-42.28,101.28-64.03,153.37,7.97,5.37,16.67,12.52,26.45,17.6,37.49,19.45,75.33,38.24,113.05,57.24,12.85,6.47,13.5,6.1,16.9-7.54,2.21-8.83,4.66-17.6,7.2-27.13,49.72,8.32,99.14,16.59,150.35,25.15-6.14,5.86-11.72,10.35-16.28,15.7-18.47,21.66-37.08,43.23-54.67,65.59-6.67,8.48-10.73,19.01-15.97,28.61Z"/>
        <path d="M924.29,452.3c-3.73-4.1-8.42-7.66-11.02-12.38-13.82-25-31.55-46.26-57.1-59.74-7.83-4.13-10.92-8.65-9.98-17.53,2.07-19.47-1.8-38.26-7.67-56.84-6.81-21.55-12.84-43.34-19.28-65-2.36-7.92-2.49-7.52-11-8.32-26.2-2.45-51.73,2.39-77.33,6.65-.97.16-1.94.27-3.29-.26,3.19-2.28,6.33-4.63,9.58-6.83,14.07-9.5,28.1-19.06,42.32-28.33,2.14-1.4,5.36-2.24,7.85-1.85,36.12,5.67,72.2,11.61,108.3,17.46,9.02,1.46,18.03,3.08,27.1,4.16,4.42.52,7.08,2.46,9.3,6.2,11.29,19.02,22.69,37.98,34.3,56.81,1.95,3.17,1.77,5.61.35,8.75-10.47,23.18-20.45,46.59-31.36,69.55-4.79,10.07-6.71,20.32-7.06,31.22-.56,17.31-1.4,34.6-2.14,51.91-.05,1.12-.21,2.24-.32,3.35-.52.34-1.03.68-1.55,1.02Z"/>
        <path d="M1042.94,602.15c-29.46,10.04-57.89,19.73-86.29,29.41-15.9-19.54-32.33-38.23-52.08-54.92-1.07,3-1.9,5.11-2.57,7.27-6.02,19.36-12.09,38.71-17.96,58.13-1.13,3.74-2.68,5.14-6.94,4.96-25.47-1.04-50.96-1.67-76.44-2.45-24.31-.75-48.62-1.43-72.92-2.41-2.91-.12-6.09-1.41-8.57-3.04-6.09-3.98-11.84-8.46-18.42-13.25,12.29-6.38,23.94-12,35.17-18.35,38.81-21.94,80.82-35.7,123.07-48.94,4.68-1.47,9.23-3.79,13.38-6.43,9.27-5.89,18.3-12.17,27.32-18.45,2.77-1.93,5.17-4.38,8.64-7.37,12.11,4.71,25.24,9.82,38.57,15.01,1.81,14.06-1.27,27.51-6.66,40.63.45.21.9.42,1.36.63.91-1.5,1.76-3.05,2.74-4.51,6.45-9.64,10.37-20.11,10.01-31.85-.13-4.24,1.55-6.21,5.76-7,5.69-1.07,11.72-4.86,16.72-3.69,4.78,1.12,8.54,6.98,12.56,10.94,14.71,14.5,29.42,29,43.96,43.67,3.26,3.29,5.83,7.25,9.59,12.01Z"/>
        <path d="M1224.71,201.45c-4.79,11.19-8.91,20.97-13.21,30.67-.63,1.43-1.93,2.67-3.18,3.69-41.54,33.91-83.13,67.75-124.62,101.72-3.7,3.03-7.41,4.29-12.2,4.21-16.32-.27-32.65-.21-48.98-.05-3.56.04-5.72-1.08-7.69-4.08-16.09-24.48-32.19-48.95-48.62-73.2-7.09-10.46-14.96-20.39-22.48-30.57-.37-.51-.71-1.04-1.45-2.13,17.62-2.06,34.71-4.11,51.82-6.05,28.27-3.2,56.55-6.32,84.82-9.47,3.97-.44,7.94-1.16,11.9-1.15,1.87,0,4.2.96,5.53,2.29,9.3,9.31,18.41,18.81,27.54,28.28,5.22,5.42,12.93,6.63,19.57,2.77,23.31-13.52,46.57-27.12,69.87-40.66,3.3-1.92,6.67-3.69,11.37-6.28Z"/>
        <path d="M1052.96,679.01c22.89,3.16,44.28,6.34,65.74,8.94,5.83.7,9.38,3.31,12.96,7.68,19.54,23.81,39.43,47.34,59.09,71.05.8.97,1.16,3.09.67,4.21-10.15,23.31-20.42,46.58-30.84,69.77-.5,1.11-2.79,2.2-4.1,2.05-21.66-2.47-43.3-5.09-64.91-7.88-1.53-.2-3.47-1.76-4.15-3.2-3.48-7.36-6.3-15.05-9.95-22.31-4.02-7.99-7.96-16.21-13.29-23.31-5.96-7.94-7.89-17.11-10.68-26.07-4.34-13.97-8.4-28.02-12.48-42.06-.43-1.48-.56-3.27-.15-4.73,2.81-10.08,5.71-20.15,8.84-30.13.52-1.64,2.32-2.88,3.26-4Z"/>
        <path d="M792.21,881.88c2.35,1.31,3.54,2.05,4.78,2.66,8.52,4.15,17.05,8.28,25.6,12.38,5.91,2.83,11.27,6.22,15.25,11.69,6.66,9.14,13.64,18.04,21.12,27.89-9.31,8.42-18.46,16.7-27.8,25.15-8.52-26.8-23.09-49.11-37.23-71.61-1.14-1.81-3.34-3.2-5.35-4.16-18.32-8.71-36.71-17.28-55.07-25.9-1.04-.49-2.05-1.05-3.72-1.91,6.96-6.21,14.1-11.69,20.11-18.21,5.94-6.45,11.9-7.88,20.18-5.11,9.65,3.22,18.92,6.29,27.17,12.9,18.37,14.7,36.35,29.71,51.54,47.79.57.68,1.36,1.17,2.29,1.46-15.24-22.58-35.26-40.31-57.11-55.96,3.78-4.67,7.09-8.98,10.7-13.03.72-.8,2.69-.98,3.94-.73,33.25,6.62,66.49,13.25,99.7,20.08,12.2,2.51,24.29,5.52,36.41,8.38,2.4.57,4.73,1.46,7.42,2.31-3.68,43.04-18.63,82.93-32.33,124.27-3.62-8.6-7.12-16.21-10.02-24.05-3.05-8.24-7.69-14.96-15.16-19.78-3.9-2.52-7.18-6.04-11.17-8.38-3.17-1.86-6.91-3.24-10.54-3.67-3.35-.4-4.94-1.64-6.88-4.37-3.68-5.19-7.77-10.42-12.73-14.3-16.09-12.59-41.56-23.11-61.1-25.77Z"/>
        <path d="M959.25,836.48c-17.86-31.87-35.08-62.98-52.73-93.83-4.52-7.89-6.89-15.88-7.05-24.93-.37-20.98-1.67-41.95-1.56-62.91.04-8.32,2.73-16.64,4.32-24.94,2.3-12.05,4.68-24.09,7.25-37.29,10.89,13.98,21.81,27.03,31.65,40.84,19.7,27.64,33.66,58.39,46.88,89.48,8.78,20.64,17.8,41.17,26.54,61.82.57,1.35.33,4.07-.62,4.89-18.09,15.71-36.34,31.22-54.68,46.88Z"/>
        <path d="M1336.73,918.88c23.31,30.63,46.48,61.11,69.69,91.57,6.56,8.61,13.27,17.11,19.75,25.78,1.11,1.48,1.86,3.51,2.04,5.36,1.83,18.83.96,37.57-1.88,56.26-.64,4.23-1.83,6.84-6.78,7.28-8.89.8-17.71,2.27-26.56,3.53-4.57.65-5.89-1.82-6.66-5.82-2.49-12.9-5.37-25.72-7.97-38.6-1.36-6.76-4.78-11.65-10.86-15.25-17.66-10.45-35.53-20.3-55.54-25.62-1.58-.42-3.26-1.79-4.16-3.2-8.35-13.03-16.47-26.21-24.81-39.25-1.56-2.44-.72-3.81.94-5.57,17.55-18.71,35.05-37.47,52.81-56.48Z"/>
        <path d="M1060.45,609.76c10.87,7.7,20.69,14.65,30.5,21.6.17-.16.34-.31.51-.47-14.14-14.54-28.29-29.07-42.43-43.61.21-.33.42-.65.64-.98,9.83,3.87,19.71,7.63,29.48,11.63,20.93,8.57,42.03,16.77,62.61,26.13,10.53,4.79,20.35,11.34,30.03,17.78,34.36,22.87,68.53,46.04,102.76,69.11,1.5,1.01,2.9,2.19,4.74,3.6-6.99,12.98-10.13,27.93-22.33,38.54-11.47-13.71-23.01-26.79-33.68-40.54-5.77-7.43-12.89-11.51-21.62-14.05-33.41-9.7-67.28-17.27-101.59-22.95-17.54-2.91-35.03-6.17-53.78-9.49,4.61-18.33,9.19-36.58,14.15-56.31Z"/>
        <path d="M1266.99,793.44c11.15-2.66,21.29-5.15,31.47-7.4,1.27-.28,2.9.46,4.22,1.06,29.79,13.62,59.57,27.27,89.31,41.01,1.74.8,3.4,2.19,4.58,3.7,11.68,14.96,23.14,30.09,34.91,44.97,4.22,5.33,5.87,11.4,7.12,17.83,3.19,16.44,6.57,32.84,8.93,49.97-2.75-2.15-5.56-4.22-8.23-6.46-16.69-14.04-33.53-27.92-49.97-42.26-17.13-14.93-37.45-23.13-58.79-29.56-2.83-.85-5.83-2.64-7.71-4.87-17.49-20.76-34.75-41.7-52.06-62.61-1.15-1.39-2.09-2.95-3.79-5.39Z"/>
        <path d="M1216.49,183.24c-11.09-3.68-21.87-7.33-32.72-10.79-2.01-.64-4.27-.8-6.4-.76-12.98.19-25.97.5-38.95.75-.81.02-1.62-.17-3.45-.37,1.82-57.01,3.64-113.96,5.5-172.06,4.28,3.84,7.62,7.25,11.36,10.14,16.26,12.53,26.38,28.99,32.64,48.37,4.96,15.34,11.61,30.13,16.36,45.53,3.46,11.22,5.14,23,7.43,34.56,2.62,13.21,5.05,26.45,7.55,39.68.3,1.6.45,3.23.69,4.96Z"/>
        <path d="M974.31,293.63c8.19,14.81,16.54,29.53,24.44,44.5,1.69,3.21,2.29,7.29,2.42,11,.6,17.3,1,34.62,1.1,51.93.02,3.65-.92,7.57-2.41,10.92-12.81,28.68-25.84,57.26-38.81,85.87-.34.75-.76,1.47-1.45,2.79-3.37-3.91-6.55-7.62-9.75-11.33-4.02-4.67-7.61-9.81-12.17-13.87-5.44-4.86-6.53-10.71-5.28-17.07,5-25.42,9.48-50.98,15.73-76.09,7.37-29.61,16.38-58.82,24.68-88.2l1.5-.44Z"/>
        <path d="M1453.37,950.05c-.78-22.28-1.56-44.35-2.34-66.56.49.76,1.17,1.55,1.58,2.47,5.33,12,10.85,23.93,15.78,36.09,1.49,3.68,2.07,8.12,1.72,12.09-1.12,12.6-2.76,25.16-4.5,37.69-.32,2.27-1.65,4.7-3.18,6.47-11.48,13.19-23.12,26.23-35.06,39.71-5.82-7.14-11.64-14.32-17.51-21.47-22.61-27.55-45.24-55.08-67.84-82.63-.94-1.14-2.31-2.39-2.42-3.67-1.09-12.54-7.88-22.82-13.07-33.73-.41-.86-.69-1.79-1.52-3.96,2.89,1.03,4.96,1.38,6.59,2.41,21.8,13.74,43.78,27.21,65.21,41.5,14.39,9.6,28.11,20.22,41.88,30.72,4.12,3.14,8.22,3.87,14.71,2.89Z"/>
        <path d="M1555.32,1560.71c-1.73-2-2.99-3.72-4.5-5.17-16.43-15.85-32.96-31.58-49.25-47.56-1.76-1.72-2.86-4.69-3.19-7.22-2.34-17.97-4.23-36.01-6.65-53.97-.68-5.03.11-8.61,3.84-12.41,8.04-8.2,15.42-17.04,23.02-25.66,3.46-3.92,8.95-3,10.92,2.04,7.94,20.27,15.06,40.91,23.95,60.75,6.47,14.44,5.99,29.1,5.47,44-.47,13.3-1.58,26.58-2.49,39.86-.12,1.78-.74,3.54-1.13,5.34Z"/>
        <path d="M1218.08,751.9c9.45,3.85,17.52,7.15,25.61,10.4.53.21,1.31.15,1.87-.07,8.52-3.44,16.71-7.22,21.34-15.99,4.42-8.38,9.21-16.56,13.84-24.82.45-.81.96-1.59,1.99-3.29,2.84,10.81,5.5,20.66,8.01,30.54,2.45,9.66,4.64,19.39,7.15,29.03.94,3.62.07,5.55-3.65,6.58-8.31,2.3-16.49,5.06-24.85,7.16-1.62.41-4.44-.77-5.57-2.14-8.41-10.24-18.26-17.52-32.06-18.69-8.42-.71-16.82-2.15-25.11-3.86-2.96-.61-6.23-2.42-8.22-4.68-18.01-20.51-35.76-41.25-53.6-61.9-2.69-3.12-5.45-6.18-8.79-9.97,19.81,3.49,38.84,6.27,57.55,10.46,6.51,1.46,12.67,5.8,18.23,9.87,14.88,10.87,27.06,24.58,38.61,38.83,1.35,1.67,1.86,4.01,3.17,6.94-12.33,1-22.92-3.78-35.51-4.38Z"/>
        <path d="M1210.6,787.8c8.51,20.09,16.99,38.73,24.21,57.84,2.62,6.95,2.32,15.02,3.21,22.59.53,4.46.88,8.95,1.1,13.44.08,1.58,0,3.5-.82,4.74-11.85,18.05-23.84,36.02-36.45,54.99-3.97-10.09-7.38-18.84-10.87-27.57-7.71-19.3-15.41-38.61-23.23-57.87-1.23-3.03-1.25-5.41.75-8.23,13.95-19.67,27.74-39.45,42.09-59.93Z"/>
        <path d="M419.06,159.53c3.38-5.03,7.14-7.13,12.76-7.4,15.1-.72,30.16-2.3,45.25-3.28,2.3-.15,4.94.58,6.98,1.7,27.65,15.25,55.18,30.73,82.86,45.92,3.69,2.03,4.65,4.17,3.98,8.22-1.62,9.79-2.73,19.67-4.03,29.34-49.12-24.76-98.31-49.56-147.8-74.5Z"/>
        <path d="M423.68,845.1c11.79-9.47,23.49-19.03,35.38-28.37,9.69-7.61,19.63-14.89,29.38-22.41,21.99-16.95,47.68-25.98,73.63-34.47,10.55-3.45,21-7.34,31.72-10.14,3.89-1.02,8.5.27,12.71.94,10.97,1.74,21.9,3.71,32.84,5.59.01.57.03,1.14.04,1.71-10.46,2.2-20.87,4.65-31.39,6.51-5.84,1.03-11.14,2.77-16.03,6.17-7.92,5.51-16.28,10.41-24.04,16.12-16.51,12.15-34.72,20.81-53.96,27.54-29.9,10.46-59.76,21.02-89.64,31.54-.21-.24-.42-.48-.63-.72Z"/>
        <path d="M506.44,4.04c-4.62,29.03-9.09,57.25-13.62,85.45-2.77,17.24-5.73,34.45-8.4,51.7-.41,2.63-1.45,3.26-3.81,3.3-16.65.32-33.29.74-49.94,1.11-.45,0-.91-.19-1.89-.42,6.22-12.13,12.46-24.01,18.44-36.02,15.35-30.85,28.38-62.65,39.24-95.35.58-1.74,2.2-3.76,3.83-4.42,4.9-2,10.04-3.39,16.15-5.35Z"/>
        <path d="M1279.17,968.61c-4.35-13.52-7.8-27.06-13.07-39.86-5.29-12.85-12.39-24.96-19.04-38.06,23.23-6.03,46.12-11.96,70.17-18.2,4.28,9.95,8.21,20.11,13.01,29.83,3.06,6.2,1.6,10.07-2.99,14.82-16.38,16.99-32.27,34.46-48.09,51.47Z"/>
        <path d="M961.29,636.91c26.86-7.5,53.98-15.08,82-22.91-.55,3.29-.86,5.8-1.41,8.27-2.68,12-5.53,23.96-8.07,35.99-.81,3.85-2.38,5.29-6.56,5.54-14.07.85-28.1,2.31-42.62,4.62,1.93.78,3.79,1.9,5.8,2.28,12.9,2.4,25.84,4.62,38.75,6.94,1.6.29,3.17.76,4.83,1.17-1.3,10.64-2.56,20.97-3.84,31.47-7.62,1.74-15.17,3.56-22.77,5.1-1.06.21-3.12-.64-3.49-1.52-11.36-26.78-27.51-50.84-42.62-75.49-.07-.11,0-.31,0-1.45Z"/>
        <path d="M1014.05,1394.81c-21.88-11.1-44.65-22.65-67.48-34.24,17.08-27.07,38.74-51.31,54.04-80.74,3.97,38.8,13.43,76.48,13.44,114.98Z"/>
        <path d="M1305.8,867.29c-18.7,5.11-37.09,10.14-54.66,14.94-6.12-30.48-12.22-60.84-18.46-91.92,2.21.55,4.57.93,6.78,1.73,4.84,1.76,9.65,3.64,14.37,5.69,1.6.69,3.29,1.77,4.3,3.15,15.69,21.52,31.27,43.12,46.86,64.71.28.39.43.89.82,1.7Z"/>
        <path d="M1105.98,214.06c18.08-6.3,35.32-12.32,52.57-18.3,7.38-2.56,14.72-5.29,22.23-7.39,3.12-.87,6.89-1.1,9.94-.2,9.5,2.83,18.8,6.34,28,9.53-27.08,15.21-54.01,30.33-81.33,45.67-9.93-9.27-20.26-18.91-31.41-29.32Z"/>
        <path d="M1003.31,1512.83c-15.02-7.4-29.56-14.57-44.69-22.02,23.52-25.58,40.95-54.9,60.88-82.96-5.36,34.75-10.72,69.49-16.19,104.98Z"/>
        <path d="M874.34,450.04c4.09,3.71,8.31,7.3,12.22,11.19,1.98,1.97,3.15,4.78,5.16,6.71,8.84,8.5,10.9,18.48,6.71,29.67-6.52,0-13.44.15-20.35-.04-6.82-.18-13.62-.71-21.27-1.13,5.28-15.4,10.43-30.43,15.58-45.45.65-.32,1.3-.64,1.95-.95Z"/>
        <path d="M480.36,1161.43c-19.86-15.16-39.59-30.17-59.23-45.29-1.28-.98-2.63-2.73-2.76-4.22-1.79-20.56-3.3-41.14-5.07-61.7-.34-3.97.69-6.27,4.51-8.09,34.95-16.7,69.83-33.57,104.66-50.51,2.72-1.32,4.18-.49,5.98,1.35,12.85,13.06,25.82,26,38.55,39.17,1.1,1.14,1.55,3.9,1.03,5.49-7.67,23.54-15.59,47-23.38,70.5-2.25,6.78-4.09,13.7-6.57,20.4-.81,2.2-2.67,4.6-4.7,5.67-17.51,9.2-35.16,18.12-53.03,27.25Z"/>
        <path d="M292.91,1326.35c2.89-5.16,5.34-10.89,8.96-15.74,8.56-11.48,10.53-24.83,12.43-38.39,2.11-15.14,4.6-30.23,7.07-45.32.24-1.48,1.18-3.25,2.36-4.12,9.52-6.98,19.18-13.76,28.77-20.65,2.77-1.99,3.8.34,5.18,1.87,9.35,10.31,17.1,21.54,21.6,34.94,3.65,10.86,7.9,21.53,12.17,32.16,1.99,4.94,1.81,9.69.24,14.54-6.25,19.36-15.98,36.87-28.54,52.81-.86,1.09-2.86,1.88-4.29,1.81-22.25-1-43.81-5.63-64.87-12.77-.27-.09-.44-.45-1.09-1.14Z"/>
      </g>
    </g>
  </g>
</svg>