<?xml version="1.0" encoding="UTF-8"?>
<svg id="Layer_2" data-name="Layer 2" xmlns="http://www.w3.org/2000/svg" viewBox="0 0 46.01 31.54">
  <defs>
    <style>
      .cls-1 {
        fill: none;
      }
    </style>
  </defs>
  <g id="Layer_1-2" data-name="Layer 1">
    <g>
      <g>
        <path class="cls-1" d="M35.28,7.6c-.23-.17-.53-.33-.79-.45l.05-.39c-.11.07-.4.37-.32.49.44.23.88.66,1.39.68-.02-.13-.22-.26-.33-.33Z"/>
        <path d="M45.95,5.99h-.88l-.05-.42-.59-.02-.52-3.7c-.06-.22-.64-.06-.7-.11-.02-.4-.05-1.12-.56-1.17-.8-.08-1.73.07-2.54,0l-.08.04-.29.92-.34,4.42h-2.54l-.1-.58-1.31-.08s0,0,0,0l-.49.1s0,0,0,0c0,.1-.31.07-.39.07l.15,1.46,1.22.15c-.19-.52-.53-.97-.74-1.48-.02-.04-.15-.27-.02-.23.31.25.64,1.44.88,1.61.14.1.65-.07.86,0v.15s-.53.05-.53.05l-.32.92.02-.93c-.05-.05-1.16-.04-1.37-.17-.16-.1-.13-.58-.2-.76-.03-.02-.34.41-.39.46-.09.1-.57.5-.58.55-.02.07,0,.09.04.14.07.1.8.83.91.9.19.13.31.05.45.17-.13.44-.1,1.2-.29,1.6-.12.25-.77.92-.98,1.21-.07.09-.35.44-.35.51l.3,1.15c.17,1.07.47,2.47.91,3.48.02.04.09.21.13.18l2.13-2.83c.09-.9.11-1.9.07-2.81-.04-.92-.36-2.04-.01-2.89.13-.32.35-.61.45-.94h2.1l.4,4.9.25.71c.41-.04,2.83.11,3.01-.05l.16-1.06c.33-.03.7.15.76-.29l.48-3.52c.12-.17.83.2.57-.46l.06-.07h.85c.08-.4.08-.87,0-1.27ZM34.21,7.26c-.08-.12.21-.42.32-.49l-.05.39c.26.12.56.28.79.45.1.07.3.2.33.33-.51-.02-.95-.45-1.39-.68Z"/>
      </g>
      <g>
        <path class="cls-1" d="M23.11,19.94l.12-3.61,2.8,1.88c-.32.62-.69,1.21-.98,1.84-.12.26-.29.6-.36.86-.01.05-.06.16.03.15.54-1.37,1.32-2.62,2.15-3.83.01-.11-.02-.09-.07-.02-.12.13-.61.89-.72.87l-2.91-1.95-.05,1.34-.05.4v2.02l.05.05Z"/>
        <path d="M30.55,27.12c.97-1.06,2.31-1.76,3.36-2.74l1.42-2.33-.42-1.95-3.19-1.42-4.28,1.21-3.3,4.98,2.97-4.82-.22-1.12c.35-1.01.92-1.97,1.38-2.94l.46-2.2c.09-.01.05.11.04.16-.02.25-.11.53-.13.79v.43c.16-.31.29-.66.42-.99.11-.29.41-1,.45-1.26,0-.03.01-.08-.02-.07-1.22,1.01-2.51,1.92-3.82,2.82l-.16.03c.9-.72,1.86-1.35,2.78-2.05.35-.27.87-.63,1.18-.92.05-.05.11-.08.1-.17l-4.5-2.14-1.88,2.23-.06,2.55c.08,0,.15.01.23.04.72.23,1.91.75,2.62.7.29-.02.57-.14.84-.18.05,0,.17-.05.16.04-.33,0-.9.32-1.19.33-.74,0-2.01-.66-2.72-.66v2.42l.05-.4.05-1.34,2.91,1.95c.11.02.6-.74.72-.87.06-.06.08-.08.07.02-.83,1.21-1.61,2.47-2.15,3.83-.09.01-.04-.1-.03-.15.07-.26.24-.6.36-.86.29-.64.66-1.22.98-1.84l-2.8-1.88-.12,3.61-.05-.05v6.85c.63,0,1.25.07,1.88.22l2.39-.54,2.74-3.06,4.66-3.08-1.95,1.45.71,1.48-.02.08-5.21,2.87c-.19.43-.26.96-.44,1.39-.5,1.17-1.15,1.61-1.32,3.02-.05.39-.19.69.22.89.33.16,1.25,0,1.65,0,1.6-.02,3.21.01,4.81.03.06-.04.06-.08.04-.14-.05-.17-.91-.77-1.04-1.01-1.01-.11-1.67-.9-2.42-1.48-.05-.04-.17-.07-.18-.08-.02-.03-.02-.34,0-.41.01-.08.87-1.11,1-1.25Z"/>
        <path d="M29.12,15.57c.48.32.99.61,1.5.9l3.92.21c-.37-1.09-.78-2.18-.98-3.32l-.74,1.21-.94-.04-.85-.17,1.71.05c.09-.04.75-1.14.77-1.28.02-.15-.3-1.52-.38-1.6l-1.48-.4-1.86,1.56-1.01,2.61c0,.1.25.22.35.29Z"/>
        <path d="M34.33,6.16c.05-.07.11-.13.1-.22l-8.36.02s.02.09.02.1l-.04,1.02,7.39.03c.25-.3.68-.64.9-.95Z"/>
        <path d="M32.68,21.87c-.05-.03-.1-.03-.15,0l-2.39,1.61-2.2,2.66,5.4-2.93c.05-.07-.6-1.3-.66-1.35Z"/>
        <path d="M23.16,12.43l1.71-2.03-1.81-.84v1.13s.02.01.03.03l.07,1.71Z"/>
        <path d="M30.99,11.45c.11-.1.53-.45.55-.57l-.41-1.34-2.69-.82c-.2,0-1.06.87-1.34,1.04-.4.25-.9.39-1.3.6-.03.02-.13.07-.11.11l4.23,2c.06.02-.06-.06,0-.08.13-.05.91-.79,1.08-.94Z"/>
        <path d="M25.5,10.27c.2-.03,1.48-.52,1.67-.63.15-.1.58-.52.74-.68.06-.05.27-.25.26-.31,0,0-2.76-1.19-2.8-1.14-.31.37-1.3,1.96-1.53,2.04l1.46.71c.07.03.14.02.21.01Z"/>
      </g>
      <g>
        <path class="cls-1" d="M10.73,7.61c.23-.17.53-.33.79-.45l-.05-.39c.11.07.4.37.32.49-.44.23-.88.66-1.39.68.02-.13.22-.26.33-.33Z"/>
        <path d="M.06,7.26h.85l.06.07c-.25.66.46.29.57.46l.48,3.52c.06.44.43.26.76.29l.16,1.06c.18.16,2.6,0,3.01.05l.25-.71.4-4.9h2.1c.1.33.32.62.45.94.35.84.03,1.96-.01,2.89-.04.91-.02,1.91.07,2.81l2.13,2.83s.12-.15.13-.18c.44-1.01.74-2.41.91-3.48l.3-1.15c0-.07-.28-.42-.35-.51-.22-.29-.86-.96-.98-1.21-.19-.4-.16-1.16-.29-1.6.14-.12.27-.04.45-.17.11-.07.84-.8.91-.9.03-.05.06-.07.04-.14-.01-.04-.49-.45-.58-.55-.05-.05-.36-.48-.39-.46-.07.17-.03.65-.2.76-.21.13-1.32.12-1.37.17l.02.93-.32-.92-.53-.05v-.15c.21-.06.72.11.86,0,.24-.18.56-1.36.88-1.61.13-.04,0,.19-.02.23-.21.51-.55.96-.74,1.48l1.22-.15.15-1.46c-.08,0-.38.03-.39-.07,0,0,0,0,0,0l-.49-.1s0,0,0,0l-1.31.08-.1.58h-2.54s-.34-4.42-.34-4.42l-.29-.92-.08-.04c-.81.07-1.74-.08-2.54,0-.5.05-.54.77-.56,1.17-.05.05-.64-.11-.7.11l-.52,3.7-.59.02-.05.42H.06c-.08.4-.08.87,0,1.27ZM10.41,7.94c.02-.13.22-.26.33-.33.23-.17.53-.33.79-.45l-.05-.39c.11.07.4.37.32.49-.44.23-.88.66-1.39.68Z"/>
      </g>
      <g>
        <path d="M24.42,5.23l1.32-1.7-1.75-1.71-.81,1.39,1.16,2.02s.06.01.09,0Z"/>
        <polygon points="21.62 5.23 22.82 3.21 21.99 1.82 20.29 3.53 21.62 5.23"/>
        <polygon points="24.2 5.61 21.82 5.61 21.89 5.95 24.13 5.96 24.2 5.61"/>
        <polygon points="22.16 7.29 23.84 7.31 23.88 7.1 22.13 7.11 22.16 7.29"/>
        <path d="M21.48,5.53c-.43-.51-.8-1.07-1.26-1.54v1.49l.24.48h1.1c-.03-.14-.06-.28-.09-.42Z"/>
        <path d="M21.83,7.11h-.76s.82,1.6.82,1.6c-.02-.39.03-.82,0-1.21,0-.13-.03-.26-.06-.4Z"/>
        <path d="M25.77,5.5v-1.52l-1.26,1.58c-.02.13-.04.27-.07.4h1.1s.23-.46.23-.46Z"/>
        <path d="M24.14,7.41c-.03.36-.01.83,0,1.19,0,.04-.02.12.03.11l.81-1.63h-.8c-.02.11-.04.22-.05.32Z"/>
        <polygon points="22.16 9.2 22.21 9.25 23.83 9.25 23.83 7.59 22.16 7.59 22.16 9.2"/>
        <polygon points="27.52 1.72 24.33 1.72 25.94 3.32 27.52 1.72"/>
        <polygon points="26.35 3.29 26.3 3.39 27.82 3.39 29.47 1.72 27.92 1.72 26.35 3.29"/>
        <polygon points="21.66 1.72 18.5 1.72 20.08 3.32 21.66 1.72"/>
        <polygon points="19.72 3.39 18.07 1.72 16.55 1.72 18.2 3.39 19.72 3.39"/>
        <polygon points="24.08 5.33 23.03 3.51 21.95 5.33 24.08 5.33"/>
        <polygon points="18 0 16.55 1.44 18 1.44 18 0"/>
        <polygon points="28.03 0 28.03 1.44 29.47 1.44 28.03 0"/>
        <path d="M20.55,7.12h.29s-.61-1.17-.61-1.17h-.37s.17,1.17.17,1.17h.51Z"/>
        <polygon points="25.2 7.09 26.09 7.08 26.21 5.97 25.77 5.96 25.2 7.09"/>
        <polygon points="21.89 5.95 22.13 7.11 23.88 7.1 24.13 5.96 21.89 5.95"/>
        <path d="M21.57,5.95h-1.1s.6,1.17.6,1.17h.76c-.07-.39-.17-.78-.26-1.17Z"/>
        <path d="M24.44,5.96c-.08.38-.19.76-.25,1.13h.8s.56-1.13.56-1.13h-1.1Z"/>
        <path class="cls-1" d="M22.97,16.14l-2.91,1.95c-.11.02-.6-.74-.72-.87-.06-.06-.08-.08-.07.02.83,1.21,1.61,2.47,2.15,3.83.09.01.04-.1.03-.15-.07-.26-.24-.6-.36-.86-.29-.64-.66-1.22-.98-1.84l2.8-1.88.12,3.61.05-.05v-2.02l-.05-.4-.05-1.34Z"/>
        <path d="M19.16,15.8c-.01-.09.11-.04.16-.04.27.04.55.16.84.18.71.05,1.9-.47,2.62-.7.08-.02.15-.03.23-.04l-.06-2.55-1.88-2.23-4.5,2.14c-.02.09.04.12.1.17.3.3.82.65,1.18.92.91.7,1.87,1.34,2.78,2.05l-.16-.03c-1.3-.9-2.6-1.81-3.82-2.82-.04,0-.03.05-.02.07.05.26.34.96.45,1.26.13.33.26.68.43.99v-.43c-.03-.26-.12-.54-.14-.79,0-.05-.05-.18.04-.16l.46,2.2c.46.97,1.03,1.93,1.38,2.94l-.22,1.12,2.97,4.82-3.3-4.98-4.28-1.21-3.19,1.42-.42,1.95,1.42,2.33c1.05.98,2.39,1.68,3.36,2.74.13.14.98,1.17,1,1.25.01.06.01.37,0,.41-.01.02-.13.04-.18.08-.75.59-1.41,1.37-2.42,1.48-.13.24-.99.84-1.04,1.01-.02.06-.02.1.04.14,1.6-.02,3.21-.05,4.81-.03.4,0,1.32.16,1.65,0,.41-.2.27-.5.22-.89-.17-1.41-.82-1.85-1.32-3.02-.18-.43-.25-.95-.44-1.39l-5.21-2.87-.02-.08.71-1.48-1.95-1.45,4.66,3.07,2.74,3.06,2.39.54c.63-.15,1.26-.22,1.88-.22v-6.85l-.05.05-.12-3.61-2.8,1.88c.32.62.69,1.21.98,1.84.12.26.29.6.36.86.01.05.06.16-.03.15-.54-1.37-1.32-2.62-2.15-3.83-.01-.11.02-.09.07-.02.12.13.61.89.72.87l2.91-1.95.05,1.34.05.4v-2.42c-.71,0-1.98.67-2.72.66-.29,0-.85-.32-1.19-.33Z"/>
        <path d="M17.01,15.58c.1-.07.34-.19.35-.29l-1.01-2.61-1.86-1.56-1.48.4c-.08.08-.4,1.45-.38,1.6.02.14.68,1.24.77,1.28l1.71-.05-.85.17-.94.04-.74-1.21c-.2,1.14-.61,2.23-.98,3.32l3.92-.21c.5-.29,1.02-.57,1.5-.9Z"/>
        <path d="M12.7,7.12h7.34l-.17-1.17h-8.17c-.01.09.05.15.1.22.22.31.65.65.9.95Z"/>
        <path d="M19.87,5.94l.17,1.17s-.15-1.17-.17-1.17Z"/>
        <path d="M13.6,21.88s-.09-.04-.15,0c-.07.04-.71,1.27-.66,1.35l5.4,2.93-2.2-2.66-2.39-1.61Z"/>
        <path d="M22.97,12.43l.07-1.71s.02-.02.03-.03v-1.13l-1.81.84,1.71,2.03Z"/>
        <path d="M16.21,12.48l4.23-2s-.08-.09-.11-.11c-.4-.21-.9-.35-1.3-.6-.27-.17-1.14-1.05-1.34-1.04l-2.69.82-.41,1.34c.01.12.43.47.55.57.17.15.96.89,1.08.94.06.02-.06.1,0,.08Z"/>
        <path d="M20.83,10.27l1.46-.71c-.23-.08-.42-.29-.61-.46-.13-.11-.61-1.22-.92-1.58-.04-.05-2.8,1.14-2.8,1.14-.01.06.21.26.26.31.17.16.59.58.74.68.19.11,1.46.6,1.67.63.07.01.14.02.21-.01Z"/>
      </g>
      <polyline points="26.07 5.96 25.77 5.96 26.07 5.97"/>
    </g>
  </g>
</svg>