<?xml version="1.0" encoding="UTF-8"?>
<svg id="Layer_2" xmlns="http://www.w3.org/2000/svg" viewBox="0 0 171.76 147.44">
  <defs>
    <style>
      .cls-1 {
        fill: none;
      }

      .cls-2 {
        fill: #fff;
      }
    </style>
  </defs>
  <g id="Layer_1-2" data-name="Layer_1">
    <g>
      <g id="Uv80NZ">
        <g>
          <path d="M145.45,114.36c-.08.03-.17.06-.25.09.14-.12.28-.25.42-.37.4-1.29.75-2.6,1.79-3.56l-.03.02c-.05-.16-.07-.35-.16-.49-.76-1.26-1.67-2.33-3.04-3-1.23-.6-2.37-1.39-3.54-2.1-.05.06-.11.12-.16.18,1.65,1.8,3.3,3.6,4.95,5.4-.05.05-.1.09-.15.14-1.63-1.73-3.27-3.46-4.99-5.29-.3,1.64-.52,3.15-.86,4.64-.15.68-.08,1.05.57,1.4.95.51,1.81,1.18,2.71,1.78-.72-.18-1.33-.52-1.93-.88-.62-.37-1.23-.76-1.87-1.16-.54.66-.98,1.25-1.5,1.78-.22.23-.59.31-.77.4.47-.54.99-1.13,1.58-1.79-1.65-.19-1.79-.12-2.25,1.24-.16.48-.4.65-.88.61-.47-.04-.95-.07-1.42-.01-.44.05-.87.21-1.5.37,0-.01-.27-.29-.21-.42.31-.68.04-1.17-.36-1.69-.47-.6-.87-1.25-1.32-1.87-.09-.12-.26-.27-.4-.27-1.38-.02-2.77-.01-4.07-.01,1.05,2.01,2.7,2.7,4.88,1.99.24.94.7,1.79.6,2.57-.12.95.03,1.27.95,1.12.18.4.33.75.49,1.1-.3-.69-.76-.7-1.34-.42-.56.27-1.11.63-1.71.72-.42.06-1-.15-1.33-.45-.41-.36-.56-1-.94-1.41-.51-.55-1.14-1.01-1.71-1.5,0,0,.03.03.03.03-.49-.08-.97-.15-1.62-.26,1.05-.45.52-1.16.44-1.73-.04-.27-.41-.5-.58-.69.1-.32.27-.68.32-1.06.07-.7-.55-.42-.87-.55-.19-.08-.37-.17-.57-.25-1.72-.63-2.92-.04-3.45,1.72-.23.76-.41,1.53-.63,2.3-.04.15-.14.29-.25.4-.34.37-.86.67-1,1.1-.23.71-.67.69-1.33.75.35-.28.59-.47.9-.72-.72-.18-1.32-.3-1.89-.49-.88-.28-1.73-.53-2.4.4-.24.38-.44.38-.75.03-.33-.37-.74-.67-1.11-.99-.39.37-.77.74-1.34,1.28.34-.63.56-1.06.86-1.62-1.43-.07-2.74-.16-4.05-.18-.2,0-.4.29-.52.39-.43-.86-1.25-.25-1.83-.46-.22.6-.4,1.12-.62,1.73-.4-.7,1.06-1.58-.39-2.01,1.7.03,3.42.11,5.13.19.49.02,1.02.07,1.08-.67-1.36-.26-2.69-.52-4.03-.76-.25-.05-.58-.11-.77,0-1.11.63-2.22,1.26-3.26,1.99-.31.21-.39.75-.65,1.28q-.18-1.56-1.57-1.59c.46-.15.79-.25,1.24-.4-1-.07-1.88-.11-2.75-.21-.62-.07-.86.14-.81.78h2c.02.09.03.17.05.26-1.29-.26-2.21.36-3.05,1.11.15-.31.3-.63.47-.96h-1.88c0,.05,0,.1,0,.16.45.03.9.07,1.51.11-1.97.41-3.74-.5-3.59-1.8-1.01,0-2.01.03-3.01-.01-.71-.03-1.01.28-1.09,1.06,1.24-.07,2.43-.14,3.63-.2v.2c-1.59.13-3.18.25-4.64.37.35-.4.72-.82,1.08-1.24-.07-.1-.13-.19-.2-.29h-6.36s.17.13.16.14c-.45.68-.99.72-1.71.21-.22-.16-.56-.17-.84-.25-.35-.7-1.02-.3-1.53-.38-.22-.03-.56.16-.68.35-.09.15.09.45.12.56-.22.25-.51.46-.62.73-.28.67-.73.96-1.43.87,0,0,.04-.03.04-.03-.47.18-.95.52-1.42.52-1.74,0-3.48-.12-5.22-.17-.26,0-.53.13-.99.25.27-.87.57-1.79.86-2.72,1.04-.24,2.07-.57,3.12-.68.75-.08,1.09-.34,1.28-1.04.28-1.04.64-2.05,1-3.15.16.36.27.61.38.87-.49.06-1.29,2.05-1.26,3.22,1.41.06,2.82.13,4.32.2.01-.32.06-.61.03-.89-.19-1.97-.33-3.95-.61-5.9-.15-1.02-.03-1.93.46-2.82.58-1.03,1.17-2.06,1.72-3.1.09-.17.01-.42.01-.69.77-.13.78-.97.96-1.46-.99-1.02-1.88-1.93-2.68-2.76.15-.78.39-1.54.44-2.32.04-.67.3-1.11.82-1.46.45-.61.9-1.22,1.35-1.83-.03-.26,0-.57-.12-.79-.34-.62-.75-1.2-1.14-1.8-.07-.07-.14-.14-.21-.22-.61.06-.45-.4-.45-.71.04-1.8.02-3.6.19-5.38.16-1.76-.64-3.23-1.17-4.79-.21-.61-.43-1.21-.64-1.81l.03.03c-.15-.2-.33-.39-.44-.61-.59-1.14-.58-1.14-1.69-.53-.03.02-.1-.03-.24-.07.44-.32.83-.61,1.27-.94-.39-.64-.76-1.27-1.17-1.95-1.4.5-2.86.75-4.09,1.85,2.79,1.79,4.1,4.59,5.62,7.21-.83.4-1.53.73-2.3,1.1.63,1.12,1.2,2.13,1.77,3.15.59.12.73.54.71,1.08-.03,1.51.34,2.91,1.21,4.25-.46.5-.93,1.01-1.41,1.52-.21.22-.43.43-.64.65-.3.47-.56.96-.9,1.4-.49.64-.66,1.27-.39,2.07.19.55.22,1.16.32,1.74.06.33.11.66.16,1.01.46-.17.81-.29,1.15-.42-.89.8-.84,1.58.29,2.68.35.16.69.32,1.07.5-.4.12-.79.23-1.3.38-.4-.87-.79-1.72-1.25-2.73-1.34,4.89-3.73,9.23-4.56,14.1-.5-.36-2.14-.2-2.6.14-.49.37-1,.79-1.57.93-1.28.33-2.15.97-2.69,2.24-.55,1.28-.02,2.6,1.35,2.97.98.26,1.94.61,2.9.93,0,.14,0,.28,0,.42-.29.06-.61.25-.85.17-.86-.27-1.67-.68-2.53-.92-.63-.18-1.01-.47-1.23-1.11-.17-.49-.48-1.15-.89-1.31-1.13-.44-2.34-.66-3.4-.94.1-.22.29-.48.32-.75.05-.55.02-1.1.02-1.65,0-.45,0-.9,0-1.35-.08-.01-.15-.03-.23-.04-.32.37-.64.74-.94,1.09-.14-.19-.26-.37-.27-.38,1.34-.92,1.54-2.65,2.44-3.62.88,1.05,1.79,2.05,2.59,3.14.93,1.25,2,1.5,3.34.73.42-.24.87-.44,1.31-.67l-.09-.28c-.31-.07-.62-.15-.93-.2-1.33-.2-2.59-.59-3.66-1.45-1.01-.81-2.06-1.59-3.26-2.51-.85,1.62-1.66,3.17-2.47,4.72-2.45-.12-4.91-.44-7.36-.09,0,.11,0,.21,0,.32h.94s.02.09.02.14c-.7.18-1.41.35-2.1.52.3-.37.57-.7.84-1.04-.54-.07-1.08-.15-1.62-.22-.03,0-.07,0-.09.02-.71.7-1.61.41-2.44.48-.73.06-1.47.11-2.21.17-.01-.13-.02-.25-.03-.38,1.32-.06,2.64-.12,3.96-.18v-.13c-2.95-.2-5.89-.4-9.05-.61.33.56.56.96.8,1.36-.3.14-.72.34-1.03.48-.8-4.4-1.59-8.77-2.4-13.23-1.27.87-2.36,1.62-3.57,2.45.71,2.51,1.45,5.13,2.19,7.75l.2-.06c-.13.21-.27.41-.36.55-.75-2.58-1.51-5.18-2.27-7.79.05,2.03.2,4.03.39,6.03.13,1.41.31,2.81.47,4.22l-.1.39c-.09,1.76-.17,3.52-.26,5.33.39,0,.65.03.9,0,1.12-.16,2.26-.6,3.26.36.06.06.22.03.48.06.29-1.8.57-3.56.84-5.23.03.2.08.51.12.82.42.04.79.11,1.16.11,1.25.01,2.49,0,3.74,0,0,0,0,.01,0,.02.63.22,1.29.63,1.76-.26.65.9,1.76.92,2.09.17.2.16.38.38.61.47.27.1.58.11.88.1,1.48-.04,2.96-.17,4.43-.12,1.01.03,2,.33,3.01.44.55.06.9.17,1.07.78.16.57.54,1.26,1.24.96.93-.4,1.52-.07,2.24.44.46.32,1.09.4,1.65.57.22.07.54.03.67.17.84.89,1.97.99,3.07,1.21.21.04.54.27.55.42.04.74.49.86,1.08.87.19,0,.39.11.69.21-1.19.76-2.16.29-2.46-1.08-.95.67-1.7.29-2.45-.38-.73-.65-1.64-.79-2.66-.66.45.5.95.97,1.54,1.13.9.26,1.86.31,2.79.44,0,.06,0,.13,0,.19-.25.07-.5.15-.63.18.26.3.71.59.81.98.38,1.39.72,2.81.94,4.24.22,1.44.29,2.91.45,4.57,1.06-1.56,2.01-2.95,2.96-4.34.07.05.14.1.21.15-1.06,1.6-2.13,3.19-3.19,4.79.02.02.05.03.07.05l2.32-1.9c.07.08.14.16.21.23-1.62.92-2.68,2.28-3.47,3.93-.35.72-.4,1.35-.25,2.12.12.59.15,1.34-.12,1.83-.89,1.65-.95,3.31-.44,5.11-.03,0,4.64,2.9,7.45,2.78,2.98-.13,5.96-.25,8.94-.4.26-.01.65-.17.73-.36.07-.15.15-.26.24-.34.09-.91-1.08-2.83-1.87-4.12-1.05-1.72-2.27-3.29-2.68-5.32-.1-.48-.25-1.03-.57-1.38-.92-1.03-.98-2.21-1.07-3.51-.12-1.78-.41-3.58-1.32-5.2-.17-.29-.22-.75-.12-1.07.78-2.48,1.62-4.94,2.45-7.47.25-.02.52-.1.76-.04,1.36.35,1.97-.4,2.39-1.52.14-.36.42-.67.66-1-.18.44-.35.88-.55,1.39,1.51-.42,1.61-.32,1.34,1.25,4.86.22,9.7.44,14.63.66-.24,1.96-.81,3.77-1.62,5.51-.79,1.7-1.53,3.42-2.29,5.13.07.07.14.14.21.21,1.05-.27,2.11-.5,3.14-.83.57-.18,1.08-.42,1.64,0,.13.1.36.06.63.09-1.02-1.01-1.03-1.01-.76-2.52.29-1.66.6-3.31,1.1-4.93-.2,1.22-.39,2.44-.59,3.66-.06.38-.14.75-.23,1.13-.41,1.77-.35,1.88,1.33,2.62.69.3.89-.1,1.04-.65.85-3.07,1.71-6.13,2.58-9.27,1.24.06,2.51.12,3.97.19-.4-.34-.65-.56-1.11-.96.78.12,1.29.19,1.89.28-.1.25-.18.45-.28.69.3.05.54.1.78.14-1.4,0-2.8.05-4.2-.02-.6-.03-.9.05-1.08.69-.84,3.07-1.74,6.13-2.66,9.36-.87-.09-1.79-.21-2.72-.28-.42-.03-.87-.05-1.28.04-.95.22-1.89.48-2.81.79-.34.12-.72.38-.89.68-.33.58-.7.75-1.3.46-.41-.2-.81-.27-.99.31-.69,2.28-1.38,4.57-2.07,6.86-.03.11-.04.23-.05.35q-.19,1.59,1.21,2.37c.56.32,1.12.65,1.9,1.1-.08.02-.15.04-.22.06,1.07.73,13.68,3.61,19.31,2.97,2.67-.3,5.34-.49,8-.86.03-.35.09-.7.19-1.01,0-.01,0-.02-.01-.03,0,0,0,0,0,0l-.06-.25c-.12-.45-.15-.88-.16-1.29-.09-.09-.16-.21-.21-.37-.33-.98-1.04-1.42-2.05-1.55-.51-.06-1.02-.3-1.5-.51-1.11-.47-2.2-1.02-3.32-1.46-1.23-.48-2.47-.91-2.64-2.5-.02-.19-.21-.36-.28-.55-.26-.68-.74-1.39-.69-2.06.1-1.28-.63-1.95-1.43-2.65-.29-.25-.59-.5-.89-.74-.44-.36-.55-.74-.07-1.07.39-.02.95-.06,1.01-.26.12-.35.05-1.07-.16-1.16-.43-.19-1.01-.14-1.5-.07-.25.04-.46.36-.69.55.9-1.72,1.89-3.36,2.92-4.96.51-.79,1.21-1.48,1.65-2.3.34-.62.73-.71,1.34-.68,2.51.13,5.02.19,7.53.34,1.45.08,2.94-.16,4.23.96.48.42.84.72.91,1.34.03.25.08.49.11.63.64-.11,1.19-.2,1.74-.29,0,.04.01.08.02.12-.52.22-1.04.45-1.56.67.7,1.35,1.56,1.6,2.65.87.48-.32.91-.56,1.55-.36.31.1.74-.17,1.12-.27-1.5.01-2.46-.67-2.76-2.14.16.05.32.12.48.12.15,0,.31-.06.51-.1-.51.84-.38,1.17.53,1.26.53.05,1.08,0,1.62,0,.01-.06.02-.12.04-.18-.26-.15-.52-.3-.78-.45.09-.12.17-.24.26-.36.8.3,1.59.69,2.42.87.37.08.86-.25,1.22-.49.09-.06-.08-.52-.15-.9.64.08,1.38.1,2.07.29,1.19.33,1.17.37,1.48-.78.96.05,1.92.11,3.02.17-.4,2.01.9,3,2.31,4.06.33-1.35.65-2.61.96-3.86.08.02.16.04.24.06-.27,1.08-.57,2.14-.78,3.23-.09.46-.09,1,.08,1.42.58,1.42,1.24,2.81,1.88,4.21.22.47.49.9.84,1.52,1.22-2.74,2.32-5.31,3.51-7.83.42-.89.52-1.66-.08-2.46,0-.01.07-.09.1-.13.01.06.03.13.04.19.42-.05.84-.1,1.26-.15l-.03.03c.61-.29.65-.74.34-1.27-.33-.56-.68-1.11-1.01-1.66ZM33.68,109.52c.72-.7,1.91-.93,2.42-.47-.81.16-1.56.3-2.42.47ZM41.17,112.76c-.24-.74-.89-.48-1.37-.55-.59-.08-1.2-.02-1.8-.02l-.02-.3h3.37c.03.25.08.59.12.94-.11-.02-.28-.02-.3-.07ZM53.41,111.79c-.3-.32-.57-.8-.98-1.03-.34-.19-.9-.24-.86.53,0,.13-.36.29-.67.27.22-.41.45-.81.72-1.3,1.17.13,2.42.88,3.73.15.03.08.06.15.09.23-.73.41-1.46.83-2.02,1.15ZM68.19,127.49c.43-.74.78-1.33,1.18-2.02.25.21.45.38.73.62-.66.48-1.23.9-1.91,1.41ZM121.88,112.05c-.3.52-.39,1.16-.6,1.81-.04-.2-.16-.48-.11-.72.09-.43.33-.82.44-1.24.24-.94,0-1.18-.97-1-.23.04-.46.09-.78.16v-.54c.61.03,1.29-.1,1.77.15.35.18.59.78.25,1.38ZM140.42,116.74c.18-.75.35-1.45.55-2.26-.94-.08-1.78-.16-2.69-.24v2.54s-.06,0-.09,0c-.12-1.05-.23-2.11-.35-3.12.8.16,1.44.38,2.09.41.71.03,1.33.1,1.69.78-1.04.19-.52,1.37-1.21,1.89ZM141.65,122.82h-.08s0-5.49,0-5.49h.08s0,5.49,0,5.49Z"/>
          <path d="M95.93,91.13c-.63-.01-1.28.06-1.89-.05-1.43-.26-2.84-.37-4.31-.19-2.42.3-4.75-.39-7.08-.93-.64-.15-1.08-.04-1.55.3-.11-.16-.23-.32-.34-.48-.75-1.39-.35-2.95-.63-4.42-.26-1.34-.44-2.69-.65-4.04.58.63.9,1.41,1.43,1.99.87.97.87,1.91.32,3,.92-.55.41-1.66.89-2.33-1.35-.56-1.42-1.92-2.09-2.88.56-.3,1.02-.55,1.47-.79,1.03-.33,1.09-.45.5-1.29-.54-.76-1.12-1.49-1.68-2.24-.39-.49-.79-.98-.26-1.62,0,0-.03.04-.03.04.42-.51.84-1.03,1.27-1.54.41-.67.82-1.35,1.23-2.02.27.45.54.91.87,1.46-.39.11-.57.17-.58.17.18.4.33.83.57,1.21.35.55.39,1-.32,1.36,1.29-.51.72.93,1.35,1.15-.48-1.98-.94-3.92-1.4-5.85.08-.05.16-.11.24-.16.24.17.5.32.7.53,1.04,1.06,2.05,2.14,3.09,3.19.19.19.47.35.73.42,1.6.48,3.22.93,4.92,1.42-.47.71-.88,1.39-1.35,2.03-.13.17-.5.35-.66.28-.99-.42-1.63.39-2.42.63-2.31-.11-4.32,1.47-4.74,3.95.47-.75.94-1.5,1.39-2.2.25.13.48.34.73.36,1.92.16,3.79.86,5.79.04,1.7-.7,3.56-1.02,5.35-1.53.18-.05.33-.2.5-.3,1.58-.18,3.16-.36,4.86-.55-.07,1.08-.13,1.91-.18,2.75.04,0,.09,0,.13,0,.09-.96.18-1.92.28-2.91-1.24.06-2.42.06-3.59.18-.51.05-.99.35-1.49.53-.67-.04-1.34-.08-1.75-.11-.34.3-.49.54-.7.61-1.04.33-2.14.51-3.13.94-1.93.82-3.84.34-5.76.11-.2-.02-.51-.36-.51-.54,0-.23.24-.57.45-.65.77-.28,1.57-.47,2.35-.7,1.05-.16,2.09-.31,3.17-.47.31-.44.69-.93,1-1.45.52-.87,1.08-1.54,2.08-.75.11-.06.14-.07.16-.08-.11-.1-.22-.19-.48-.43,1.25-.26,2.37-.51,3.5-.73,2.11-.41,4.22-.85,6.35-1.17,2.49-.37,3.46.02,4.63,2.1.58,1.02,1.1,2.08,1.66,3.12-2.2,1.24-4.33,2.44-6.47,3.64.04.09.07.18.11.26.13.02.29.09.38.04,1.94-1.1,3.86-2.24,5.81-3.32.19-.11.67,0,.81.16.72.88,1.38,1.82,2.11,2.81-.82.18-1.45.32-2.16.48.12.13.16.19.18.19,2.25-.44,1.9-.35,3.03,1.44.52.82,1.08,1.6,1.68,2.48-.21.13-.48.34-.79.49-.5.23-.73.57-.86,1.12-.1.41-.48.76-.73,1.14-.92.62-1.84,1.25-2.76,1.87-.66.38-1.32.74-1.97,1.14-1.21.75-2.86.58-3.96-.44.42-.65.86-1.29,1.24-1.96,1.05-1.85,2.06-3.72,3.09-5.58.22-.4.45-.8.66-1.18-.61-.36-1.05-.62-1.71-1,1.2,1.35,1.13,1.32.3,2.83-1.25,2.27-2.39,4.6-3.57,6.9-.88,1.49-1.75,2.98-2.63,4.46l.21.12c.68-1.13,1.35-2.26,2.07-3.37.14-.22.49-.49.7-.45.66.11,1.3.36,1.96.55v1.33l-1.78,1.35c-.76.29-1.53.58-2.29.87-.39.16-1,.21-1.12.48-.65,1.51-1.18,3.07-1.74,4.61,0,0,.02-.03.02-.03-.71,2.25-1.42,4.49-2.12,6.74-.15.48-.21.99-.4,1.45-.11.27-.4.47-.62.68-.14.13-.42.2-.45.34-.3,1.3-1.17.64-1.97.65.19-.37.32-.62.5-.97-.42-.11-.82-.22-1.31-.35.4-3.6,1.33-6.96,3.5-9.9.58-.79,1.19-1.55,1.71-2.38.96-1.51,1.87-3.05,2.75-4.5.06.49.16,1.2.25,1.92.04,0,.08-.01.13-.02-.25-4.24-.51-8.48-.75-12.5,0,0-.1.24-.24.58-1.3-1.25-2.56-2.47-3.82-3.69-.17-.16-.33-.33-.52-.49-.36-.31-.52-.12-.57.26l.03-.02c-.25.28-.58.52-.74.84-.45.89-1.07,1.17-2.02.84-.38-.13-.8-.13-1.2-.2.55.27,1.14.34,1.69.51.25.08.43.35.65.53l.03-.02c-.21.2-.44.38-.63.6-.4.44-.8.75-1.46.51-.26-.1-.59-.05-.88-.01-1.58.21-3.15.45-4.62.66.12.01.37.04.62.06l.03.14c-.57.19-1.13.38-1.7.57.01.05.02.1.04.15.83-.2,1.66-.37,2.49-.6.44-.12.73-.05.74.43.03.98.32,2.04-.61,2.8-.33.28-.71.5-.93.65.42.09,1.03.23,1.7.38-.25-.21-.47-.4-.7-.59.42-.91,1.04-1.39,2.09-1.31.72.05,1.45-.06,2.18-.09,0-.11-.01-.21-.02-.32-.68.04-1.35.1-2.03.13-1.1.06-1.88-1.02-1.47-2.04.05-.12.19-.26.3-.28,1.02-.16,2.03-.31,3.05-.4.19-.02.4.28.51.36.63-.09,1.24-.17,1.85-.26.04.07.08.15.12.22-.49.41-.97.82-1.46,1.23.04.06.09.11.13.17.31-.22.67-.39.92-.67.67-.74,1.47-.81,2.4-.68.96.13,1.94.19,2.92.2.7,0,.96.31.95.96,0,.44,0,.88,0,1.45h-5.98c0,.09,0,.17,0,.26,1.49,0,2.98-.02,4.47,0,1.8.03,1.8.06,1.63,2.07-2.02-.28-4.03-.57-6.04-.85.33.15.69.33,1.11.52-.05.23-.1.48-.15.73-.09.21-.19.43-.28.64ZM108.53,87.35s0,.06,0,.09c1.79.25,3.58.51,5.37.76-.73-.18-1.17-.93-2.25-.7-.99.21-2.08-.08-3.12-.15ZM84.15,79.29s.09.02.14.03c.05-.52.09-1.04.11-1.31,1.2.21,2.26.4,3.32.58-.77-.33-1.6-.44-2.36-.72-1.24-.45-1.22-.49-1.21.81,0,.2,0,.4,0,.61Z"/>
          <path d="M64.77,72.51c.18-.25.38-.5.54-.77.51-.84.63-.88,1.29-.2,1.16,1.21,2.36,2.4,3.41,3.71,1.33,1.68,2.52,3.47,3.79,5.21.34.46.75.86,1.13,1.29,0,0-.03-.03-.03-.03.56,1.18.7,2.41.39,3.69l-2.5,2.98c-.33.36-.66.73-1.01,1.11-.28-.2-.54-.38-.83-.58-.24.59-.45,1.12-.66,1.65.04.02.09.04.13.05.21-.38.42-.76.81-1.47.4.54.72.97,1.03,1.39,0,0-.01,0-.01,0,.73.65.86,1.24,0,1.96-.42.35-.62.97-.92,1.46-.38,1.04-.76,2.08-1.14,3.11-.05-.11-.1-.22-.16-.36v4.2s.04,0,.06,0c.09-.81.18-1.61.26-2.42.04,0,.07,0,.11,0,.09.3.17.59.26.89-.35-1.87.1-3.63.67-5.38.5-.65.99-1.3,1.61-2.1.51,1.38.86,2.67.51,3.84-.88,2.99-1.96,5.93-3.03,8.87-.47,1.3-1.31,1.62-2.62,1.09-.21-.09-.43-.45-.45-.7-.06-.69-.02-1.39-.2-2.1-.04.43-.1.85-.12,1.28-.02.43,0,.87,0,1.54-1.48-.62-2.79-1.17-4.1-1.72l.04-.29c.51-.15,1.04-.28,1.53-.46.88-.33,1.76-.66,2.6-1.08.19-.1.28-.55.29-.85.04-.79.01-1.58.01-2.36.13-.02.26-.04.39-.06.21.69.42,1.37.62,2.06-.68-2.36-.21-4.59.74-6.77,0-.02.22.05.42.1-.1-.68-.2-1.3-.3-1.97-.55,2.07-1.06,3.99-1.57,5.92-.07,0-.14,0-.21,0-.19-1.32-.37-2.64-.54-3.83.09,2.33.18,4.78.27,7.24-.13.01-.27.02-.4.04l-.78-4.26c-.08.01-.15.02-.23.04.24,1.54.48,3.09.72,4.63-.1.03-.2.05-.3.08-.17-.31-.34-.61-.53-.95-.04.06-.1.11-.09.13.38.93-.04,1.26-.93,1.48-2.43.61-2.47.67-3.09-1.76-.72-2.83-1.47-5.63-1.58-8.6-.07-1.8.13-3.53.32-5.28.18-1.6.46-3.2.82-4.77.15-.65.6-1.23.91-1.83.02-.3.05-.65.07-1,0,0-.03.06-.03.06.34-.85.64-1.72,1.03-2.55.12-.26.47-.41.71-.61.72.11,1.44.22,2.22.35-.07.3-.12.51-.16.71.25-.23.47-.58.37-.76-.41-.72.03-1.19.33-1.81,1.48,6.13,1.18,12.18.08,18.24,1.41-3.73,1.66-14.48,0-19.62-.09.34-.16.63-.25.9-.63,1.88-.65,1.89-2.59,1.99-.53-1.03.15-1.9.4-2.81.11-.41.33-.8.49-1.2,0,0-.03.03-.03.03ZM65.65,82.19c.09,2.06-1.37,3.58-1.89,5.43,1.04-1.81,2.09-3.62,3.11-5.4-.33.31-.7.66-1.16,1.1-.03-.5-.04-.82-.06-1.13ZM62.69,89.68s.05-.05.07-.07c-.16-.13-.3-.33-.48-.37-1.03-.28-.98-1.08-.9-1.87.1-1.05.23-2.09.35-3.13-.08,0-.16-.01-.24-.02-.13,1.65-.25,3.29-.37,4.82.67.28,1.11.47,1.56.65ZM69.21,82.97c.14.38.28.75.33.88.98.19,1.8.36,2.62.52-.49-.26-1.01-.39-1.53-.55-.53-.17-1.27-.04-1.42-.85Z"/>
          <path d="M105.23,46.18c-.19.33-.39.65-.56,1-.15.31-.24.65-.41,1.12-1.55-1.03-3.27-1.62-4.4-3.15-.32-.44-.99-.63-1.5-.94l-.21.25c.55.74,1.1,1.46,1.64,2.21,1.16,1.64,2.33,3.28,3.46,4.94.14.21.17.57.1.82-.2.69-.47,1.37-.61,2.11.32-.54.73-1.05.93-1.63.13-.38.11-.96-.1-1.29-1.2-1.86-2.47-3.67-3.85-5.69.97.59,1.79,1.06,2.58,1.57.98.64,1.97,1.28,2.9,1.99.25.19.3.64.38,1,.13.18.29.34.38.53.04.07-.06.22-.12.32-1.39,2.33-1.66,5.02-2.47,7.54-.33,1.03-.76,2.08-1.39,2.94-.46.63-1.31.97-1.99,1.43-.36.24-.74.45-1.28.57.64-1.44,1.28-2.87,1.92-4.32.08.05.04,0,.02.01-.43.21-.85.43-1.28.65-.12-.46-.32-.91-.35-1.37-.19-3.07-.28-6.15-.53-9.22-.12-1.43-.46-2.86-.81-4.25-.17-.68-.18-1.19.41-1.63.12-.09.14-.29.28-.59-.42.35-.7.58-.98.83-.84.76-.77.81-.2,1.84.31.55.28,1.28.41,1.93-.09.08-.18.16-.26.24-.92-.65-1.85-1.3-2.77-1.95l.03.03c.02-.3.05-.6.05-.66-.4,0-.84.03-1.26-.01-.29-.03-.57-.15-.85-.25-3.34-1.19-2.89-.42-3.71-4.13-.21-.95-.7-1.68-1.13-2.48-.17-.31-.34-.61-.57-1.01,1.77-.2,3.34.41,4.94.79.49.13.97.25,1.46.38.22.15.44.31.66.46-.37.39-.6.63-.84.88.57-.13,1.02-.53,1.49-.55.5-.02,1.08.24,1.18,1.05h-2c2.19.48,2.43.48,2.92.05.31.46.63.91.94,1.36-.1-.51-.29-.97-.44-1.44-.18-.56-.48-.8-1.11-.89-.72-.11-1.39-.55-2.08-.84l-.02.03c.37-.15.85-.21,1.09-.48.55-.64.95-.54,1.41.05.18.23.38.43.57.65.09-.04.17-.08.26-.12-.25-.59-.5-1.18-.77-1.84.38-.4.81-.86,1.24-1.31-.04-.05-.09-.1-.13-.15-.36.28-.72.55-1.23.94-.62-1.64-1.21-3.15-1.74-4.67-.05-.15.19-.55.38-.61.88-.31,1.79-.57,2.7-.81.48-.12,1-.11,1.48-.24,1.16-.3,1.94-.05,2.71.98.29-.34.57-.66.86-.99.07,0,.13.01.2.02-.06.7-.13,1.41-.19,2.11-.21.23-.43.46-.64.69-1,.51-.68,1.43-.68,2.23-.01,3.29,0,6.57,0,9.86.14.06.28.13.43.19.27-.26.63-.47.78-.79.58-1.16,1.02-2.38,1.64-3.52.62-1.13.84-2.31.85-3.56.01-.23.03-.45.04-.68.22.32.52.61.64.96.91,2.65,1.78,5.31,2.69,7.96.12.35.37.65.57.97l-.03-.03c-.63,1.15-1.75,1.52-3.01,2.01v-2.85c-.06,0-.12,0-.18,0v2.64c-.42-.1-.73-.18-1.08-.26-.05.09-.16.26-.26.43-.09-.03-.18-.06-.28-.08.22-.76.44-1.53.65-2.3.11-.46.28-.91.32-1.37.05-.79.01-1.59.01-2.38-.14.66-.18,1.3-.22,1.94-.03.61-.07,1.21-.1,1.82Z"/>
          <path d="M93.54,38.65c-.49-.13-.97-.25-1.46-.38-.82-.31-1.62-.7-2.46-.91-.68-.17-1.32-.77-2.13-.31-.15.08-.64-.14-.74-.33-.37-.76-.65-1.56-.99-2.42-2.09.23-3.93,1.66-5.93,2.74-.29.16-.5.46-.74.69,0,0,.02-.01.02-.01-.1.13-.2.25-.46.57,2.65-.31,5.09-.59,7.53-.88.03.06.07.12.1.18-2.83,3.07-5.66,6.14-8.49,9.21-.06-.03-.12-.05-.17-.08.33-2.75.66-5.5.99-8.25-.08-.04-.17-.07-.25-.11-.31.29-.62.57-.93.86-1.4,1.3-2.79,2.6-4.19,3.89-.6.57-1.31,1.07-1.79,1.74-.91,1.27-1.67,2.64-2.54,3.94-.37.56-.79,1.14-1.33,1.5-.37.25-.99.14-1.51.19.53-2.06,1.01-3.98,1.53-5.99.16.33.3.62.45.92.02-.03.08-.08.07-.09-.73-1.19-.08-2.16.49-3.15.33-.56.6-1.16.98-1.68.19-.26.54-.4.96-.7-.15,1.75-.3,3.4-.46,5.27.17-.51.33-.82.37-1.15.15-1.29.2-2.6.4-3.88.07-.47.35-1.03.72-1.31,1.76-1.34,3.58-2.61,5.38-3.9.22-.15.48-.29.62-.5.93-1.48,2.44-2.19,3.9-2.97,1.65-.87,3.28-1.77,4.94-2.61.71-.36,1.48-.49,2.15-.15-1.07,1.44-2.11,2.84-3.15,4.24.1.07.19.14.29.2.54-.78.99-1.65,1.65-2.33.88-.91,1.89-1.7,2.88-2.5.12-.09.48.01.66.13.29.19.49.53.79.71,2.31,1.39,3.35,3.6,4.17,6.04.46,1.4.19,2.43-1.38,3.25-.11.06-.13.26-.2.4,0,0,.02-.03.02-.03-.24-.03-.49-.06-.73-.09ZM93.1,36.3c.04-.13.08-.26.13-.39-1.28-.48-2.54-1.01-3.85-1.42-.55-.17-.77-.37-.75-.96.04-1.16.01-2.32.01-3.47h-.24c-.06.93-.2,1.86-.16,2.78.05,1.11-.16,1.98-1.35,2.34-.02,0-.02.09-.06.3,2.33-1.37,4.28-.15,6.27.82ZM83.28,34.08c-2.28.67-4.63,1.21-6.73,2.87h2.14c-.41-.2-.63-.31-.86-.43-.03-.09-.05-.18-.08-.26l5.53-2.18ZM76.48,37.24c-.06-.05-.13-.11-.19-.16-1.39,1.67-2.78,3.34-4.17,5.01.06.05.13.1.19.15,1.36-1.59,2.72-3.19,4.07-4.78.05-.06.07-.15.1-.22Z"/>
          <path d="M110.65,92.4c.92-.62,1.84-1.25,2.76-1.87.22-.04.44-.08.75-.14q.54-1.74,2.18-2.2c.41,1.15.41,2.27-.04,3.42-.2.5-.25,1.06-.37,1.59-.22.97-.26,2.04-.71,2.88-.98,1.81-1.24,3.79-1.78,5.7-.73,2.58-1.53,5.15-2.38,7.69-.22.65-.74,1.2-1.18,1.75-.14.17-.51.28-.74.25-1.14-.17-2.27-.38-3.4-.62-.18-.04-.32-.32-.56-.57-.98.56-2.06,1.49-3.31,1.8-1.23.3-2.62-.03-3.96-.09.2-3.7,1.97-6.41,4.86-8.69-.12,1.12-.23,2.11-.34,3.1.06,0,.13.01.19.02.12-1.24.24-2.48.35-3.72v.02c.34.71.77,1.39,1.04,2.13.2.54.19,1.16.27,1.75.1-.6.03-1.18.02-1.77,0-.28,0-.65.17-.81.7-.66,1.46-1.25,2.22-1.88.28.3.47.51.61.66.23-.18.44-.36.73-.6-.98.27-1.2-.28-1.27-.96-.11-1.12-.1-2.25-.3-3.35-.15-.84-.1-1.44.79-1.73.11-.13.32-.26.32-.39-.01-.43-.1-.85-.14-1.07,1.17-.84,2.2-1.57,3.22-2.31ZM110.93,98.31c.4.52,1.01.99.93,1.27-.29,1.07-.14,2.09-.07,3.14.02.26-.28.56-.47.81-.27.35-.59.66-.89.99,1.69-1.23,1.68-1.23,1.43-3.26-.03-.24.08-.51.14-.76.33-1.41.66-2.82.98-4.23-.32.41-.45.85-.57,1.3-.12.45-.22.9-.34,1.42-.39-.23-.69-.41-1.15-.69ZM107.48,106.52v1.46c.46-.55.88-1.05,1.3-1.54-.03-.02-.06-.05-.09-.07-.31.28-.63.56-1.03.93-.08-.36-.13-.57-.18-.77Z"/>
          <path d="M122.18,78.53c-.07.15-.22.32-.19.45.22,1.06-.42,1.43-1.26,1.73-.88.31-1.73.73-2.61,1.05-.29.11-.62.09-.94.12-.13-.43-.26-.87-.39-1.3-.17-.63-.36-1.25-.51-1.88-.22-.93-.1-1.04.83-.88.11.02.23,0,.61,0-.56-.21-.88-.34-1.27-.49,0-1.03.01-2.1,0-3.16,0-.21-.06-.5-.2-.6-1.18-.87-2.38-1.7-3.7-2.41.97.75,1.92,1.54,2.93,2.23.44.3.69.56.66,1.12-.05.89-.03,1.78-.01,2.66,0,.58-.23.65-.77.59-1.35-.16-2.05-.84-2.27-2.2-.19-1.22-.77-2.41-.8-3.62-.04-2.19.21-4.38.35-6.75,1.56.73,2.87,1.34,4.17,1.95.12.06.26.18.3.3.5,1.57.98,3.14,1.52,4.85,2.09.51,2.8,2.29,2.91,3.52-.61-1.43.4-3.21,1.84-5.07-.12-.82-.26-1.86-.41-2.89.95-.25,1.43-.99,1.52-2.03.12-1.46.3-2.91.45-4.36l.39-.1c.31.49.75.95.9,1.49.84,3.05,1.28,6.12.6,9.29-.22,1.01.03,1.97.74,2.82.56.67.96,1.47,1.48,2.28-.51.24-.92.43-1.34.62.01.04.02.08.04.12.42-.05.83-.11,1.42-.18-.13.45-.19.81-.33,1.13-.15.35-.46.65-.55,1.01-.35,1.44-1.33,1.7-2.65,1.65-1.44-.06-2.9.08-4.34.13-.4.01-.8,0-1.45,0,1.75-.89,3.49-1.4,4.7-2.49,1.19-1.08,1.84-2.74,2.72-4.15-.11-.07-.22-.14-.33-.21-.24.39-.5.76-.71,1.16-.68,1.38-1.16,2.93-3.13,3.64.53-1.57.98-2.92,1.44-4.28-.05-.02-.1-.04-.15-.06-.31.78-.63,1.57-.88,2.18v-4.75s-.05,0-.07,0c-.16,1.88-.32,3.76-.5,5.8-.4-.24-.66-.39-.92-.54-.05.02-.09.05-.14.07l.28.46.03-.03Z"/>
          <path d="M122.32,18.68c.06,0,.13,0,.18-.01,1.3-.6,1.73.4,2.26,1.23.88,1.39,1.52,2.82.97,4.51-.08.24-.24.44-.35.64.16,2,.52,4.01.17,6.05-.04.22-.15.45-.28.63-.53.66-1.08,1.31-1.64,1.98-.03-.16-.07-.36-.1-.49-.15.85-.31,1.75-.48,2.69-1.13-.23-.6-1.09-.78-1.54-.03.31-.06.72-.1,1.26-.52-.11-.95-.21-1.48-.33.52-1.37,1-2.65,1.49-3.93.06,0,.12.02.18.03v1.45c.08,0,.16,0,.24,0,.11-2.26.21-4.52.34-6.79.01-.24.19-.46.29-.7.11.03.22.07.34.1v6.51c.06,0,.12,0,.18,0,.11-2.27.22-4.55.32-6.83-.2-.06-.57-.17-.97-.28-.15.05-.41.13-.6.19,0,1.58.27,3.31-.07,4.9-.37,1.73-1.26,3.35-2.03,4.97-.19.4-.82.58-1.44.99.07-.9.08-1.62.19-2.33.08-.52.02-.85-.49-1.16-1.14-.68-2.24-1.44-3.33-2.19-.28-.19-.6-.46-.7-.75-.41-1.29-.71-2.62-1.11-3.92-.3-.98.64-.86.89-1.12-1.66.17-3.45.36-5.3.56-.36-1.42-.7-2.69-1-3.97-.04-.16.03-.42.14-.52,1.09-.99,2.2-1.97,3.33-2.93.18-.15.52-.31.68-.24.18.08.3.41.34.65.22,1.49.4,2.98.57,4.25.52-.44,1.15-.97,1.85-1.55.85,1.29,1.42,2.63,2.94,2.99,0,0-.04-.03-.04-.03.62.37,1.21.8,1.86,1.08.51.23.63.49.54,1.01-.23,1.36-.41,2.73-.62,4.1.48-1.87,1.01-3.77,1-5.68,0-1.9.29-3.88-.75-5.75.99-.02,1.34.52,1.6,1.17.26.63.55,1.24.79,1.87.22.59.4,1.21.59,1.81.08-.03.15-.05.23-.08-.48-1.47-.97-2.93-1.5-4.55,1.03,1.11,1.95,2.1,2.87,3.1.04-.04.08-.07.11-.11-.76-.99-1.51-1.97-2.27-2.96,0,0-.03.02-.03.02Z"/>
          <path d="M122.82,96.3c-.27-.67-.58-1.33-.79-2.01-.09-.31.02-.68.04-1.03,1.09-1.15,2.17-2.29,3.26-3.44.37-.31.74-.61,1.1-.91-1.05-.58-2.02-1.09-2.98-1.65-1.89-1.1-3.77-2.22-5.66-3.31-.41-.24-.61-.46-.47-.98.13-.5.36-.79.88-.82,1.06-.06,2.13-.15,3.19-.16,2.74-.02,5.49,0,8.33,0,.61,2.55.53,5.25-.28,7.93-.11.36-.2.74-.19,1.11.05,3.34.09,6.68.19,10.02.03.97.22,1.93.31,2.89.04.42,0,.85-.1,1.27-.95-1.11-1.81.63-2.55-.02-.11-.91-.22-1.78-.33-2.64-.05,0-.11,0-.16.01v1.47c-.06.02-.12.04-.18.06-.35-.73-.71-1.45-1.04-2.19-.71-1.59-1.41-3.19-2.12-4.77-.13-.29-.33-.54-.5-.81,0,0,.06,0,.06,0ZM128.17,98.43h.22v-4.92s.04,0,.06,0c-.09,1.64-.19,3.28-.28,4.93Z"/>
          <path d="M164.23,104.03c-.94-1.37-1.85-2.76-2.84-4.09-.22-.3-.24-.97-.91-.81-.2-.16-.4-.32-.61-.49-.23-.26-.47-.51-.7-.77.01-.07.03-.14.04-.21,1.06.16,2.13.32,3.23.48.02.38.04.69.05,1,.06.02.11.04.17.06.1-.26.19-.52.33-.89.23.27.45.5.62.75,1,1.49,1.99,2.99,2.96,4.5.18.28.24.63.36.95-.35.09-.7.19-1.06.28-.08.02-.17.02-.26.03,0,.09.02.17.03.26.61-.07,1.22-.14,1.94-.22.7.88-.31,2.11.54,3.29.72.99.61,2.58.87,3.9.26,1.31.51,2.61.77,3.92.11-.02.21-.05.32-.07-.13-.39-.25-.79-.39-1.22.7-.15,1.24-.09,1.61.59.62,1.11.64,2.18,0,3.27-.41.69-.99.88-1.82.54-.25.92-.49,1.79-.72,2.67-.25.93-.53,1.86-.75,2.81-.11.46-.31.64-.8.58-.77-.09-1.54-.13-2.55-.21.41-1.5.82-3.02,1.26-4.63-.2.26-.45.46-.54.72-.24.7-.37,1.43-.63,2.12-.07.19-.43.26-.66.38l-2.36-1.73c-.19-.22-.38-.44-.62-.73,1.53-2,3.04-4.02,4.61-5.99.17-.21.68-.16,1.08-.24-.76-.21-1.27-.63-1.06-1.56.16-.73.21-1.49.33-2.33.02.02-.14-.06-.2-.19-.56-1.3-1.12-2.6-1.64-3.91-.28-.72-.53-1.47.07-2.17-.02-.21-.04-.41-.06-.62ZM169.79,116.26c-.83.95-1.65,1.91-2.09,2.41.23-.68,2.09-.74,2.09-2.41Z"/>
          <path d="M23.51,116.05c-.28,1.29-.56,2.58-.86,3.86-.02.11-.09.22-.17.3-.91.98-3.88,2.4-5.44,2.57-.05-.3-.1-.61-.15-.98-.27.52.05,1.39-.88,1.39-.58,0-1.16-.06-1.79-.1.02-.44.04-.78.06-1.12-.03,0-.07-.01-.1-.02-.1.31-.21.63-.31.94-.08.03-.16.05-.24.08-.86-1.96-1.72-3.92-2.57-5.89-.1,0-.21,0-.31,0,1.71,2.42.38,4.32-.84,6.58-1.23-2.18-2.34-4.14-3.52-6.22,1.27-.86,2.5-1.69,3.82-2.58.12.47.21.85.31,1.23.06.02.13.04.19.06.14-.34.29-.67.42-1.01.18-.47.35-.94.52-1.41.05-.04.1-.08.15-.13.22-.03.44-.06.69-.1.18.63.34,1.18.5,1.74,1.64.36,2.12,1.14,1.72,2.94-.73-.16-1.46-.33-2.25-.5.57.98,2.71-.06,2.27,2.03.21-1.33,1.43-1.61,2.19-2.33.03-.02.26.17.4.27-.09-.02-.19-.05-.28-.07.49-.73.97-1.45,1.59-2.37.16.87.27,1.42.37,1.98-.27-1.56.04-3.02.59-4.49.24-.64.62-1.05,1.04-1.51.52-.56.95-1.21,1.52-1.97.19,1.16.31,2.09.5,3,.24,1.17.53,2.33.79,3.49.02.12.04.23.05.35Z"/>
          <path d="M23.51,116.05c-.02-.12-.04-.23-.05-.35-.31-1.95-.67-3.89-.94-5.84-.4-2.93-1.27-5.79-.79-8.84.47-2.97.63-5.99.93-8.98v.03c1.27,1.28,2.56,2.56,3.84,3.85.83.84,1.67,1.66,2.45,2.54.2.23.33.68.26.97-.25,1-.61,1.96-.92,2.94-.09.28-.12.57-.17.86-.05.09-.1.19-.15.28-.66,2.06-1.31,4.11-1.97,6.17,0,0,.03-.03.03-.03-.24.61-.48,1.22-.72,1.84-.6,1.53-1.21,3.05-1.81,4.58Z"/>
          <path d="M11.8,113.6c-.05.04-.1.08-.15.13-.58.23-1.09.51-.87,1.34-.08-.02-.16-.03-.24-.05-.04-.6-.09-1.2-.14-1.94-.43.22-.82.42-1.21.62.02.05.05.11.07.16.25-.03.51-.06,1.08-.14-.26.49-.35.91-.6,1.08-1.17.78-2.41,1.48-3.59,2.26-.29.19-.47.57-.67.87-.27.41-.52.84-.98,1.22-.16-1.13-.3-2.25-.48-3.38-.14-.9-.36-1.8-.46-2.71-.07-.65-.41-.74-.94-.75-1.65-.05-2.14-.34-2.44-1.38-.42-1.43-.02-3.34,1.03-3.87.59-.3,1.46-.19,2.16-.04.23.05.32.79.48,1.23.03,0,.32-.18.45-.09.84.55,1.36,2.88.86,3.74-.11.19-.31.34-.53.57.8-.19.91.29.96.86.07.82.16,1.64.38,2.45-.04-.54-.08-1.07-.11-1.61-.03-.52-.05-1.04-.07-1.58h6.69c0-.08,0-.16,0-.24h-6.88v-2.1c.49.58.88,1.04,1.43,1.69,0-.38.06-.57,0-.69-.87-1.37-1.76-2.72-2.62-4.09-.04-.06.06-.21.09-.33,0,0-.03.02-.03.02,1.15.49,2.3,1,3.46,1.47.35.14.73.21,1.1.31l.05-.24c-.52-.32-1.03-.64-1.73-1.08,1.9-.47,3.08,1.01,4.64,1-.52-.25-1.05-.5-1.74-.83.33-.16.48-.3.62-.3.97.03,1.94.08,2.91.15.11,0,.2.18.3.28-.2.19-.4.38-.6.58-.34-.05-.67-.1-1.16-.18.76.55,1.38,1.02,2.03,1.47.85.59.57,1.42.43,2.17-.14.77-.83.57-1.37.6-.12,0-.23.03-.24.03-.2.33-.36.58-.52.83-.6-.41-.58.27-.83.47Z"/>
          <path d="M83.8,55.63c-1.45-1.98-2.82-3.87-4.2-5.75-.49-.67-.99-1.33-1.5-1.98-.26-.33-.38-.6-.02-.99,2.82-3,5.61-6.02,8.41-9.03.01-.02.05,0,.29-.05.35,1.14.66,2.33,1.07,3.48.52,1.43.27,2.78-.24,4.14-1.15,3.04-2.3,6.09-3.44,9.13-.11.3-.22.61-.38,1.05Z"/>
          <path d="M64.14,62.95c.23-.11.45-.21.69-.33,1.14.6,1.17,1.72,1.09,2.79-.04.49.25,1.36-.76,1.52.26.02.53.04.82.07.28,1.52-.59,2.65-1.43,3.85.26.03.53.06.85.1-.22.55-.42,1.05-.62,1.56,0,0,.03-.03.03-.03-.66,1.31-1.84,1.56-3.15,1.53-.2,0-.4.09-.69.16.6.58,1.2,1.07,1.7,1.66.21.24.38.8.25.97-.24.32-.7.58-1.1.65-.33.05-.87-.12-1.03-.37-.43-.71-.63-1.48-.27-2.35.33-.81.52-1.69.69-2.56.15-.76.43-1.26,1.32-1.1.18.03.38-.03.57-.24-.45-.03-.89-.06-1.42-.1.3-1.16.55-2.27.87-3.36.18-.61-.04-.89-.59-1.04-.26-.07-.51-.17-.77-.2-1.59-.14-2.26-1.19-2.63-2.66.68-.39,1.38-.79,2.26-1.3-.61-.37-1.05-.65-1.5-.89-1.71-.93-3.36-1.96-4.88-3.18-.05-.05-.1-.1-.14-.15-.39-.37-.16-.63.16-.85,1.61-1.07,3.23-2.12,4.98-3.16-.66,1.93-.32,3.47,1.64,4.46-.33.29-.54.48-.91.8.54-.13.9-.21,1.14-.27,1.03.94,1.99,1.83,3.07,2.82h-3.17c0,.09,0,.19,0,.28h3.36c-.18.4-.3.67-.42.94-.37.94-.76,1.87-1.09,2.83-.06.19.1.45.16.68.23-.48.26-.87.34-1.25.17-.76.38-1.51.57-2.27Z"/>
          <path d="M76.15,72.52c-.52-1.41-1.04-2.82-1.49-4.07.8-.15,1.69-.32,2.79-.53-.3-1.63-.53-3.13-.86-4.61-.08-.37-.44-.68-.67-1.01-1.47-2-2.94-3.99-4.42-5.99.2-.16.42-.48.61-.46,1.49.09,2.98.23,4.47.4.23.03.47.25.64.44,1.88,2.14,3.81,4.24,4.6,7.09.09.31.11.63.17.95-.11.27-.21.55-.32.82-.66,1.7-1.32,3.39-1.98,5.09-.38.76-.77,1.53-1.24,2.47-.16-.5-.25-.77-.34-1.04-.08-.27-.17-.54-.25-.81.12,1.45.71,2.87-.06,4.31-.31-.37-.46-.77-.66-1.15-.33-.64-.68-1.27-1.03-1.9l.03.03Z"/>
          <path d="M120.32,49c.97-.4,1.94-.81,3.13-1.3-.35,1.74-.65,3.27-.96,4.79.09.02.17.03.26.05.46-2.45.92-4.91,1.4-7.47.65-.4,1.21-.18,1.42.7.37,1.57.87,3.14.98,4.73.13,1.91-.12,3.84-.17,5.76-.04,1.51-.57,2.83-1.37,4.08-.84,1.31-2.23,1.21-3.48,1.32-.49.04-.54-.55-.2-.92.3-.32.69-.55,1.03-.84.43-.36.85-.72,1.31-1.12-.55-.67-1.05-1.27-1.58-1.92-.08.04-.35.18-.81.42.06-.67.11-1.14.15-1.62-.03,0-.07-.01-.1-.02-.2.63-.4,1.26-.6,1.9,0,0,.02-.02.02-.02-.31.08-.62.15-.93.23v.03c-.17-1.73-.36-3.46-.54-5.19h.03c-.22-.5-.41-1.02-.67-1.51-.39-.73-.35-1.26.54-1.54.36-.12.68-.33,1.02-.5.03,0,.06-.02.09-.03ZM125.07,50.25c-.45,1.04-.83,1.9-1.21,2.76.06.03.12.05.18.08.33-.63.66-1.26,1.07-2.06.18.52.29.84.41,1.16.06-.02.12-.04.18-.06-.19-.57-.38-1.14-.63-1.88Z"/>
          <path d="M149.68,106.52c-.89.12-1.73.24-2.57.35,0,.02,0,.05,0,.07.82-.05,1.64-.1,2.52-.15v3.27c-2.14.4-1.63.51-2.66-.99-.71-1.02-1.45-1.91-2.63-2.47-1.73-.82-3.36-1.84-5.04-2.78,2.31-3.25,4.95-6.05,8.74-7.35-.65,2.62-1.33,5.36-2.02,8.09.07.02.15.04.22.06.75-2.84,1.49-5.67,2.24-8.51l.35.04c.28,3.44.56,6.87.84,10.37Z"/>
          <path d="M65.52,56.62c.29-.69.58-1.38.87-2.08.57-1.37,1.15-2.75,1.74-4.18.73,1.95,1.51,3.78,2.1,5.67,1.16,3.7,2.23,7.42,3.29,11.15.07.23-.13.71-.33.81-1.11.54-2.26.99-3.51,1.51-.27-1.34-.54-2.66-.81-3.98-.2-.98-.45-1.95-.61-2.94-.05-.34.06-.73.16-1.07.1-.32.29-.61.33-.97-.56.74-1.13,1.49-1.69,2.23-.39.51-.7.43-1.13-.02-1-1.06-.84-2.32-.74-3.59.11-.85.21-1.7.32-2.55Z"/>
          <path d="M109.67,60.78c.01.13.05.45.08.79-2.19.74-4.35.88-6.55.36.92-3.2,1.79-6.31,2.73-9.4.18-.59.44-1.25,1.21-1.6.42,2.32-.3,4.77,1.5,6.67-1.2-2.15-.72-4.5-.99-6.81,1.3-.23,2.56-.45,3.89-.69.09,1.66.19,3.25.27,4.83.08,1.62.06,3.26.21,4.87.09,1.06-.55,1.39-1.33,1.49-.35.04-.75-.37-1.03-.52Z"/>
          <path d="M20.82,133.41c-2.53,0-4.81.02-7.08-.02-.28,0-.63-.28-.82-.53-.81-1.07-1.57-2.19-2.35-3.28l-.2.13c.78,1.15,1.57,2.29,2.38,3.48-.72.09-3.49-2.63-4.13-3.98.2-.11.4-.22.6-.33,1.81-1.03,3.62-2.06,5.53-3.14.11,1.78.21,3.39.32,5.25,0-1.7,0-3.14,0-4.58,0-1.2.48-1.61,1.62-1.31,1,.26,2.01.49,3,.78.24.07.59.31.6.5.2,2.32.35,4.64.52,7.03Z"/>
          <path d="M161.71,121.77l2.36,1.73c.55.55.38,1.16.18,1.85-3.23-2.17-6.42-4.32-9.61-6.47-.09.12-.18.24-.27.36.52.33,1.04.66,1.56.99.6.38,1.19.77,1.8,1.14.58.35,1.16.69,1.86,1.1-1.49,1.87-2.95,3.7-4.45,5.58-.26-.24-.44-.4-.59-.54-.08,1.71-1.66,2.3-2.56,3.68-.45-2.93-.87-5.59-1.29-8.32.65-.08,1.2-.57,1.72.06.07-.31.14-.63.21-.95q1.12-1.01.15-2.08c-.08-.09-.14-.18-.22-.27-.05-.25-.1-.5-.15-.75.57-.83,1.14-1.66,2.17-1.98.17-.02.43-.12.49-.05,1.12,1.4,2.79,2.08,4.12,3.21.77.65,1.68,1.15,2.52,1.71ZM156.01,126.07c.09-.04.17-.08.26-.12-.6-1.17-1.2-2.34-1.8-3.5-.07.03-.14.07-.21.1.58,1.17,1.17,2.34,1.75,3.51Z"/>
          <path d="M122.82,96.3s-.06,0-.06,0c.48,1.2.94,2.41,1.45,3.6.77,1.78,1.57,3.55,2.41,5.42-1.29.26-2.52.53-3.77.72-.18.03-.56-.31-.61-.53-.34-1.55-.57-3.13-.93-4.68-.22-.93-.51-1.86-.93-2.71-.97-1.99-2.05-3.92-3.05-5.9-.11-.22-.61-.63.04-.89l1.42,1.06c.53.69,1.11,1.36,1.58,2.09.5.76.97,1.57.31,2.56.09,0,.18,0,.27.01.22-.76.43-1.52.65-2.27-.05-.02-.1-.05-.15-.07-.11.13-.21.27-.36.45-.52-.87-1.02-1.72-1.54-2.56-.95-1.52-2.01-2.98-2.85-4.55-.55-1.03-.89-2.19-1.17-3.33-.17-.69-.03-1.46-.08-2.19-.04-.59-.07-1.22-.28-1.77-.39-1.01-.9-1.98-1.37-2.99,1.47-.01,1.83.25,2.32,1.52.17.45.44.86.67,1.29.13.43.26.87.39,1.3-.07.4-.13.81-.21,1.28-.24-.11-.42-.19-.48-.22,1.92,3.53,3.43,7.33,5.06,11.07.35.8.85,1.52,1.28,2.28Z"/>
          <path d="M94.57,45.99c.46.46.87.96,1.38,1.36.44.35.5.62.18,1.09-1.13,1.66-2.54,2.99-4.23,4.09-2.09,1.37-4.4,2.11-6.74,2.83-.19.06-.39.06-.73.1,1.47-4.02,2.9-7.93,4.33-11.83.84.4.9.53,1.76,3.15-.09-.66-.18-1.33-.28-2.1,1.53.47,2.95.91,4.37,1.35,0,0-.03-.03-.03-.03Z"/>
          <path d="M19.26,92.42c.39-.74.87-1.45,1.13-2.23.35-1.02,1.29-.84,2.02-1.33v2.17c-.3-.27-.48-.44-.67-.6-.05.03-.09.06-.14.09.35.51.7,1.02,1.05,1.54,0,0,.01-.03.01-.03-.21.73-.42,1.47-.63,2.2-.1-.17-.21-.35-.32-.54.07,1.24.8,2.6-1.1,3.37-.04-.79-.07-1.54-.11-2.28-.13.87.09,1.81-.19,2.58-.3.81-1.09,1.44-1.63,2.18-.09.12-.08.46,0,.53.97.73.75,1.61.38,2.53-.59.93-1.18,1.86-1.78,2.8-.33.43-.66.85-.95,1.22-.34-.29-.57-.5-.81-.71h.02c.11-.27.22-.55.33-.83-.06-.04-.11-.08-.17-.12-.23.33-.57.63-.68,1-.32,1.1-1.05,1.38-2.08,1.22-.28-.04-.57-.05-.9-.08.08-1.89.83-3.49,1.43-5.15.18-.49.19-1.04.28-1.57,0,0-.02.02-.02.02.89-.35,1.8-.67,2.67-1.07.2-.09.26-.48.38-.73l-.03.04c.84-2.09,1.67-4.17,2.51-6.26l-.03.03Z"/>
          <path d="M25.36,128.94c.22-.27.49-.51.66-.8,1.21-2.03,2.42-4.07,3.58-6.13.3-.54.66-.67,1.21-.6,1,.12,2,.21,3,.31.92.09,1.06.35.6,1.19-.61,1.12-1.24,2.22-1.86,3.33-.32.57-.72,1.1-.94,1.71-.91,2.44-3.13,3.53-5.01,4.97-.25.19-.79.03-1.2.03.08.12.2.32.44.69-1.41-.07-2.68-.14-3.96-.21-.03-.08-.07-.15-.1-.23.73-.59,1.46-1.18,2.29-1.84.27.43.48.76.69,1.09.03-.02.07-.05.07-.05-.69-1.12.08-2.01.47-2.96.04-.11.04-.23.05-.35,0-.05,0-.09.01-.14Z"/>
          <path d="M73.24,43.12c1.4-1.3,2.79-2.6,4.19-3.89.23-.12.45-.24.84-.45-.22,1.8-.41,3.42-.61,5.05-.09.7-.19,1.41-.27,2.11-.11.96.03,1.75.72,2.59,1.82,2.21,3.46,4.57,5.19,6.86.47.62.38,1.1-.31,1.44-.58.28-1.18.51-1.72.75-.74-.91-1.46-1.74-2.11-2.61-.21-.28-.31-.67-.4-1.03-.27-1.03-.53-2.06-.77-3.09-.16-.68-.36-1.37-.42-2.07-.05-.61-.27-.79-.87-.79-.94,0-1.89-.16-2.83-.15-1.52.01-1.52-1.38-2.08-2.21-.45-.65.19-1.14.58-1.61.26-.32.57-.6.86-.89Z"/>
          <path d="M151.53,135.48c-.77.03-1.53.04-2.3.1-.82.06-1.53-.18-2.28-.52-2.79-1.23-5.06-3.13-7.23-5.37.53-.47,1.06-.96,1.74-1.56.5,1.14,1.01,2.28,1.51,3.42.07-.03.13-.05.2-.08-.46-1.15-.92-2.3-1.4-3.5.44-.22.93-.48,1.44-.7.14-.06.37-.07.49.01,2.43,1.51,4.85,3.04,7.38,4.63-.77,1.01-1.49,1.95-2.22,2.89.05.04.09.08.14.12.79-.89,1.59-1.78,2.46-2.76.9.74,1.77,1.45,2.7,2.21-.94.4-1.79.76-2.64,1.11h0Z"/>
          <path d="M13.77,100.39c-.11-.1-.31-.18-.33-.3-.31-1.53-.75-3.06-.84-4.61-.08-1.41.22-2.85.41-4.27.03-.22.37-.43.61-.57,1.08-.62,2.18-1.18,3.25-1.82.49-.29.87-.28,1.37,0,1.83,1,1.84.98,1.17,2.93-.07.22-.1.45-.15.68,0,0,.03-.03.03-.03-.84,2.09-1.67,4.17-2.51,6.26,0,0,.03-.04.03-.04-.39.28-.77.6-1.18.84-.61.35-1.25.65-1.87.97,0,0,.02-.02.02-.02Z"/>
          <path d="M154.57,116.89c-1.03.32-1.6,1.15-2.17,1.98-.91.3-1.81.59-2.72.89,0,0,.04.03.04.03-.72-.61-1.44-1.22-2.16-1.82l-.26-.49c-.26-1.28-.65-2.5-1.68-3.4,0,0-.02.04-.02.04.6-1.2,1.2-2.39,1.8-3.59,0,0-.03.02-.03.02.59,0,1.18-.02,1.76-.01.37,0,.74.03,1.11.04l-.03-.03c.36.44.7.9,1.11,1.3.13.13.43.08.65.12.07.05.13.09.2.14.38,1.27.76,2.55,1.07,3.59-.02-.31-.1-.9-.07-1.48.02-.4.2-.8.32-1.19.15-.34.31-.68.46-1.02.17.02.34.05.51.07,0,0-.02-.02-.02-.02.24.84.52,1.68.69,2.53.17.83.22,1.69-.56,2.32ZM149.32,117.04c-1.61-1.49-1.56-3.23-1.22-5.01-.28.79-.57,1.58-.83,2.3.63.77.91,1.8,1.28,2.7h.77ZM148.92,114.17c1.31-.41,2.19.63,3.08,1.75-.36-.64-.69-1.41-1.27-1.68-.59-.28-1.41-.06-1.81-.06Z"/>
          <path d="M109.39,46.62c.06-.59.03-1.21.19-1.77.48-1.73,1.07-3.42,1.53-5.15.25-.93.21-1.81-.17-2.8-1.01-2.67-1.78-5.43-2.53-8.22,1.01,1.48,2.1,2.91,2.98,4.47.32.57.15,1.43.33,2.19.12-.36.23-.73.4-1.25,1.06,1.55,2.05,3.01,3.04,4.47-.63,1.13-1.28,2.28-1.92,3.43l-.96,1.62c.1.06.2.13.3.19.47-.57.93-1.15,1.4-1.72.33-.26.67-.53,1.06-.84.11,2.23-.5,4.21-1.52,6.09-.1.18-.49.29-.74.29-.65,0-1.3-.05-1.94-.13-.49-.06-1.2.12-1.1-.8,0-.02-.26-.06-.39-.09,0,0,.03.03.03.03Z"/>
          <path d="M25.36,128.94s-.01.09-.01.14c-.19.17-.49.3-.55.51-.6,1.92-2.55,2.42-3.67,3.79-.07-.03-.14-.06-.21-.1-.08-1.96-.01-3.95-.27-5.89-.27-2.09,1.27-3.23,1.96-4.8.09,0,.19.02.28.02l1.66,6.27c.09-.02.19-.05.28-.07-.6-2.39-1.2-4.79-1.82-7.24h6.33c-1.39,2.56-2.69,4.96-3.99,7.37Z"/>
          <path d="M108.25,24.12c-1.89-.21-3.28-.9-4.42-2.33-1.64-2.05-3.5-3.92-5.34-5.94.3-.18.56-.33.83-.49,0-.05-.02-.1-.03-.16-.35.09-.69.19-1.19.32.13-1.19,0-2.34.8-3.25.15-.18.63-.26.85-.16,1.62.72,3.4,1.23,4.28,3.02.48.99.95,1.99,1.49,2.95.43.75,1.09,1.39,1.42,2.17.53,1.23.87,2.54,1.31,3.87Z"/>
          <path d="M120.11,46.8c-.33.05-.65.1-1.1.17-.16.97-.88,1.15-1.86.99-.96-.15-1.93-.21-2.99-.32.31-.66.63-1.2.82-1.78.28-.88.8-1.08,1.67-.88.86.2,1.75.23,2.63.36.15.02.29.16.54.3.28-.58.58-1.21.88-1.83h-.28c-.03-.42-.05-.84-.09-1.4-.37.51-.67.93-.98,1.35.13.22.25.44.43.74-1.39.24-2.66.1-3.9-.33-.14-.05-.29-.37-.27-.56.1-1.12.24-2.23.39-3.34.07-.56.42-.7.96-.59,1.3.26,2.61.49,3.93.68.21.03.54-.14.68-.32.39-.5.72-1.05,1.21-1.8.23,2.35.29,4.54,2.18,6.21-.63.14-1.02.23-1.35.3-.57-.79-1.11-1.55-1.65-2.3-.08.06-.16.11-.24.17.3.4.6.8.9,1.19.67.88.64,1.09-.27,1.67-.72.46-1.45.9-2.18,1.35,0-.02-.03-.04-.07-.04Z"/>
          <path d="M155.99,115.13s0-.07,0-.09c-.78-1.01-.11-1.49.68-2,1.14-.73,2.25-1.53,3.37-2.28.16-.11.36-.17.69-.32.03.68.04,1.25.08,1.82.04.56.12,1.12.26,1.67v-3.34c1.57,1.37,2.99,2.6,4.48,3.9-1.43,1.94-2.82,3.84-4.22,5.73-.07-.01-.14-.03-.21-.04-.04-.57-.07-1.13-.11-1.79-.09.43-.17.78-.28,1.29-.31-.5-.54-.88-.77-1.26-.04.01-.07.03-.11.04.04.24.09.47.15.84-.55-.52-.99-.94-1.44-1.35-.86-.94-1.72-1.88-2.58-2.82Z"/>
          <path d="M147.3,117.48l.26.49c.36,1.03.87,1.89,2.16,1.82l-.04-.03c.26.42.51.83.74,1.2.05-.38-.02-.92.16-1.02.59-.33,1.23-.73,1.97-.31.07.09.14.18.22.27q.97,1.08-.15,2.08c-.49.17-.98.37-1.47.52-.47.15-.71.32-.61.93.4,2.42.72,4.84,1.06,7.27.04.29.04.58.07,1.13-2.64-1.65-5.11-3.21-7.71-4.84,2.19-1.47,4.26-2.86,6.53-4.39-1.03-.59-1.91-1.09-2.78-1.59,0,0,.03.02.03.02-.55-.58-1.1-1.16-1.63-1.75-.85-.94-.83-1.26.06-2.01,0,0-.03.03-.03.03.39.06.78.12,1.17.18Z"/>
          <path d="M27.99,103.5c.05-.09.1-.19.15-.28.47-1.2.94-2.39,1.4-3.59.09,0,.17,0,.26-.01.1.57.23,1.14.28,1.72.25,2.71.47,5.42.75,8.13.05.52.33,1.02.51,1.53-.03.13-.07.26-.1.39-2.41,1.78-4.82,3.56-7.45,5.5.8-2.57,1.53-4.91,2.26-7.25,0,0-.03.03-.03.03.42-1.21.87-2.41,1.26-3.63.27-.83.47-1.69.71-2.53Z"/>
          <path d="M97.61,64.17c-3.78-.19-7.13-1.35-10.45-2.16,0-1.61-.04-3.17.02-4.73.02-.59,1.65-1.39,2.21-1.12,1.87.89,3.7,1.82,4.92,3.63.74,1.1,1.67,2.07,2.49,3.11.26.33.46.72.81,1.27Z"/>
          <path d="M4.46,106.84c-.31-.09-.62-.19-1.17-.35,2.2-.82,1.96-2.84,2.7-4.59-.93,1.17-.58,2.79-1.94,3.59,1.07-5.22,2.83-10.04,6.26-14.07-.03.39-.07.85-.11,1.3-.05.64-.11,1.27-.16,1.91,0,.16-.08.36-.01.47.59.96,1.2,1.91,1.8,2.86.23.46.47.92.7,1.38q.44,1.23-.69,2.06c-.45.33-.89.66-1.34,1-.41-2.24-.8-4.43-1.21-6.69-.43.17-.67.26-.96.37-.04-.28-.08-.56-.13-.92-.44,1.44-.85,2.78-1.26,4.12.04.02.07.04.11.06.37-.81.73-1.61,1.1-2.42.07,0,.14.02.21.02-.15,3.27-.3,6.54-.45,9.93-.92-.05-1.76-.1-2.72-.16.21-.85.4-1.61.58-2.36-.04-.02-.09-.03-.13-.05-.16.44-.29.88-.48,1.3-.2.43-.46.84-.7,1.26,0,0,.02-.02.02-.02Z"/>
          <path d="M50.35,62.9c.84.69,1.72,1.35,2.51,2.09.27.25.46.75.43,1.11-.11,1.44-.32,2.87-.48,4.31-.02.14.03.29.08.43.77,2.04,1.54,4.08,2.31,6.11.05.13.17.23.27.37-.42.5-.83.99-1.32,1.57-1.28-1.6-2.61-3.05-3.38-4.91-.86-2.08-1.7-4.21-1.46-6.5.16-1.54.7-3.05,1.07-4.57,0,0-.02-.02-.02-.02Z"/>
          <path d="M158.95,107.14c-2.04.14-4.09.28-6.23.43,0,0-.06.21-.13.44-.11,0-.22.02-.27-.02-.75-.56-1.5-1.13-2.23-1.72-.13-.11-.19-.35-.21-.54-.23-2.83-.45-5.65-.67-8.48,0-.1,0-.21.1-.36.44,1.76,1.95,2.6,3.06,3.78.06.06.12.14.19.18,1.11.72,1.53,1.64,1,2.94.07-.24.14-.47.21-.7.08-.24.16-.49.29-.92,1.73,1.63,3.34,3.15,4.96,4.67-.03.1-.06.2-.09.3Z"/>
          <path d="M22.71,120.98c.35-1.28.64-2.36.95-3.42.05-.15.19-.31.32-.41,2.2-1.65,4.41-3.29,6.61-4.93.09-.06.2-.09.45-.21-.15,1.81-.2,3.51-.45,5.19-.17,1.16-.57,2.29-.92,3.42-.07.23-.35.56-.52.56-2.09-.03-4.18-.12-6.45-.2Z"/>
          <path d="M113.34,62c-.5.34-1.03.65-1.51,1.02-.93.72-1.8.67-2.73-.32,3.05-.71,5.28-2.65,7.6-4.46-.05-.09-.11-.18-.16-.27-1.34.84-2.67,1.67-4.15,2.6-.12-1.9-.24-3.65-.33-5.41-.07-1.33-.07-2.66-.15-3.99-.05-.76.06-1.3,1-1.26.15,0,.31-.14.67-.31,1.17,2.57,2.34,5.1,3.46,7.65.13.29-.05.7-.09,1.12h1.1c-.28.2-.54.38-.8.56-.23.09-.45.17-.68.26-.48.51-.96,1.03-1.45,1.54-.6.42-1.19.83-1.79,1.25Z"/>
          <path d="M163.7,125.58c-1.75,2.6-3.44,5.12-5.18,7.73-1.15-1.75-2.22-3.39-3.26-4.98,1.52-1.86,3.03-3.7,4.59-5.61,1.28.94,2.5,1.85,3.86,2.85Z"/>
          <path d="M151.77,131.79c1.65-.48,3.05-.88,4.5-1.3.71,1.06,1.44,2.14,2.2,3.28,1.65-2.34,3.28-4.51,4.75-6.78.88-1.36,1.99-1.83,3.51-1.59.26.04.53.05.95.09-.17.33-.29.62-.45.86-1.27,1.89-2.53,3.78-3.83,5.64-.23.33-.65.63-1.04.73-2.1.54-4.22,1-6.34,1.5-.82.19-1.53.12-2.15-.57-.57-.63-1.25-1.14-2.08-1.87Z"/>
          <path d="M107.78,28.57c.24.69.42,1.15.56,1.61.71,2.38,1.35,4.78,2.13,7.13.54,1.64-.05,3.14-.33,4.68-.17.94-.61,1.83-.92,2.74-.09,0-.19,0-.28,0-.99-2.85-1.97-5.7-3.04-8.78,1.08.61,1.94,1.11,2.81,1.6.04-.06.08-.12.12-.18-.94-.72-1.85-1.5-2.83-2.15-.57-.38-.62-.71-.37-1.31.72-1.68,1.37-3.39,2.16-5.35Z"/>
          <path d="M79.7,70.63c.66-1.7,1.32-3.39,1.98-5.09.11-.27.21-.55.32-.82h3.55c-.36,1.68-1.19,3.11-2.31,4.44.67-.59,1.34-1.17,2.09-1.83.23.37.46.75.83,1.37-1.44-.44-2.3-.07-2.64,1.37,1.26.32,2.56.65,3.99,1.01-.1,1.01-.21,2.07-.34,3.39-1.37-1.51-2.59-2.86-3.9-4.31-.25.51-.49.99-.73,1.47-.41.67-.82,1.35-1.23,2.02-.72.39-1.44.78-2.16,1.17l.05-.02h-.72c.16-.61.27-1.11.42-1.6.26-.86.53-1.72.8-2.58Z"/>
          <path d="M98.36,58.79c-2.66-1.37-5.12-2.64-7.82-4.03,1.34-1.11,2.56-2.15,3.81-3.14,1.24-.99,1.85-2.58,3.14-3.52l.3.16c.19,3.44.38,6.87.58,10.53Z"/>
          <path d="M54.06,65.7c2.87.12,5.6.06,8.36,1.14-.75,2.56-1.5,5.14-2.26,7.71-.09.02-.18.04-.27.07-2.03-2.84-4.37-5.48-5.83-8.92Z"/>
          <path d="M103.08,22.83c1.28.51,2.45,1.05,3.67,1.45,1.57.52,1.85,1.25.88,2.73-.32-.17-.64-.33-1.02-.53.03.12.03.18.06.21q1.05.9.55,2.23c-.6,1.57-1.19,3.15-1.8,4.72-.11.29-.28.57-.42.85-.09.02-.18.03-.27.05-.38-1.24-.82-2.46-1.13-3.72-.41-1.66-.73-3.35-1.06-5.03-.23-1.14-.54-2.32.54-2.97Z"/>
          <path d="M68.58,49.86c.98-1.39,1.88-2.66,2.94-4.16.75,1.68,1.42,3.19,2.17,4.88-.85-.04-1.4-.06-2.01-.09.07.08.1.13.12.13,1.51-.07,2.4.64,2.94,2.04.38.97.98,1.86,1.52,2.85-1.75,0-3.32,0-4.9-.01-.13,0-.32-.16-.38-.29-.76-1.55-1.51-3.11-2.29-4.73h2.11s.01-.07.02-.1c-.69-.16-1.38-.32-2.23-.51Z"/>
          <path d="M125.76,20c.21-.22.37-.51.62-.66,1.24-.74,2.53-1.41,3.75-2.19.34-.22.66-.67.73-1.06.36-1.87.39-3.83,1.43-5.53.08-.12.14-.25.35-.63.13.85.3,1.47.3,2.08,0,1.42.01,2.85-.19,4.25-.15.98.29,1.91.02,2.85-.12.41-.33.86-.64,1.13-.52.45-1.15.77-1.84,1.22-.08-.55-.13-.94-.2-1.41-.42.83-.8,1.59-1.18,2.35.5-.1,1.26-.47,1.37.61-1.18.98-1.56.98-1.82-.11-.59.36-.79.15-1.07-.48-.39-.89-1.09-1.64-1.66-2.45,0,0,.03.03.03.03Z"/>
          <path d="M117.92,23.66c-2.14-2.03-3.73-4.46-5.29-7.09,1.78-.32,3.41-.85,4.95.34.57.35,1.13.69,1.7,1.04.13.29.25.57.39.88-.66-.28-1.21-.52-1.76-.76-.03.07-.06.14-.09.2,1.71.57,2.33,1.43,2.39,3.2.02.52.16,1.04.2,1.56.04.53,0,1.06,0,1.73-.99-.44-1.76-.79-2.53-1.13,0,0,.04.03.04.03Z"/>
          <path d="M13.46,108.21c.2-.19.4-.38.6-.58.5-.57.99-1.15,1.49-1.72,0,0-.02-.01-.02-.01.2.6.39,1.2.59,1.8.3-.97,1.98-2.25,3.99-3-.04.73-.08,1.41-.12,2.08-.38.02-.64-.02-.84.06-.86.36-1.81.63-2.53,1.18-.5.38-.12,1.08.23,1.57.01.02.01.06,0,.09-.49,1.17-.57,2.57-1.89,3.25.04.71.07,1.41.11,2.11.09-.33.06-.66.1-.98.04-.37.04-.79.23-1.07.36-.54.85-.99,1.34-1.55.42.73.87,1.5,1.31,2.28.66,1.16.63,1.33-.51,2.32-.21-.47-.42-.93-.63-1.38.1,1.14.86,2.43-1.01,2.88-.05-.03-.15-.07-.19-.14-.52-1.07-1.4-1.76-2.33-2.46-.38-.29-.75-.95-.41-1.67.28-.59.62-.89,1.29-.79.13.02.31,0,.41-.08.49-.36.6-2.45.16-2.87-.46-.45-.92-.89-1.38-1.33Z"/>
          <path d="M57.29,76.59c.88.4,1.77.77,2.62,1.22.27.14.54.48.61.78.21.83.48,1.69.44,2.52-.06,1.22-.37,2.43-.58,3.64-.03.19-.09.38-.17.72-1.93-2.03-4.29-3.44-5.7-5.8-.09-.15-.19-.44-.11-.54.42-.54.9-1.05,1.39-1.62,1.27,1.53,2.43,2.94,3.59,4.34.07-.06.14-.12.21-.18-1.47-1.8-2.94-3.61-4.56-5.59h.95l1.31.5Z"/>
          <path d="M113.34,62c.6-.42,1.19-.83,1.79-1.25.26.12.59.17.77.36,1.43,1.54,2.74,3.2,4.75,4.04.21.09.43.18.64.27l-.03-.03c.2.71.4,1.41.61,2.14-1.8.62-3.22-.1-4.63-.62-1.3-.48-2.54-1.11-3.78-1.74-.24-.12-.5-.52-.48-.76.06-.81.24-1.61.37-2.41Z"/>
          <path d="M71.5,56.3c1.47,2,2.94,3.99,4.42,5.99.35,1.48.7,2.97,1.05,4.45.16.68-.15,1.04-.79,1.25-1.18.37-2.23-.19-2.53-1.38-.78-3.09-1.58-6.18-2.35-9.27-.08-.33-.53-.83.21-1.04Z"/>
          <path d="M80.96,58.65c1.29-.3,2.55-.61,3.81-.89,1.03-.23,1.74.35,1.64,1.38-.14,1.5-.32,2.99-.58,4.47-.05.29-.5.66-.81.72-2.59.44-2.76.32-3.41-2.17-.27-1.05-.47-2.13-.69-3.19-.02-.11.02-.23.03-.32Z"/>
          <path d="M125.33,89.82c-1.09,1.15-2.18,2.29-3.26,3.44-.2-.09-.5-.13-.57-.28-1.3-2.83-2.58-5.67-3.85-8.5.06-.05.12-.09.18-.14,2.64,1.52,5.28,3.04,7.93,4.57-.16.35-.29.63-.41.91Z"/>
          <path d="M105.5,36.72c-.01.23-.03.45-.04.68-.55,2.65-1.78,5.01-3.11,7.35-.26-1.97-.57-3.9-.53-5.84.04-1.98.41-3.95.63-5.92.21-.23.43-.46.64-.69.18.02.48-.01.53.08.19.39.36.8.45,1.23.17.86.48,1.57,1.31,2.03.19.11.1.71.14,1.09Z"/>
          <path d="M8.22,128.86c-.6-1.17-1.27-2.3-1.77-3.51-.57-1.39-.92-2.87-1.49-4.26-.36-.87-.32-1.56.27-2.27.29-.35.51-.76.84-1.27.69,1.23,1.31,2.33,1.92,3.43.13.23.21.51.38.7,1.76,1.83.98,4.12,1.07,6.23.01.31-.52.65-.8.97-.14,0-.28-.02-.42-.03Z"/>
          <path d="M165.37,113.81c-2.34-1.79-4.66-3.55-5.82-6.35-.1-.23.17-.83.42-.95,1.15-.57,2.35-1.03,3.34-1.44.5,1.28.89,2.47,1.41,3.6.75,1.62,1.21,3.26.65,5.15Z"/>
          <path d="M151.7,99.2c2.46.18,4.93.34,7.39.55.19.02.52.29.51.44-.1,2.05-.24,4.1-.39,6.38-2.64-2.5-5.11-4.83-7.58-7.16.02-.07.04-.14.06-.2Z"/>
          <path d="M101.22,69.24c-1.49,1.03-2.81,1.96-4.15,2.86-.6.4-1.03.23-1.28-.49-.29-.84-.65-1.66-.98-2.49-.07.03-.14.05-.21.08.29.92.58,1.83.94,2.96-2.38-.51-4.61-1-6.85-1.48.04-.17.05-.22.06-.23,3.33-.2,6.26-1.82,9.4-2.68.4-.11.94-.03,1.31.16.57.29,1.04.75,1.77,1.29Z"/>
          <path d="M113.82,32c-.57.23-1.14.46-1.83.73-.43-.55-.93-1.16-1.4-1.79-.63-.86-1.25-1.73-1.85-2.6-.69-1-.69-1.32.4-1.87.9-.45,1.94-.67,2.94-.89.22-.05.7.27.76.51.36,1.41.67,2.83.93,4.26.1.54.02,1.12.02,1.68,0,0,.03-.03.03-.03Z"/>
          <path d="M105.6,11.19c-.06.24-.04.57-.19.7-.61.52-1.27.97-2.06,1.56-.52-.3-1.48-.82-2.38-1.42-.2-.13-.21-.55-.3-.84.95-1.26,1.89-2.51,2.84-3.77,2.24-1.05,3.37-3.24,5.12-4.79-.09-.09-.17-.18-.26-.26-.41.46-.81.93-1.22,1.38-.43.48-.87.95-1.49,1.63-.03-.52-.17-.89-.05-1.08.44-.66.91-1.32,1.47-1.88.79-.8,1.67-1.51,2.52-2.26.05-.05.14-.06.44-.17-.71,1.84-1.35,3.5-1.99,5.17,0,0,0-.02,0-.02-.93.73-1.89,1.44-2.79,2.21-.6.51-1.1,1.15-1.68,1.69-.81.75-1.66,1.47-2.5,2.2.07.08.14.15.21.23.23-.2.49-.37.67-.61.54-.69,1.1-.94,1.91-.38.32.22.76.25,1.15.36.19.11.38.22.57.34Z"/>
          <path d="M101.03,64.09c-.43.22-.85.41-1.26.65-1.11.65-2.18,1.4-3.34,1.94-.49.23-1.17.04-1.87.04.13-.44.2-.67.27-.91l-.14-.11c-.19.24-.38.5-.59.73-.29.32-.56.84-.9.89-2.57.37-5.17.91-7.59-.59-.07-.05-.13-.11-.27-.22.19-.41.32-.87.59-1.24.14-.19.51-.33.75-.3,1.08.11,2.15.36,3.23.43,1.85.12,3.71.06,5.55.24,1.78.18,3.25-.36,4.56-1.48.38-.33.73-.54,1-.06Z"/>
          <path d="M125.4,112.58c-.15-.18-.38-.35-.43-.56-.23-1.02-.41-2.05-.64-3.25-.55-.34-1.31-.8-2.13-1.31.29-.14.59-.38.93-.45,2.07-.43,4.15-.82,6.12-1.2.34.73.61,1.45,1.01,2.08.35.57.21.87-.36.92-1.28.11-2.58.14-3.86.19-.34.01-.69-.05-1.28-.1.34.47.54.79.77,1.06.33.38.69.73,1.03,1.09.46.5.57.96-.17,1.31-.33.07-.66.14-.99.21Z"/>
          <path d="M121.29,65.43c-.43-.34-.86-.67-1.28-1.03-1.41-1.23-2.82-2.47-4.23-3.7.06-.1.12-.2.18-.3.31.09.64.16.94.27.55.2,1.11.41,1.65.65,1.37.63,2.74,1.18,4.28.55.17-.07.4,0,.82,0,.02,1.7.08,3.34.01,4.98,0,.23-.6.53-.96.62-.16.04-.53-.35-.63-.61-.2-.53.08-1.31-.83-1.44,0,0,.03.03.03.03Z"/>
          <path d="M69.56,106.9c-.06.58-.14,1.08-.17,1.57-.03.53-.29.76-.82.85-1.93.31-3.57-.55-5.23-1.29-.39-.17-.73-.45-1.23-.77.92.09,1.68.16,2.43.24l.03-.25c-.72-.15-1.45-.27-2.16-.46-.42-.11-.83-.3-1.23-.49-.55-.25-.79-.75-.47-1.23.27-.4.71-.71,1.36-.44,1.76.74,3.54,1.45,5.34,2.07.62.21,1.33.13,2.13.2Z"/>
          <path d="M51.01,63.06c2.05-.94,4-1.83,5.88-2.69,1.07.61,2.11,1.21,3.28,1.88-1.05.51-2.06,1.02-3.08,1.5-.35.16-.71.29-1.07.43-2.57,1.05-2.74,1.02-5.01-1.13Z"/>
          <path d="M65.52,56.62c-.11.85-.21,1.7-.32,2.55-.11.24-.22.48-.44.95-.94-.59-1.89-1.14-2.8-1.75-.4-.27-.33-.6.09-.82.58-.3,1.16-.58,1.81-.9-.3-1.48,1.14-1.86,1.86-2.76-.44.26-.89.51-1.6.92.15-1.04.11-1.88.4-2.6.65-1.66,1.03-1.79,2.96-1.49-.65,1.96-1.31,3.93-1.96,5.9Z"/>
          <path d="M57.29,76.59l-1.31-.5c-.77-.24-.87-.79-.79-1.51.17-1.61.28-3.23.41-4.86,1.28,1.1,4.99,6.37,4.92,7.97-1.09-.38-2.16-.74-3.23-1.11Z"/>
          <path d="M27.83,94.98c.59,1.1,1.18,2.21,1.77,3.31-.08.06-.16.12-.24.18-.76-.76-1.52-1.51-2.27-2.29-1.35-1.41-2.7-2.82-4.02-4.26-.2-.21-.35-.56-.35-.84,0-.71.1-1.41.18-2.28,1.28.77,2.55,1.44,3.7,2.27.34.24.34.95.48,1.45.17.59.34,1.17.51,1.76.08.23.15.46.23.7Z"/>
          <path d="M68.29,111.78c2.45-.36,4.9-.7,7.39-.41.29.03.58.03.93.05-.2,1.08-.55,1.99-1.56,2.5,0,0,.04-.03.04-.03-2.34.78-4.69.02-7.12.2.59-1.09,1.14-1.27,2.15-.77-.15-1.31-1.18-.53-1.77-.82-.01-.24-.02-.5-.03-.76l-.04.03Z"/>
          <path d="M121.31,73.66c-.86-.6-1.57-1.08-2.26-1.58-.18-.13-.36-.33-.42-.54-.39-1.35-.74-2.71-1.18-4.33,1.07.49,1.94.96,2.86,1.28.33.12.78-.07,1.16-.18,1.06-.31,1.02-.25,1.24.85.35,1.79-.83,2.97-1.4,4.5Z"/>
          <path d="M34.85,121.32c-1.67-.12-3.25-.23-4.9-.35.3-1.15.56-2.24.89-3.31.06-.21.39-.47.6-.48,1.31-.04,2.63-.02,4.1-.02-.25,1.52-.47,2.81-.69,4.15Z"/>
          <path d="M118.35,51.59c1.09,1.12.67,4.1-.87,5.58v-2.31c-.12.18-.24.36-.43.64-1.06-2.04-2.07-3.98-3.22-6.18,1.51.24,2.8.37,4.02.7.22.06.33.98.27,1.47-.11.86-.4,1.7-.47,2.59.23-.81.45-1.62.7-2.49Z"/>
          <path d="M80.76,89.77c.11.16.23.32.34.48.22,1.95-.5,3.7-1.04,5.5-1.74-.56-2.57-1.76-2.34-3.4.12-.86.39-1.71.59-2.56.45-.61.9-1.22,1.35-1.83.37.6.73,1.2,1.1,1.8Z"/>
          <path d="M59.12,107.37c1.2,1.35,2.25,2.59,3.36,3.77.36.38.47.66.2,1.13-1.03,1.84-.45,1.76-2.7,1.27-.96-.21-1.5-.59-1.47-1.68.02-.87-.31-1.76-.22-2.61.07-.65.54-1.25.83-1.88Z"/>
          <path d="M155.3,113.06c-.29-.34-.57-.68-.86-1.01,0,0,.02.02.02.02-.24-1.45-.34-2.95-1.76-3.95.07-.08.15-.16.22-.24,1.99-.13,3.98-.26,6.06-.39-.11.43-.18.71-.24.98-1.15,1.53-2.3,3.06-3.44,4.6Z"/>
          <path d="M76.55,50.52c.74-.22,1.07.1,1.25.81.24.96.56,1.9.89,2.99-.42-.23-.71-.39-1.21-.65.99,1.79,1.86,3.38,2.74,4.96-.08.04-.17.09-.25.13-2.95-1.84-4.22-4.91-5.81-7.86.87-.14,1.64-.27,2.42-.4h-.03Z"/>
          <path d="M105.85,74.01c-2.45-.47-5.25-1.02-8.18-1.59,1.34-1.03,2.58-1.99,4.1-3.15,1.41,1.64,2.83,3.29,4.08,4.74Z"/>
          <path d="M65.94,70.65c.18-1.01.49-1.8.43-2.56-.11-1.32.28-2.53.51-3.78.09-.51.5-.96.76-1.44.12.03.23.05.35.08.21.99.44,1.99.64,2.98.24,1.16.49,2.31.67,3.47.04.26-.16.77-.32.8-.93.2-1.89.28-3.02.43Z"/>
          <path d="M107.52,20.23c-1.03-1.95-2.38-3.52-2.93-5.64,2.29.75,4.45,1.45,6.75,2.2-1.24,1.11-2.45,2.21-3.82,3.44Z"/>
          <path d="M27.83,94.98c-.08-.23-.15-.46-.23-.7-.1-.96-.21-1.91-.33-3.04,1.65.77,3.16,1.47,4.84,2.25-.77,1.42-1.49,2.74-2.33,4.27-.38-.61-.64-1.08-.94-1.52-.31-.44-.67-.85-1.01-1.27Z"/>
          <path d="M103.83,74.1c-3.15.6-6.31,1.19-9.47,1.78-.13.02-.27-.02-.61-.04.96-1.09,1.8-2.06,2.67-3.01.11-.12.38-.19.56-.16,2.29.38,4.57.78,6.86,1.18,0,.08-.01.17-.02.25Z"/>
          <path d="M120.11,46.8s.06.02.07.04c1.09-.5,2.17-.99,3.27-1.49.35,1.4.11,1.91-1.09,2.51-.69.34-1.35.76-2.03,1.14-.03.01-.06.03-.09.03-.18.01-.39-.04-.52.05-1.19.8-2.46.53-3.73.32-.75-.12-1.51-.2-2.26-.29.21-1.12.36-1.21,1.42-1.06.87.12,1.82.45,2.61.24.86-.23,1.58-.97,2.36-1.48Z"/>
          <path d="M88.88,71.43c1.24,1,2.48,2,3.72,3,.34.27.67.55.97.8-.21.89-.72.98-1.42.79-1.34-.36-2.69-.67-4.03-1.04-.22-.06-.57-.34-.55-.49.09-1.13.25-2.26.4-3.5.44.22.69.35.95.47l-.03-.03Z"/>
          <path d="M113.79,32.03c.13.09.38.18.38.27,0,.71.42,1.11.96,1.48,1.12.77,2.21,1.57,3.31,2.36-.77.75-1.52,1.47-2.37,2.3-1.17-1.59-2.37-3.24-3.52-4.82.49-.62.88-1.12,1.28-1.62,0,0-.03.03-.03.03Z"/>
          <path d="M96.2,80.86c.19.06.42.06.55.18,1.22,1.15,2.42,2.33,3.62,3.5.1.1.15.23.35.54-2.35-.15-4.52-.29-6.82-.44.29-.52.51-.91.74-1.31,0,0-.03.02-.03.02.54-.84,1.08-1.68,1.62-2.53,0,0-.03.02-.03.02Z"/>
          <path d="M163.62,104.64c-1.36.51-2.61.98-4.02,1.5.11-2.09.22-4.05.34-6.2,1.81,1.22,2.69,2.93,3.69,4.7Z"/>
          <path d="M54.29,57.95c.05.05.1.1.14.15.61.75,1.22,1.49,1.83,2.24-1.12.53-2.53,1.21-3.95,1.85-.63.28-1.31.47-1.96.71,0,0,.02.02.02.02.55-2.03,1.88-3.56,3.34-4.98.1-.09.38,0,.57,0Z"/>
          <path d="M138.04,121.64c.65,1.37,1.25,2.64,1.86,3.92.15.32.29.65.45.96.72,1.41.64,1.72-.86,2.76-.35-.74-.7-1.47-1.05-2.2-.38-.8-.68-1.65-1.17-2.38-.58-.88-.54-1.59.19-2.32.2-.2.36-.44.59-.73Z"/>
          <path d="M105.14,48.9c.51-.37.87-.32,1.28.1.47.48.88,1.17,1.77.91-.46-.31-.91-.61-1.39-.92,1.3-1.28,3.36-1.56,6.23-.91-.18.28-.29.61-.51.77-1.39,1.02-2.92,1.63-4.68,1.62-.23,0-.46.11-.69.11-.47,0-.91.02-1.12-.6-.13-.38-.53-.66-.89-1.07Z"/>
          <path d="M96.93,29.81c-.77.33-1.38.62-2.01.85-.18.06-.47-.02-.63-.14-1.11-.82-2.2-1.67-3.46-2.64,1.01-.53,1.87-1,2.75-1.42.12-.06.4.08.51.2.91.99,1.81,2,2.84,3.16Z"/>
          <path d="M98.33,64.08c-1.8-2.34-3.43-4.46-5.23-6.81,2.01.98,3.8,1.85,5.57,2.75.18.09.38.44.35.64-.18,1.09-.43,2.17-.69,3.42Z"/>
          <path d="M32.25,93.95c.67,1.21,1.25,2.19,1.76,3.21.08.15-.05.52-.2.64-.77.59-1.57,1.14-2.37,1.7-.49.35-1.06.42-1.42-.05-.2-.26-.21-.83-.06-1.14.67-1.4,1.44-2.75,2.28-4.35Z"/>
          <path d="M146.51,121.92c.41-.3.82-.59,1.23-.89,0,0-.03-.02-.03-.02.61.5,1.22,1,1.92,1.57-2.03,1.76-4.22,3.09-6.47,4.31-.06-.08-.13-.16-.19-.23,1.19-1.59,2.38-3.17,3.56-4.76l-.02.02Z"/>
          <path d="M149.23,95.81c2,.16,3.9.31,6.03.48-.71.95-1.25,1.79-1.91,2.51-.5.55-2.61.14-2.98-.54-.41-.77-.74-1.59-1.14-2.45Z"/>
          <path d="M10.03,94.62c.05-.64.11-1.27.16-1.91.07-.16.19-.32.2-.48.07-1.51,1.19-2.16,2.51-2.78-.32,1.18-.64,2.37-.96,3.55,0,0,.03-.03.03-.03-.29.33-.57.67-.88,1.02,1.54.75,1.1,2.56,1.57,3.98.12.36.13.75.16,1.13,0,.07-.19.15-.3.23-.23-.46-.47-.92-.7-1.38-.6-1.11-1.19-2.22-1.79-3.33Z"/>
          <path d="M136.55,111.24c.79-2.48,1.54-4.85,2.3-7.24.92.54,1.22,1.18.96,2.18-.32,1.25-.54,2.54-.71,3.82-.1.78-.5,1.06-1.21,1.09-.4.02-.8.09-1.34.15Z"/>
          <path d="M119.28,17.95c-.57-.35-1.13-.69-1.7-1.04-.8-.65-.87-1.46-.51-2.36,2.52.36,4.75,1.61,6,3.53-1.19-.83-2.38-1.67-3.57-2.5-.04.06-.08.12-.13.18.88.67,1.75,1.35,2.64,1.99.35.25.58.49.3.93,0,0,.03-.02.03-.02-1.02-.24-2.05-.47-3.07-.71Z"/>
          <path d="M72.08,76.29c-1.36-.09-1.72-1.29-2.57-2.16,1.02-.14,1.89-.27,2.75-.37.15-.02.38.05.46.16.65.87,1.31,1.75,1.89,2.67.11.18-.07.62-.22.88-.1.18-.38.27-.6.35-.31.12-.81.38-.92.27-.43-.42-.74-.97-1.07-1.48-.02-.03.17-.19.28-.32Z"/>
          <path d="M103.09,29.2c-3.48.65-5.11-1.7-7.15-3.59,1.08-.37,1.92-.37,2.79.25,1.13.8,2.36,1.44,3.5,2.21.35.24.54.69.86,1.13Z"/>
          <path d="M20.21,89.43v-1.8c3.32-.06,6.48.27,9.49,2.38-1.66.21-3.09.74-4.44-.39-.54-.45-1.15-.84-1.77-1.17-.26-.14-.67-.13-.96-.03-.74.26-1.45.62-2.32,1Z"/>
          <path d="M108.05,5.15s0,.01,0,.02c.1-.07.21-.13.31-.2.05.04.11.07.16.11-.78,1.94-1.56,3.89-2.36,5.82-.06.15-.37.19-.56.29-.19-.11-.38-.22-.57-.34-.55-.32-1.1-.64-1.63-.96,1.56-1.59,3.11-3.17,4.65-4.74Z"/>
          <path d="M8.78,105.55c-.16.11-.33.21-.65.42.18-3.29.36-6.45.53-9.61.13,0,.25-.01.38-.02.27,1.31.54,2.62.79,3.93.08.4.09.82.15,1.23.17,1.18.1,2.29-.77,3.23-.21.23-.31.56-.45.84,0,0,.03-.03.03-.03Z"/>
          <path d="M88.91,71.45c.06-.1.14-.31.19-.3,2.27.44,4.54.89,6.97,1.38-.77.93-1.41,1.72-2.09,2.54-1.38-1.05-2.66-2.04-3.96-3-.35-.26-.75-.44-1.13-.65,0,0,.03.03.03.03Z"/>
          <path d="M115.53,15.71c-2.93,1.06-5.54-.3-8.31-.88,1.23-1.56,2.9-1.52,4.51.03.25-.89,1.94-.77,3.8.84Z"/>
          <path d="M95.93,91.13c.09-.21.19-.43.28-.64.41-.65.94-.79,1.69-.6.85.21,1.74.25,2.62.37,1.04.14,1.11.27.68,1.27-.39.19-.78.39-1.17.58-.22.08-.45.15-.67.23-1.15.44-2.73-.11-3.43-1.21Z"/>
          <path d="M72.22,90.55h.01c-.29-.61-.22-1.14.31-1.62.13-.12.15-.35.22-.54l2.5-2.98c.82.25,1.23,1.34.78,2.07-.22.36-.42.74-.63,1.11-.21.22-.43.43-.64.65-.55.63-1.1,1.25-1.65,1.88-.29-.19-.6-.39-.9-.59Z"/>
          <path d="M146.54,121.9c-.23.2-.49.38-.68.61-1.03,1.29-2.05,2.59-3.06,3.89-.18.23-.31.5-.47.75l-.32-.25c1.13-2.59,2.27-5.18,3.41-7.79,1.37,1.05,1.58,1.6,1.09,2.81,0,0,.02-.02.02-.02Z"/>
          <path d="M109.88,63.69c-2.83,1.11-5.66,1.91-8.46-.13.78-.75,6.86-.65,8.46.13Z"/>
          <path d="M116.64,39.14c.9-1.06,1.67-2.02,2.52-2.9.24-.25.78-.41,1.09-.32.45.14.96.4.86,1.11-.12.89-.15,1.79-.23,2.8-.34-.18-.57-.31-.8-.41-.35-.16-.61-.22-1.08-.09-.69.19-1.52-.09-2.35-.18Z"/>
          <path d="M79.09,37.73c1.67-.87,3.35-1.74,5.02-2.6.39-.2.79-.36,1.33-.59.26.86.5,1.62.77,2.52-1.67.22-3.21.44-4.75.6-.78.08-1.57.04-2.36.05,0,0-.02.02-.02.02Z"/>
          <path d="M60.93,57.34c-1.4-.26-1.68-.64-1.41-2.17.16-.91.03-1.94.99-2.52.44-.27.91-.54,1.4-.7.43-.14.78.31.64.73-.54,1.54-1.07,3.09-1.62,4.66Z"/>
          <path d="M66.54,71.08c.98-.18,1.7-.36,2.42-.42.32-.03.71.1.97.29.7.49,1.35,1.06,2.01,1.59.5.4.38.71-.18.85-1.25.3-2.52.76-3.5-.65-.41-.59-1.05-1.02-1.73-1.67Z"/>
          <path d="M10.38,123.51c.49-1.1.97-2.2,1.55-3.51.94,1.96,2.19,3.58,1.7,5.83-1.09-.77-2.13-1.52-3.25-2.31Z"/>
          <path d="M125.4,112.58c.33-.07.66-.14.99-.21,1.59-.93,2.35.17,3.09,1.28.39.58.71,1.2,1.05,1.78-1.04,1-1.1.92-1.98.05-.85-.85-1.89-1.52-2.84-2.26,0,0,.03.03.03.03-.11-.22-.22-.44-.33-.66Z"/>
          <path d="M112.56,63.59c-.28,1.97-.57,3.94-.85,5.91-.13.03-.27.05-.4.08-.29-.66-.63-1.31-.86-1.99-.15-.44-.14-.93-.21-1.4-.25-1.77-.2-1.85,1.5-2.47.16-.06.31-.15.47-.23.12.03.24.07.35.1Z"/>
          <path d="M155.3,113.06c1.15-1.53,2.3-3.06,3.44-4.6.17-.16.34-.31.61-.57.45.72.88,1.42,1.33,2.14-1.85,1.2-3.59,2.33-5.42,3.52.02-.25.02-.37.03-.48Z"/>
          <path d="M64.34,51.49c-.24,1.59-.41,3.01-.69,4.42-.21,1.06-1.27,1.05-2.12,1.58.17-2.41.59-4.49,2.81-6Z"/>
          <path d="M94.11,26.22c.83-.61,1.43-.65,2.12.03,1.05,1.06,2.2,2.03,3.3,3.03-.87.64-1.96.58-2.68-.17-.89-.94-1.78-1.88-2.74-2.89Z"/>
          <path d="M84.6,69.16c.86-.13,1.72-.26,2.65-.4-.47-.35-.87-.65-1.28-.96.07-.12.15-.23.22-.35.46.29.92.59,1.4.85.2.11.46.14.69.16,1.51.14,3.01.27,4.51.49-1.08.83-2.66.91-3.66.23.07.24.13.4.25.82-1.71-.2-3.27-.39-4.84-.57.02-.09.04-.18.06-.27Z"/>
          <path d="M155.61,96.36c.67.51,1.34,1.03,2.01,1.54.53.42,1.06.84,1.59,1.27-.01.08-.03.17-.04.25-1.78-.13-3.55-.25-5.57-.4.76-1,1.39-1.83,2.02-2.66,0,0,0,0,0,0Z"/>
          <path d="M19.41,122.45c.41,1.08.77,2.02,1.13,2.95-.06.07-.12.14-.19.21-1.4-.33-2.8-.67-4.25-1.01.49-1.78,2.08-1.52,3.31-2.15Z"/>
          <path d="M13.43,126.01c-1.24.73-2.32,1.37-3.66,2.16,0-1.47-.01-2.72.03-3.96,0-.1.48-.33.58-.26.98.62,1.94,1.3,3.06,2.07Z"/>
          <path d="M116.58,59.21c.23-.09.45-.17.68-.26,2.27-.56,3.57.43,3.59,2.86-1.52-.63-3.01-1.24-4.52-1.86.1-.3.18-.52.26-.74Z"/>
          <path d="M76.57,50.51c-.23-.01-.47-.05-.7-.04q-2.14.05-2.69-2.13h3.99c-.01.88.54,1.76-.63,2.19,0,0,.03-.01.03-.01Z"/>
          <path d="M90.42,54.3c-.56.41-1.08.88-1.67,1.22-1.02.58-2.06,1.17-3.15,1.6-.98.39-1.57.01-1.48-.76.02-.16.16-.41.29-.45,1.96-.62,3.92-1.21,5.89-1.81.04.07.09.13.13.2Z"/>
          <path d="M118.19,35.27c-1.07-.85-2.21-1.64-3.17-2.6-.33-.32-.23-1.08-.33-1.64.08-.05.15-.1.23-.15,1.08.75,2.25,1.4,3.19,2.29.4.38.31,1.27.44,1.92-.12.06-.24.12-.36.18Z"/>
          <path d="M155.99,115.13c.86.94,1.72,1.88,2.58,2.82.6.84,1.2,1.69,1.8,2.53-.02.03-.04.05-.05.08-.75-.55-1.5-1.11-2.24-1.66-.38-.28-.72-.66-1.14-.83-1.52-.62-1.79-1.77-1.43-3.24.15.1.32.2.49.31Z"/>
          <path d="M150.26,110.57c-.49-1.15-.31-2.33-.26-3.79.92.71,2,1.14,2.21,1.83.22.73.21,1.9-.68,2.58-.44-.22-.87-.43-1.3-.65,0,0,.03.03.03.03Z"/>
          <path d="M103.51,7.43c-.95,1.26-1.89,2.51-2.84,3.77q-1.07.82-1.94.31c2.14-2.17,4.23-4.29,6.45-6.54.11.87-.22,1.28-.73,1.64-.34.24-.63.55-.94.83Z"/>
          <path d="M8.75,105.58c.44-.49.88-.98,1.4-1.57.49.5,1.04.98,1.48,1.54.46.59.02,1.4-.73,1.41-.85.01-1.69,0-2.69,0,.26-.63.41-1.02.57-1.41,0,0-.03.03-.03.03Z"/>
          <path d="M153.95,111.99c-.15.34-.31.68-.46,1.02-.28-.1-.58-.16-.82-.33-.2-.14-.33-.39-.49-.59-.07-.05-.13-.09-.2-.14-.05-.16-.19-.35-.15-.49.26-.94.56-1.87.85-2.79,1.04.48,1.57,1.8,1.27,3.31Z"/>
          <path d="M11.65,105.26c-.37-.45-.82-.86-1.08-1.37-.15-.29-.14-.9.05-1.08.82-.74,1.74-1.37,2.63-2.04.07.05.14.11.22.16-.51,1.38-1.02,2.77-1.53,4.15-.1.06-.19.12-.29.18Z"/>
          <path d="M22.38,120.7c.31,1.16-.44,2.92-1.64,4.05-.31-.78-.62-1.54-.96-2.39.87-.55,1.72-1.09,2.6-1.66Z"/>
          <path d="M54.71,74.28c-.47-1.12-.97-2.24-1.4-3.38-.07-.17.1-.56.27-.67.47-.29.99-.49,1.72-.83-.14,1.72-.27,3.29-.39,4.86-.06,0-.13.01-.19.02Z"/>
          <path d="M120.75,57.55c.83.29,1.65.59,2.48.88,0,.11,0,.22,0,.33-.67.59-1.33,1.18-2.01,1.78-.48-.72-.92-1.37-1.5-2.24.32-.24.69-.51,1.06-.79,0,0-.02.02-.02.02Z"/>
          <path d="M87.19,62.81c2.59.58,5.18,1.17,7.77,1.75-2.67-.26-5.64.8-7.77-1.75Z"/>
          <path d="M54.37,65.16c1.23-.5,2.47-1,3.81-1.54.27.61.53,1.21.86,1.96-1.64-.09-3.13-.17-4.63-.26-.01-.05-.02-.11-.04-.16Z"/>
          <path d="M17.42,88.18c-1.47.79-2.83,1.53-4.21,2.27-.23-1.13.12-1.77,1.21-2.03.93-.22,1.76-1.11,3-.24Z"/>
          <path d="M102.97,102.7c-1.28,1.16-2.55,2.32-3.83,3.49.41-.72.84-1.5,1.31-2.26.29-.46.64-.89.97-1.33.22-.23.43-.46.65-.69.15-.12.31-.25.56-.45.12.47.22.86.33,1.25,0,0,.01-.02.01-.02Z"/>
          <path d="M102.63,28.09c-1.38-.91-2.63-1.73-3.88-2.55.05-.11.09-.21.14-.32.38.06.77.1,1.15.18.34.08.68.21,1.02.3q1.49.4,1.58,2.38Z"/>
          <path d="M159.87,98.64c.2.16.4.32.61.49.02.17.03.34.05.44-1.64-1.07-3.28-2.14-4.91-3.21,0,0,0,0,0,0,1.81-.09,3.6-.04,5.32,1.19-1.09-.1-2.02-.19-3.16-.3.79.52,1.44.95,2.1,1.38Z"/>
          <path d="M119.85,57.75c-.79.16-1.59.32-2.59.52.2-.37.24-.53.35-.64,1.1-1.11,1.55-2.44,1.51-3.99-.01-.35.15-.7.23-1.05,0,0-.03-.01-.03-.01,0,.32-.02.65.02.97.17,1.41.35,2.82.53,4.23,0,0-.01-.03-.01-.03Z"/>
          <path d="M62.85,52.15c-.87-1.35.62-2.87,3.55-3.04-1.28,1.1-2.38,2.04-3.55,3.04Z"/>
          <path d="M102.07,101.92c-.22.23-.43.46-.65.69-.35.41-.7.83-1.05,1.24-.08-.05-.15-.1-.23-.15v-.64s-.02.03-.02.03c.58-1.31,1.16-2.62,1.79-4.04.46,1.04.75,1.94.17,2.87Z"/>
          <path d="M31.28,92.72c-1.26-.6-2.53-1.2-3.92-1.86.94-.22,1.73-.42,2.54-.58.12-.02.33.11.4.23.39.68.74,1.38,1.11,2.08-.04.05-.08.09-.13.14Z"/>
          <path d="M151.53,135.47c1.35-.29,2.68-.62,4.04-.86,1.4-.24,2.82-.39,4.24-.49-2.59,1.43-5.49,1.09-8.28,1.36,0,0,0,0,0,0Z"/>
          <path d="M156.18,130.21c-1.36.39-2.49.7-3.61,1.02-.04-.08-.08-.16-.12-.24.82-.74,1.64-1.47,2.55-2.3.28.37.64.83,1.18,1.52Z"/>
          <path d="M53.86,66.29c.4.72.79,1.44,1.21,2.15.26.45.14.71-.33.87-.44.15-.87.33-1.42.54.1-1.24.19-2.37.28-3.5l.27-.05Z"/>
          <path d="M128.54,111.89c.79.09,1.63-.06,1.86.25.63.84.91,1.89.56,3.04-.77-1.05-1.51-2.04-2.43-3.28Z"/>
          <path d="M125.74,19.97c.18.3.33.62.55.9,1.11,1.41,1.09,2.91.28,4.5.09-2.11-.47-4.05-1.46-5.9.22.18.44.35.66.53,0,0-.03-.03-.03-.03Z"/>
          <path d="M62.17,79.65s.03-.06.03-.06c-.27.37-.55.74-.97,1.31-.14-1.1-.26-2.02-.38-3.02.65-.07,1.18-.14,1.82-.21-.19.74-.34,1.36-.49,1.98Z"/>
          <path d="M114,42.07c-.47.57-.93,1.15-1.4,1.72-.1-.06-.2-.13-.3-.19.32-.54.64-1.08.96-1.62.73-1.04,1.45-2.07,2.18-3.11.09.05.19.1.28.16-.16,1.22-1.25,1.98-1.72,3.05Z"/>
          <path d="M14.04,123.45c.66.09,1.3.18,2.06.28-.34,1.01-1.18,1.41-2.06,2v-2.28Z"/>
          <path d="M100.02,92.1c.39-.19.78-.39,1.17-.58.14.28.34.54.39.83.09.53.1,1.08.14,1.67-.95-.32-1.7-1.2-1.7-1.92Z"/>
          <path d="M114.43,13.87c-.05.1-.09.29-.14.29-1.45.08-2.95.43-4.29-.93,1.63-.17,3.01.44,4.43.64h0Z"/>
          <path d="M56.1,115.49c.91.29,1.68.54,2.52.81-.5.79-.99,1.15-1.74.9-.67-.23-.84-.76-.79-1.71Z"/>
          <path d="M136.01,119.5c.7.76,1.23,1.34,1.79,1.95-.38.5-.72.97-1.19,1.6-.14-.7-.26-1.2-.34-1.71-.09-.52-.15-1.05-.26-1.84Z"/>
          <path d="M92.4,68.51c.7-.24,1.36-.46,2.11-.71-.04-.04.07.08.25.29.04-.36.07-.6.11-.89.68-.03,1.32-.06,1.98-.1-.78,1.01-3.05,1.71-4.45,1.4Z"/>
          <path d="M132.37,4.17c1.19,1.42.19,2.88.67,4.39q-.9-.75-.67-4.39Z"/>
          <path d="M114.72,20.52c-.48.29-.89.54-1.4.85-.14-1.08-.27-2.04-.39-3,.05-.02.1-.03.15-.05.52.69,1.03,1.39,1.64,2.2Z"/>
          <path d="M60.71,98.47l1.16,4.3c-.1.03-.2.06-.3.09-1.47-1.12-.68-2.91-1.07-4.34.07-.02.14-.03.22-.05Z"/>
          <path d="M131.24,22.67c-.17-.19-.37-.41-.63-.7.66-.54,1.26-1.03,2.05-1.67-.06.69.03,1.24-.19,1.6-.21.35-.75.49-1.23.77Z"/>
          <path d="M121.37,39.24c.09-1.02.17-2.03.26-3.09,1.18.47,1.25.67.72,1.62-.28.5-.54,1.01-.81,1.51-.06-.01-.11-.03-.17-.04Z"/>
          <path d="M112.81,114.16c-.24.38-.44.38-.75.03-.33-.37-.74-.67-1.11-.99.1-.11.21-.33.31-.33.67,0,1.33.06,2.1.11-.22.47-.38.82-.55,1.18Z"/>
          <path d="M125.9,25.91c.32.04.58.07.93.11-.27,1.34-.53,2.62-.79,3.9-.05,0-.09-.01-.14-.02v-4Z"/>
          <path d="M61.52,74.36c.86-.09,1.46-.15,2.27-.24-.18.62-.33,1.13-.53,1.83-.61-.56-1.08-1-1.73-1.6Z"/>
          <path d="M19.99,89.41c-.73-.47-1.3-.85-1.99-1.3.64-.23,1.15-.42,1.72-.63.08.62.16,1.18.27,1.92Z"/>
          <path d="M118.79,92.41l-1.42-1.06c-.42-.44-.72-.91-.31-1.61.63.82,1.22,1.61,1.81,2.4.04.05-.05.18-.08.28Z"/>
          <path d="M164.23,104.03c.02.21.04.41.06.62-.14-.08-.34-.12-.42-.23-.94-1.34-1.86-2.7-2.78-4.05-.08-.11-.12-.24-.18-.36l.25-.17c.77,1.1,1.53,2.2,2.31,3.29.23.32.52.61.78.91Z"/>
          <path d="M116.94,113.96c-1.1-.29-2.02-.53-3.17-.84h3.33c-.07.35-.11.59-.16.84Z"/>
          <path d="M114.43,13.88c.49.06.98.12,1.47.19.67.1.92.44.56,1.24-.69-.49-1.36-.96-2.03-1.44,0,0,0,0,0,0Z"/>
          <path d="M93.72,113.38c-.5-.49-.82-.79-1.13-1.09.15-.11.3-.33.44-.32.39.03.78.14,1.17.23-.13.32-.26.64-.48,1.18Z"/>
          <path d="M128.05,81.14c.44-.32.88-.63,1.47-1.06.05.53.09.88.13,1.29h-1.44l-.16-.24Z"/>
          <path d="M132.42,8.37c-.14.88-.28,1.75-.42,2.63-.11-.02-.22-.03-.33-.05.11-.88.22-1.76.32-2.65.14.02.28.04.42.06Z"/>
          <path d="M122.15,78.55c.24.31.57.59.69.94.06.17-.27.48-.43.72l-.24-.12c0-.52,0-1.04,0-1.57,0,0-.03.03-.03.03Z"/>
          <path d="M98.58,93c1.15-.85,1.34.15,1.74.67-.52-.2-1.05-.4-1.74-.67Z"/>
          <path d="M128.57,23.7c-.53.32-.85.5-1.16.69-.06-.03-.12-.07-.18-.1.15-.34.3-.67.45-1.01.25.12.49.23.9.43Z"/>
          <path d="M11.94,93c.14-.17.29-.34.5-.6v1.81c-.09.02-.18.03-.27.05-.07-.43-.13-.86-.2-1.28,0,0-.03.03-.03.03Z"/>
          <path d="M78.2,85.18c.02-1.13.02-2.26.07-3.39,0-.13.26-.33.42-.35.14-.01.41.16.43.29.34,1.75.65,3.5.77,5.33-.49-.56-.99-1.11-1.48-1.67-.07-.07-.14-.14-.21-.22Z"/>
          <path d="M102.98,98c.76-.29,1.53-.58,2.29-.87.22-.05.43-.11.77-.19.16,1.58.32,3.07.43,4.57.02.2-.14.46-.3.6-.63.57-1.29,1.11-1.94,1.66-1.51-1.47-1.35-3.47-2.01-5.12.29-.26.52-.46.75-.66Z"/>
          <path d="M81.51,80.31c-1.05.3-2.11.6-3.35.96,0-.78.01-1.38,0-1.98-.02-.82-.06-1.65-.1-2.47-.04-.91.15-1.69,1.14-2.02,0,0-.05.02-.05.02.3.12.6.24.89.36,0,0,.03-.04.03-.04-.26.15-.51.34-.79.45-.21.08-.57,0-.66.12-.12.18-.06.49-.08.9.41-.26.65-.41.82-.52.36.25.66.46.96.68.56.75,1.15,1.48,1.68,2.24.59.84.53.96-.5,1.29Z"/>
          <path class="cls-2" d="M119.86,57.78c-.18-1.41-.36-2.82-.53-4.23-.04-.32-.02-.65-.02-.97.18,1.73.37,3.46.55,5.19Z"/>
          <path d="M19.07,102.6c.17-.19.34-.38.51-.57.86,1.77.25,2.81-2.24,3.8-.02-.15-.04-.29-.05-.43.59-.93,1.18-1.86,1.78-2.8Z"/>
          <path class="cls-2" d="M16.78,98.65c.84-2.09,1.67-4.17,2.51-6.26-.84,2.09-1.67,4.17-2.51,6.26Z"/>
          <path d="M79.77,113.37c-.04.49-.07.75-.09,1.05h-1.39c-.04-.09-.07-.17-.11-.26.47-.24.95-.47,1.6-.8Z"/>
          <path d="M18.79,99.89c.97-1.08,1.86-2.07,2.76-3.06.09.04.18.08.28.12-.08.89-.15,1.77-.23,2.66-.11,1.09-.18,2.18-.37,3.25-.06.37-.42.7-.76.99-.53-1.36-.08-2.97-1.67-3.96Z"/>
          <path d="M21.62,106.7c.46,1.29.6,2.31-.39,3.21-.42.38-.68.91-1.04,1.4,0-1.21-.12-2.36.06-3.45.07-.43.84-.74,1.37-1.17Z"/>
          <path d="M19,111.09c.2.2.4.4.67.66-.26.75-.53,1.54-.89,2.56-.78-1.33-1.44-2.46-2.11-3.59.07-.08.14-.15.21-.23.34.08.69.16,1.03.24.36.12.73.24,1.09.35Z"/>
          <path d="M19,111.09c-.36-.12-.73-.24-1.09-.35-.21-.19-.43-.38-.84-.75.94-.46,1.75-.86,2.85-1.4-.07.97-.09,1.68-.19,2.38-.01.07-.47.08-.72.12Z"/>
          <path d="M20.32,106.83c.33-.93-.54-2.15.88-3,.14.88.36,1.63.31,2.36-.02.29-.62.55-.96.83l-.24-.18Z"/>
          <path d="M19.9,107.38c-.37.91-1.34,1.19-2.98.64.95-.32,1.9-.64,2.84-.96.04.11.09.21.13.32Z"/>
        </g>
      </g>
      <line class="cls-1" x1="61.18" y1="139" x2="69.87" y2="147.44"/>
      <path d="M79.89,141l-.35,2.26.35-2.26Z"/>
      <path d="M78.64,138.43l1.87,3.06"/>
    </g>
  </g>
</svg>