<?xml version="1.0" encoding="UTF-8"?>
<svg id="Layer_2" data-name="Layer 2" xmlns="http://www.w3.org/2000/svg" viewBox="0 0 27.11 20.74">
  <g id="Layer_1-2" data-name="Layer 1">
    <g>
      <path d="M13.32,13.45s-.05.05-.08.05l-2.74-.69h-.12s2.39,1.09,2.39,1.09l-1.28,1.69c-.05.2.06.36.24.17.52-.54.97-1.26,1.49-1.79.03-.03.05-.07.11-.06v6.78s-.05.05-.06.05l-1.14-4.03-.04-.03-.24.94h-.12s-2.58-3.02-2.58-3.02l1.56-.56-.03-.06h-1.85l-1.96-1.77c-.06-.1.2-.51.32-.52l2.07.64,1.39-1.62h2.64l.05.05v2.7Z"/>
      <path d="M13.8,10.7l.13-.02,2.79.6c.7.62,1.28,1.35,1.93,2.01.03.03.07.05.11.08l-1.11-2.15,2.25.2c.05.02.08.05.12.1.05.06.31.58.3.63,0,.03-.02.06-.04.08l-1.93,1.74-1.8.02c-.26-.03-.15-.41-.22-.57-.04-.08-.4-.39-.34-.46.23-.05.46-.13.68-.21.07-.03.19-.05.23-.12l-1.07.08-1.39-.9,1.3,1.66-.3,2.19.49-1.48c.06-.02.12,0,.18,0,.49.05,1.18.22,1.67.33.06.01.14.03.2.05.03.01.05-.02.04.05l-2.65,2.97-.08.02c-.08-.47-.13-.94-.21-1.41,0-.05.02-.05-.06-.05-.27,1.14-.54,2.28-.86,3.4-.09.34-.18.71-.34,1.02l-.02-6.5,1.4-.37.03-.2h-1.43v-2.79Z"/>
      <path d="M23.78,12.68l-.97-2.08,1.51-3.44-.93.91s-.53-.49-.6-.57c-.12-.13-.34-.34-.35-.5.08-.43.07-.94.16-1.36.02-.08.04-.16.13-.17.26-.05.69.03.96.07.14.02.98.17,1.03.22l.03.06c-.01,2.19.11,4.37.24,6.55l-.86,2.08-1.58.05c-.82-.12-1.67-.1-2.47-.28-.1-.11-.93-.7-.94-.76,0-.04.02-.05.05-.07.18-.14.51-.22.71-.36l1.14-.98.05-1.35s.02-.06.05-.07c.11-.03,1.16.41,1.34.47l1.31,1.59Z"/>
      <path d="M2.83,7.13l1.51,3.48-.96,2.07,1.28-1.59c.18-.05,1.36-.53,1.42-.47-.01.44.09.97.03,1.41-.04.32-.35.74-.39,1.08.16-.07.57-.67.71-.66.08,0,.7.53.84.61.11.06.68.29.69.37,0,.05-.05.08-.09.12-.15.14-.81.72-.96.74-.09.01-.18,0-.27,0-.57.06-1.19.16-1.76.18-.61.03-1.23-.01-1.84-.02l-.88-2.12c.15-1.8.18-3.6.28-5.4.06-.31-.11-.84-.03-1.12.02-.06.09-.09.14-.1.29-.1,1.02-.22,1.33-.25.09,0,.57-.02.62.01l.26,1.55c0,.06-.03.09-.06.14-.2.28-.61.58-.83.86l-.08.05-.95-.94Z"/>
      <path d="M11.79,3.4h3.57s.07.08.07.08l.37,1.5s-.12.09-.16.12c-.65.35-1.35.62-1.99.98h-.07s-2.22-1.08-2.22-1.08c-.04-.07.03-.28.05-.37.09-.39.23-.77.32-1.16l.05-.07Z"/>
      <path d="M14.49,6.13s.05.06.06.08c.15.36.19.86.35,1.23.06.15.5.65.48.72,0,.02-.03.04-.04.05l-1.79.88-1.76-.88s-.01-.08,0-.12c.06-.16.35-.42.44-.62.09-.18.39-1.27.45-1.31h.1s.8.4.8.4l.91-.44Z"/>
      <polygon points="17.23 20.71 14.12 20.71 14.09 20.65 14.87 18.64 16.21 17.19 16.28 17.25 17.25 20.59 17.23 20.71"/>
      <path d="M9.94,20.71s-.04-.05-.05-.08l.99-3.44c.1,0,.26.26.33.34.35.39.71.76,1.06,1.15l.73,1.94s-.01.09-.03.09h-3.03Z"/>
      <path d="M18.13,4.24l-1.94.64s-.05-.05-.07-.09c-.07-.16-.4-1.23-.41-1.38,0-.04,0-.07.01-.1.06-.09,1.82-.4,2.1-.48.06-.02.12-.02.16-.08l-.39-2.74.13.12,1.53,2.5-1.12,1.61Z"/>
      <path d="M9.56,0l-.45,2.71.04.05c.25.15,2.18.45,2.25.54.02.03.02.07,0,.1-.18.41-.23.96-.4,1.36-.02.05-.04.09-.09.12l-1.85-.63-1.13-1.54c-.03-.09.02-.15.06-.23.4-.81,1.05-1.6,1.47-2.41L9.56,0Z"/>
      <path d="M10.18,10.37c-.16-.14-.34-.26-.52-.39-.08-.06-.33-.19-.37-.23-.03-.03-.04-.04-.03-.09l1.94-1.28,1.97.94.15.12v.88l-.05.05h-3.09Z"/>
      <polygon points="13.8 9.45 15.87 8.39 15.95 8.39 17.87 9.63 17.84 9.75 16.94 10.37 13.8 10.37 13.8 9.45"/>
      <path d="M16.61,6.94s-.04-.06-.05-.1c0-.08.03-.62.06-.64.15-.02.32-.02.47-.01,1.5.05,3.02.05,4.52,0,.15,0,.29,0,.44,0l.03.76h-5.47Z"/>
      <path d="M5.1,6.94v-.68c0-.11.52-.08.62-.08,1.45.03,2.92.08,4.37.03.09,0,.4-.08.46,0,0,.06.04.19.04.23v.45l-.05.05h-5.44Z"/>
      <path d="M20.53,11.37l-.12-.02-2.68-2.08-.14-.17s.09-.05.14-.07c.47-.13,1.08-.15,1.57-.25.03,0,.06.02.09.03.12.05.9.6,1.01.69.03.03.07.06.08.1.07.17.02.86.02,1.1,0,.1.07.61.03.65Z"/>
      <path d="M9.53,9.1l-.06.13c-.59.46-1.21.89-1.8,1.35-.26.2-.68.62-.94.76-.04.02-.06.04-.11.03l.03-1.74.03-.06,1.14-.8,1.71.33Z"/>
      <path d="M9.76,10.74s.04.05.03.08c-.05.12-1.16.6-1.34.73l-.99-.34c-.07-.03-.07-.12-.02-.16.25-.09,1.22-.97,1.38-.99.14-.01.77.59.94.68Z"/>
      <path d="M2.28,6.94H.05c-.12-.21.03-.49-.02-.73.72,0,1.45.01,2.16-.02l.09.74Z"/>
      <path d="M27.11,6.94h-2.18c0-.13,0-.72.11-.76.06-.02.16.03.24.03.54.02,1.22-.06,1.73,0,.04,0,.08,0,.1.05v.68Z"/>
      <path d="M19.02,10.73l-1.88.21.03-.17.87-.99c.28.25.59.48.86.74.06.05.14.11.12.2Z"/>
      <path d="M11.01,5.28l1.02.67c0,.38.08.79.05,1.17,0,.05,0,.1-.05.13l-.55-.42c-.03-.19-.52-1.5-.46-1.56Z"/>
      <path d="M15.08,7.22v-1.26l.96-.68.07.04-.45,1.46c-.04.07-.4.36-.48.4-.04.02-.06.04-.11.03Z"/>
    </g>
  </g>
</svg>