<?xml version="1.0" encoding="UTF-8"?>
<svg id="Layer_2" xmlns="http://www.w3.org/2000/svg" viewBox="0 0 32.77 35.57">
  <defs>
    <style>
      .cls-1 {
        fill: #231f20;
      }
    </style>
  </defs>
  <g id="Layer_1-2" data-name="Layer_1">
    <g>
      <polyline class="cls-1" points="15.07 19.44 15.24 19.42 15.24 19.26 15.06 19.24"/>
      <path d="M16.04,14.27s-.06-.1-.1-.15c-.11-.12-.22-.24-.33-.36-.21-.23-.21-.23-.02-.46.17-.21.39-.31.64-.41.51-.2,1.02-.41,1.52-.61,0-.03-.02-.06-.03-.08-.12.03-.25.06-.37.1-.13.04-.27.07-.4.11-.45.15-.89.3-1.33.47-.19.07-.28.04-.39-.14-.5-.83-1.02-1.65-1.53-2.48-.02-.04-.05-.07-.11-.09.03.06.05.13.09.19.46.82.92,1.63,1.38,2.45.2.36.2.49-.13.74-.81.62-1.64,1.23-2.46,1.84-.1.07-.2.14-.33.24,0-.11-.01-.19-.01-.26.05-1.21.15-2.4.34-3.6.1-.64.24-1.24.66-1.75.07-.08.13-.17.2-.24.25-.26.52-.42.91-.31.56.15,1.13.25,1.68.4.77.21,1.41.66,1.96,1.22.22.22.43.35.75.33.43-.02.87-.02,1.3,0,.61.04,1.15.3,1.65.64.75.51,1.5,1.04,2.24,1.57.11.08.2.21.26.33.22.47.42.94.66,1.4-.16-.52-.31-1.05-.47-1.6.54.06,1.04.17,1.47.48.59.42,1.18.85,1.77,1.28.57.41,1.16.8,1.72,1.24.33.26.61.57.9.88.07.07.08.22.09.33.03.84.05,1.67.32,2.48.17.51.31,1.03.46,1.54.22.79.26,1.58.1,2.39-.11.58-.11,1.18-.22,1.76-.14.79-.34,1.58-.5,2.36-.07.33-.12.66-.19.98-.1.54-.42.88-.93,1.07-.67.25-1.33.53-1.99.79-.1.04-.21.07-.35.06.14-.19.27-.38.42-.56.23-.27.37-.58.41-.92.11-.84.24-1.68.3-2.52.04-.52.33-.87.62-1.24.47-.61.94-1.21,1.41-1.81.01-.01.01-.03,0-.07-.22.27-.44.53-.66.8-.02,0-.04-.01-.06-.02.27-1.59.55-3.18.82-4.76-.02,0-.03,0-.05-.01-.02.08-.05.16-.06.25-.24,1.18-.48,2.36-.72,3.54-.06.29-.08.6-.15.89-.1.44-.31.83-.62,1.17-.16.18-.3.37-.45.55-.75-1.16-1.37-2.35-1.53-3.74-.08-.69-.21-1.37-.33-2.06-.03-.19,0-.33.18-.43.61-.37,1.21-.76,1.83-1.11.18-.1.43-.08.61-.12-.23-.09-.48-.21-.79-.02-.58.36-1.18.69-1.76,1.05-.25.16-.51.19-.79.15-.99-.11-1.94-.38-2.9-.6-.23-.05-.4-.17-.54-.35-.4-.52-.81-1.03-1.24-1.56.09-.05.17-.1.26-.14,1.05-.51,2.11-1.02,3.16-1.53.3-.15.33-.14.57.08.52.48,1.03.95,1.55,1.42.03.03.07.05.11.06-.19-.2-.38-.4-.57-.6-.28-.29-.55-.58-.84-.85-.14-.14-.32-.25-.49-.35-.58-.32-1.17-.63-1.75-.94-.73-.39-1.47-.79-2.2-1.18-.03-.02-.05-.03-.1-.06.32-.21.63-.41.93-.61,0-.02-.02-.03-.03-.05-.29.14-.59.28-.88.42-1.48.74-2.99,1.45-4.43,2.25-.85.47-1.77.62-2.68.84-.44.11-.89.18-1.33.23-.39.05-.46-.12-.37-.49.1-.41.38-.62.69-.83.9-.61,1.8-1.23,2.69-1.85.13-.09.22-.09.33.03.16.19.34.37.51.56.02-.02.04-.03.06-.05Z"/>
      <path d="M20.56,24.4c-.69-.27-4.62-.77-5.19-.65.43.06.87.13,1.34.2-.06.05-.09.09-.13.12-.52.35-1.05.69-1.58,1.04-.07.04-.16.08-.24.08-.44,0-.88,0-1.32,0-.3,0-.51-.16-.58-.42-.11-.39-.16-.8-.24-1.24.58-.03,1.11-.06,1.64-.09-.67-.14-1.34-.11-2.07,0,.3.21.3.49.34.76.05.28.14.56.21.84,0,.04.02.07.03.11-.65.19-.94-.03-1.3-.64-.02-.04-.04-.08-.06-.13-.07-.29-.13-.57-.21-.86-.08-.28-.17-.56-.27-.87.1,0,.17-.02.25-.02,1.19.03,2.39.05,3.58.08.84.02,1.66-.11,2.48-.26.02,0,.04,0,.06-.01.3-.22.51-.03.75.14.48.35.97.69,1.46,1.03.06.04.13.06.2.09,0-.01.02-.03.02-.04-.04-.03-.07-.06-.11-.09-.55-.41-1.11-.81-1.66-1.22-.13-.1-.15-.21-.07-.36.63-1.18,1.25-2.36,1.9-3.53.09-.16.27-.28.44-.37.06-.03.22.02.28.09.28.29.53.6.8.89.29.32.59.63.91.97-.22.58-.47,1.19-.88,1.72-.4.51-.82,1.02-1.23,1.53-.03.04-.05.08-.05.15.15-.17.3-.33.45-.5.41-.48.83-.95,1.22-1.44.18-.23.28-.52.41-.78.09-.19.16-.39.25-.58.02-.05.11-.12.15-.11.24.04.48.11.73.17-.18.76-.36,1.51-.53,2.25-.06.25-.12.51-.18.76-.1.4-.03.79.05,1.19.06.34,0,.66-.19.94-.24.35-.21.67,0,1.02.29.47.55.95.85,1.46-1.87.68-3.71,1.36-5.56,2.03-.03-.04-.06-.07-.09-.11.06-.03.14-.05.19-.09,1.04-.85,2.09-1.69,3.12-2.55.34-.28.72-.51.94-.91.01-.03.03-.05.03-.09-.78.51-1.48,1.12-2.18,1.72-.7.61-1.39,1.23-2.13,1.89.01-.14.02-.22.02-.3.02-.41.05-.81.05-1.22,0-.67.33-1.21.67-1.76.39-.64.77-1.29,1.15-1.94.09-.15.19-.21.37-.18.23.04.47.06.7.09Z"/>
      <path d="M19.44,18.65c-.19.33-.38.64-.56.96-.45.77-.91,1.53-1.35,2.31-.12.22-.28.33-.53.37-1.26.2-2.52.22-3.79.17-.31-.01-.63,0-.94-.03-.28-.02-.33-.07-.39-.35-.27-1.21-.21-2.44-.19-3.66,0-.31.02-.63.02-.94,0-.21.11-.32.32-.36,1.01-.2,2.01-.41,3.02-.62.1-.02.19-.06.29-.06.13,0,.29-.01.39.05.83.48,1.65.97,2.48,1.46.4.24.81.47,1.23.71ZM15.24,19.26c-.06,0-.14-.02-.19-.02,0,.06,0,.14.01.2.05,0,.12,0,.18-.01v-.16Z"/>
      <path d="M7.56,22.02c.22.3.41.56.6.83.16.24.36.4.66.46.41.08.81.2,1.22.3.06.01.11.02.18,0-.27-.1-.55-.19-.82-.29-.37-.14-.77-.23-1.04-.57-.21-.27-.43-.53-.61-.82-.09-.14-.12-.35-.1-.52.05-.49.14-.97.22-1.46,0-.05.03-.09.07-.2.16.15.3.26.41.41.52.72,1.04,1.44,1.55,2.18.18.26.4.37.72.34-.08.4-.16.77-.23,1.14-.01.05-.02.1-.03.15-.05.24-.14.44-.35.61-.97.78-1.92,1.58-2.88,2.37-.09.08-.18.16-.27.25.01.01.02.03.03.04,1.14-.86,2.28-1.73,3.42-2.59.02,0,.04.02.07.03-.03.16-.02.34-.1.47-.95,1.65-1.76,3.37-2.61,5.07-.17.35-.39.68-.6,1.01-.13.19-.17.39-.13.61.05.32.1.63.15.95.03.22-.07.39-.28.46-.25.09-.41.04-.53-.18-.32-.56-.63-1.12-.94-1.68-.09-.17-.09-.33-.04-.51.4-1.29.79-2.58,1.21-3.86.18-.55.13-1.1.18-1.65.03-.29-.02-.6.04-.88.07-.37.2-.73.33-1.08.16-.46.34-.91.52-1.39Z"/>
      <path d="M24.38,16.08c-.14.07-.23.12-.34.16-1.3.53-2.61,1.07-3.91,1.59-.31.12-.56.29-.6.67-.64-.36-1.26-.71-1.88-1.07-.43-.24-.85-.49-1.29-.72-.22-.12-.1-.31-.14-.47-.03-.12.05-.17.15-.22,1.31-.69,2.62-1.38,3.92-2.07.1-.05.17-.05.27,0,1.16.63,2.32,1.26,3.49,1.9.1.06.19.13.33.22Z"/>
      <path d="M26.32,34.95c.61-.16.63-.19.63-.76,0-.25,0-.5,0-.75,0-.34-.09-.43-.44-.43-.07,0-.13,0-.2,0-.22,0-.31-.08-.23-.28.1-.26.24-.52.42-.75.28-.36.69-.54,1.1-.7.68-.27,1.36-.55,2.04-.83.3-.12.31-.11.5.16.38.55.44,1.14.36,1.78-.06.43-.05.86-.03,1.3.05.98-.59,1.71-1.57,1.76-.39.02-.77.09-1.15.12-.17.01-.37.02-.52-.05-.3-.15-.58-.35-.91-.56Z"/>
      <path d="M11.57,16.62c-.29,1.95-.29,3.84.06,5.77-.18.02-.35.04-.52.07-.5.09-.85-.06-1.14-.51-.45-.7-.95-1.36-1.46-2.03-.12-.15-.3-.27-.48-.36-.51-.26-.56-.97-.2-1.4.48-.57,1.08-.84,1.77-1.01.55-.13,1.08-.31,1.62-.47.1-.03.21-.05.36-.08Z"/>
      <path d="M8.35,33.45v1.3c-.07,0-.14,0-.21,0-2.61,0-5.22,0-7.83,0-.28,0-.31-.03-.31-.3,0-.24,0-.49,0-.73,0-.18.08-.25.24-.26.04,0,.08,0,.12,0,2.6,0,5.21,0,7.81,0h.18Z"/>
      <path d="M26.66,33.33v1.25c-.1,0-.19.02-.29.02-2.55,0-5.11,0-7.66,0-.07,0-.16.02-.21-.01-.07-.03-.16-.11-.16-.17-.02-.29-.01-.58-.01-.87,0-.14.07-.22.21-.23.07,0,.13,0,.2,0,2.57,0,5.15,0,7.72,0,.06,0,.13,0,.2,0Z"/>
      <path d="M12.06,6.39c.04.05.08.08.1.13.27.49.55.98.8,1.49.07.14.1.34.07.49-.3,1.43-.61,2.86-.92,4.28-.05.24-.11.48-.16.72-.02,0-.03,0-.05,0-.03-.05-.06-.11-.09-.16-.53-1.15-.92-2.35-1.29-3.56-.06-.2.02-.38.1-.54.45-.92.91-1.83,1.37-2.74.01-.03.03-.05.06-.1Z"/>
      <path d="M8.14,7.32c.02-.08.04-.15.07-.21.25-.68.5-1.35.76-2.02.09-.25.15-.27.39-.16.71.32,1.42.64,2.13.96.23.11.24.13.13.35-.48.97-.96,1.94-1.44,2.91-.12.24-.13.24-.37.11-.18-.09-.37-.18-.53-.29-.12-.08-.23-.17-.31-.29-.25-.37-.49-.76-.73-1.14-.04-.07-.07-.14-.1-.21Z"/>
      <path d="M8.74,16.68c-.19-.03-.39-.05-.59-.08-.04-.66-.1-1.31.37-1.87.3-.37.56-.77.86-1.18.12.16.22.29.32.43.24.35.48.7.71,1.05.09.13.17.08.26.02.38-.25.77-.5,1.15-.75.04-.03.09-.05.17-.1,0,.52.05,1.01-.02,1.48-.05.32-.33.54-.67.65-.8.25-1.59.51-2.4.76-.28.08-.49.23-.67.45-.15.2-.32.37-.5.58.08-.45.16-.85.23-1.27.02-.11.07-.14.17-.14.19,0,.39,0,.58,0,0-.01,0-.03,0-.04Z"/>
      <path d="M12.17,5.48c.08-.3.16-.6.24-.9.19-.67.38-1.35.58-2.02.03-.1.09-.22.18-.27.46-.28.92-.55,1.39-.82.03-.02.07-.02.14-.05-.06.21-.1.39-.16.57-.25.83-.51,1.67-.77,2.5-.03.09-.09.2-.17.25-.45.27-.91.53-1.37.79l-.06-.05Z"/>
      <path d="M10.57,12.03s-.07.12-.14.15c-.34.18-.68.34-1.02.52-.12.06-.22.04-.29-.07-.34-.49-.68-.99-1.02-1.49-.07-.11-.05-.2.07-.26.52-.28,1.05-.56,1.57-.84.12-.07.2-.03.24.09.19.59.38,1.18.57,1.77,0,.02,0,.05.02.12Z"/>
      <path d="M11.76,5.65c-.77-.38-1.52-.75-2.31-1.14,1.04-.62,2.05-1.22,3.06-1.82.02.01.04.02.06.04-.27.97-.53,1.94-.81,2.93Z"/>
      <path d="M6.2,33.26h-2.82c.45-.78.95-1.48,1.77-1.91.35.64.7,1.26,1.06,1.91Z"/>
      <path d="M10.61,12.38c.06.04.15.08.21.15.3.38.6.77.9,1.15.08.11.08.18-.04.25-.3.19-.6.38-.89.58-.12.08-.21.05-.28-.06-.33-.46-.67-.91-1-1.37-.06-.09-.09-.17.03-.22.33-.15.67-.3,1-.45.02,0,.04-.01.08-.03Z"/>
      <path d="M30.64,33.35h2.13c0,.14,0,.27,0,.4,0,.21,0,.42,0,.63,0,.14-.06.21-.19.21-.6,0-1.21,0-1.81,0-.04,0-.12-.07-.12-.11,0-.37,0-.74,0-1.14Z"/>
      <path d="M7.94,15.43c-.03.52-.01,1.06-.09,1.57-.1.62-.27,1.24-.42,1.85-.01.05-.05.09-.08.13-.05-.03-.12-.05-.14-.1-.06-.11-.12-.23-.15-.36-.09-.43-.2-.85-.25-1.28-.05-.42.11-.8.38-1.12.21-.25.45-.48.67-.71.02,0,.05,0,.07.01Z"/>
      <path d="M7.5,5.8c-.1.82-.19,1.65-.29,2.51-.57-.44-1.1-.86-1.66-1.29.65-.43,1.27-.84,1.9-1.25.02,0,.04.02.05.02Z"/>
      <path d="M9.68,9.68c-.49.27-.99.54-1.49.81-.11.06-.18.03-.22-.1-.11-.39-.2-.77-.13-1.18.07-.41.13-.81.24-1.25.21.33.39.69.65.97.27.28.61.49.95.74Z"/>
      <path d="M5.33,7.2c.07.04.14.06.19.11.46.36.91.73,1.37,1.09.13.1.09.17-.02.24-.19.12-.38.23-.57.36-.14.1-.26.08-.39-.02-.44-.35-.88-.71-1.31-1.07-.15-.12-.12-.2.04-.29.17-.1.33-.21.49-.32.06-.04.13-.06.2-.1Z"/>
      <path d="M12.44,0c.69.32,1.39.65,2.12.99-.08.07-.11.12-.16.14-.37.22-.73.43-1.1.65-.13.08-.22.05-.28-.09-.21-.55-.42-1.1-.63-1.65.02-.02.03-.04.05-.06Z"/>
      <path d="M4.7,5.34c.14.36.28.71.42,1.07.18.47.19.42-.24.71-.15.1-.31.19-.46.29l-.06-.02c.09-.68.19-1.35.28-2.03.02,0,.05,0,.07,0Z"/>
      <path d="M7.48,9.49c-.08-.89-.03-1.77.13-2.65.03,0,.05,0,.08,0,.04.3.13.61.11.91-.05.59-.17,1.17-.25,1.76-.02,0-.04,0-.06,0Z"/>
      <path d="M5.24,34.94c-.31.29-1.02.29-1.42,0h1.42Z"/>
      <path class="cls-1" d="M15.24,19.26v.16c-.06,0-.12,0-.18.01,0-.06,0-.14-.01-.2.05,0,.13.02.19.02Z"/>
      <path d="M17.41,29.58c.01-.33.06-.65.06-.98.02-.9.26-1.71.8-2.44.44-.59.82-1.23,1.25-1.87-.74-.1-1.44-.19-2.15-.27-.11-.01-.24.03-.33.09-.55.35-1.1.71-1.64,1.08-.24.16-.5.25-.79.24-.35-.01-.71,0-1.06,0-.07,0-.13,0-.21.01.13.44.26.85.38,1.27.07.25.17.33.42.33.31,0,.61-.03.92-.05.79-.04,1.57-.08,2.36-.12.05,0,.1.01.15.02,0,.02,0,.04,0,.05-1.21.1-2.42.2-3.64.3.15.39.28.74.43,1.12-.06-.04-.08-.04-.09-.06-.05-.06-.09-.13-.13-.2-.46-.73-.75-1.53-1-2.34-.13-.43-.46-.57-.89-.39-.03.38-.01.75.31,1.02.19.17.3.37.36.62.1.46.24.9.5,1.3.04.07.08.15.09.24.04.28.07.57.11.85l3.46.69c.21-.11.33-.25.34-.5Z"/>
      <path d="M3.27,34.74v-1.3c.07,0,.14,0,.21,0,2.61,0,5.22.01,7.83.02.28,0,.31.03.31.3,0,.24,0,.49,0,.73,0,.18-.08.25-.24.26-.04,0-.08,0-.12,0-2.6,0-5.21-.01-7.81-.02h-.18Z"/>
    </g>
  </g>
</svg>