<?xml version="1.0" encoding="UTF-8"?>
<svg id="Layer_2" xmlns="http://www.w3.org/2000/svg" viewBox="0 0 18.13 23.45">
  <g id="Layer_1-2" data-name="Layer_1">
    <g>
      <path d="M0,20.89c0-.77.26-1.44.89-1.91.72-.54,1.61-.55,2.36-.01.84.61,1.22,1.45,1.1,2.49-.07.58-.32,1.08-.76,1.48-.68.62-1.63.69-2.4.18-.68-.45-1.06-1.08-1.17-1.88,0-.04-.02-.08-.02-.11,0-.08,0-.15,0-.23Z"/>
      <path d="M6.82,10.32c.21-.24.42-.49.64-.73.04-.05.13-.07.2-.08.31-.06.61-.11.92-.18.16-.04.29.02.43.07.35.13.7.25,1.03.41.24.12.46.3.69.45.04.02.07.05.1.07.34.24.33.24.38.66.07.56.16,1.12.24,1.68.01.09.02.17.01.27-.72-.52-1.42-1.06-2.23-1.44-.8-.38-1.6-.79-2.41-1.19Z"/>
      <path d="M11.43,13.28c-.34.17-.66.32-.98.48-.23.11-.46.23-.7.34-.15.07-.29.08-.44,0-.56-.28-1.12-.57-1.68-.85-.08-.04-.11-.09-.12-.18-.07-.43-.25-.83-.41-1.24-.12-.33-.24-.66-.37-1-.01-.03-.01-.06-.03-.12.16.05.3.07.44.13,1.4.55,2.72,1.26,3.92,2.17.11.08.22.16.36.26Z"/>
      <path d="M4.17,14.77c-.31-.15-.6-.29-.88-.44-.12-.06-.22-.06-.34,0-.12.06-.25.12-.38.17-.13.05-.15.04-.18-.09-.09-.34-.17-.69-.26-1.03-.07-.26-.14-.52-.2-.78-.01-.06-.01-.14.01-.2.25-.55.51-1.09.77-1.63,0-.02.02-.03.06-.04-.03.12-.05.24-.08.35.01,0,.02,0,.03.01.11-.27.22-.53.33-.82.13.16.24.31.36.46.29.37.58.73.86,1.1.04.05.06.12.06.18-.02.55-.05,1.09-.08,1.64-.02.32-.04.65-.05.97,0,.04-.01.09-.02.15Z"/>
      <path d="M2.23,15.13c.08.06.17.12.25.19.77.62,1.53,1.25,2.3,1.86.16.13.19.3.24.47.09.3.16.6.25.9.02.07,0,.1-.06.14-.32.2-.63.4-.94.6-.17.11-.2.11-.32-.05-.22-.27-.51-.44-.8-.61-.16-.09-.3-.2-.39-.37-.02-.03-.03-.06-.06-.09-.21-.21-.28-.49-.34-.77-.05-.25-.1-.51-.16-.76-.06-.24-.04-.47.05-.69.09-.22.1-.43,0-.65-.02-.05-.03-.11-.05-.16,0,0,.02-.02.03-.03Z"/>
      <path d="M7.19,16.52c.34.05.69.16.98.41.48.41.94.83,1.44,1.22.23.18.4.38.49.66.05.15.12.3.18.45.05.13.04.15-.1.13-.65-.09-1.3-.18-1.96-.26-.36-.05-.72-.06-1.07-.13-.19-.04-.38-.13-.56-.23-.17-.09-.25-.27-.23-.46.02-.26.06-.53.09-.79.03-.27.07-.54.1-.81.01-.1.05-.14.15-.15.15,0,.3-.02.48-.04Z"/>
      <path d="M6.51,11.95c.06.21.11.41.17.62.05.19.1.39.16.58.02.06.06.13.11.16.55.33,1.04.76,1.54,1.16.04.03.08.07.13.1.11.08.11.12.03.23-.29.39-.59.77-.88,1.16-.05.07-.1.13-.2.08-.03-.01-.08,0-.12.01-.24.08-.48.16-.72.24-.1.04-.17.03-.21-.08,0,0,0-.01-.01-.02-.1-.3-.32-.46-.61-.54-.19-.06-.33-.2-.44-.36-.03-.04-.02-.13,0-.18.1-.23.24-.44.32-.68.13-.39.23-.79.34-1.19.11-.39.21-.79.32-1.18.01-.05.04-.09.05-.13h.04Z"/>
      <path d="M4.94,10.9s-.1-.04-.16-.08c-.4-.31-.79-.63-1.19-.94-.07-.06-.1-.12-.06-.2.14-.3.27-.6.42-.9.02-.04.07-.07.12-.08.11-.02.23-.02.33-.05.32-.09.65-.18.96-.29.2-.07.39-.04.58,0,.34.07.67.18.97.36.13.08.15.12.09.26-.2.46-.39.92-.6,1.38-.03.07-.11.14-.18.16-.39.13-.79.25-1.18.37-.02,0-.05,0-.1.01Z"/>
      <path d="M16.37,17.76c.85-.08,1.55.54,1.72,1.31.18.84-.27,1.8-1.24,2.03-.71.17-1.42-.11-1.82-.71-.04-.06-.13-.14-.05-.22.08-.08.15.02.21.05.02.01.05.03.07.04.3.21.58.11.86-.05.19-.11.38-.23.59-.32.24-.1.33-.29.32-.52,0-.08-.05-.17-.1-.25-.07-.1-.1-.19-.08-.3.04-.19-.01-.37-.12-.52-.12-.17-.24-.35-.37-.54Z"/>
      <path d="M11.88,15.39c.1-.08.2-.15.3-.23.01,0,.03.01.04.02-.04.23-.05.47-.12.68-.16.51-.34,1.02-.52,1.53,0,.01-.01.02-.02.04-.17-.25-.34-.5-.34-.82,0-.16-.02-.32-.04-.48-.01-.12.02-.21.12-.28.16-.12.32-.25.47-.39-.21.08-.42.16-.62.24-.09.04-.15.03-.21-.04-.15-.16-.36-.22-.55-.3-.42-.17-.84-.34-1.26-.52-.02,0-.03-.02-.07-.04.23-.1.44-.2.66-.29.43-.19.85-.37,1.28-.57.15-.07.27-.06.41.03.32.21.64.41.96.62.15.1.15.1.03.23-.18.19-.36.37-.53.56h.01Z"/>
      <path d="M15.7,19.26s.07.06.09.1c.03.09.05.18.07.28.02.07-.02.1-.08.11-.24.04-.48.08-.72.11-.44.05-.87.1-1.31.15-.38.04-.75.09-1.13.13-.51.06-1.01.12-1.52.18-.54.06-1.07.12-1.61.19-.58.07-1.15.14-1.73.22-.11.01-.15-.02-.18-.11-.04-.14-.08-.27-.13-.41-.04-.1,0-.14.1-.14.32-.02.64-.05.96-.07.57-.04,1.15-.08,1.72-.13.52-.04,1.03-.08,1.55-.13.51-.05,1.02-.11,1.53-.17.52-.06,1.03-.13,1.55-.2.27-.04.54-.08.85-.12Z"/>
      <path d="M4.99,15.47c-.28-.23-.39-.5-.38-.84.01-.38-.01-.76,0-1.13.02-.41.06-.82.11-1.23,0-.07.05-.15.1-.19.45-.36.9-.72,1.35-1.07.04-.03.09-.06.14-.1.05.23.05.44,0,.64-.09.38-.2.76-.3,1.14-.12.47-.25.93-.36,1.4-.07.31-.23.57-.37.84-.09.18-.2.36-.3.55Z"/>
      <path d="M9.28,8.38c-.06-.06-.1-.09-.12-.13-.57-.91-1.13-1.83-1.7-2.74-.09-.14-.06-.28-.04-.42.05-.35.11-.69.17-1.04,0-.01,0-.03.02-.07.09.08.17.15.25.23.46.45.92.89,1.38,1.34.05.05.1.13.1.2.02.48.04.96.05,1.45,0,.32-.03.64-.05.96,0,.07-.03.14-.06.24Z"/>
      <path d="M13.21,14.22c.43.25.79.56,1.08.97.22.32.42.64.54,1.01.13.4.45.67.74.95.14.14.29.28.43.42.07.07.08.14.02.22-.18.26-.35.52-.53.77-.05.07-.09.05-.13,0-.28-.36-.57-.72-.85-1.08-.31-.38-.62-.76-.94-1.14-.09-.1-.12-.21-.11-.35.03-.35-.03-.68-.1-1.02-.05-.25-.11-.49-.16-.74Z"/>
      <path d="M9.56,5.38s-.07-.06-.1-.09c-.39-.38-.79-.76-1.18-1.14-.15-.14-.3-.29-.45-.43-.06-.06-.06-.1,0-.16.41-.39.82-.79,1.24-1.19.06-.06.12-.05.18.01.34.4.67.81,1.01,1.21.05.06.07.12.05.21-.08.31-.14.63-.22.95-.01.06-.04.12-.08.16-.12.14-.24.27-.36.41-.02.02-.05.04-.08.07Z"/>
      <path d="M5.91,8.05c.12-.12.23-.24.34-.35.2-.22.44-.39.69-.55.13-.08.23-.2.33-.32.1-.13.19-.27.29-.43.04.06.07.11.1.15.27.45.53.9.79,1.34.19.32.47.55.74.79.07.06.2.07.3.08.19.02.38.02.57.03.03,0,.06.02.1.03-.01.03-.02.07-.04.1-.08.1-.16.21-.24.31-.04.06-.09.07-.16.04-.39-.14-.79-.27-1.17-.42-.1-.04-.18-.12-.27-.19-.09.02-.19.05-.3.05-.18.01-.36.03-.53.02-.12,0-.24-.02-.34-.07-.38-.19-.74-.39-1.11-.59-.02-.01-.04-.03-.06-.04Z"/>
      <path d="M10.76,16.05c-.03.3-.05.58-.09.85-.01.07-.07.16-.13.21-.24.18-.5.35-.74.53-.1.07-.16,0-.23-.05-.26-.22-.52-.45-.78-.68-.28-.24-.56-.48-.84-.73-.09-.08-.09-.11,0-.18.33-.23.66-.46,1-.68.05-.04.15-.05.21-.02.5.2.99.41,1.48.61.07.03.12.07.11.14Z"/>
      <path d="M12.39,15.61c.58.4,1.06.9,1.5,1.44.49.61.99,1.21,1.49,1.82.17.2.16.23-.09.29-.07.02-.15.02-.21.05-.18.08-.31-.03-.44-.12-.04-.03-.07-.13-.06-.19.02-.14-.04-.24-.15-.31-.33-.22-.65-.44-.99-.64-.51-.29-.95-.66-1.35-1.08-.06-.06-.08-.12-.05-.2.12-.36.24-.71.37-1.07Z"/>
      <path d="M11.77,12.9c-.11-.66-.2-1.32-.33-1.97-.06-.3,0-.52.24-.71.14-.11.25-.25.37-.38.09-.09.13-.09.22,0,.23.27.44.55.67.82.08.09.07.17.01.27-.34.57-.67,1.14-1.01,1.71-.05.08-.1.17-.15.25-.01,0-.03,0-.04-.01Z"/>
      <path d="M4.79,21.51c.17.02.3.04.44.05.05,0,.11-.02.15-.04.19-.12.38-.25.56-.38.04-.03.08-.11.08-.16,0-.16-.02-.31-.03-.47,0-.05,0-.09,0-.14,0-.12.1-.2.22-.2.22,0,.43.02.65.03.1,0,.18.04.23.13.1.17.21.33.31.5.05.08.04.13-.05.18-.21.1-.38.26-.51.44-.14.2-.34.27-.56.3-.11.01-.23.02-.35.03-.2,0-.39.05-.57.14-.09.04-.17.04-.24-.04-.1-.12-.21-.23-.33-.36Z"/>
      <path d="M4.82,1.4c.09.01.16.02.24.03.31.06.61.12.92.18.05.01.11.05.14.1.38.52.75,1.05,1.12,1.57.03.04.05.09.09.16-.08-.01-.15-.02-.21-.03-.27-.05-.55-.09-.82-.14-.07-.01-.15-.06-.19-.11-.42-.56-.83-1.12-1.25-1.68-.02-.02-.03-.05-.05-.08Z"/>
      <path d="M9.78,6.15c0-.08,0-.17,0-.25,0-.13.02-.15.14-.13.33.05.65.1.98.15.07.01.14.02.21.03.08.01.1.06.08.13-.11.41-.21.81-.32,1.22,0,.03-.08.08-.12.08-.28-.03-.56-.07-.84-.1-.08-.01-.09-.07-.1-.13-.01-.33-.03-.66-.04-.98,0,0,0,0,0,0Z"/>
      <path d="M7.63,3.42c-.39-.57-.78-1.12-1.16-1.67,0-.01.01-.02.02-.04.77.15,1.53.31,2.34.47-.41.42-.79.82-1.2,1.24Z"/>
      <path d="M10.78,8.3c.28.14.55.27.81.39,0,0,.01,0,.02,0,.24.04.32.21.36.42.02.1.04.2.08.3.02.07,0,.12-.05.16-.22.15-.43.3-.65.44-.04.03-.13.03-.18,0-.27-.16-.54-.33-.81-.5-.07-.05-.07-.09,0-.14.13-.11.25-.22.37-.33.07-.06.09-.14.08-.23-.01-.15-.02-.31-.03-.46,0-.02,0-.04,0-.07Z"/>
      <path d="M4.77,16.77c-.78-.63-1.56-1.25-2.37-1.9.13-.07.21-.12.31-.17.44-.2.28-.2.74,0,.37.17.63.41.78.79.13.33.32.63.47.95.05.09.07.2.11.29-.01,0-.03.02-.04.03Z"/>
      <path d="M11.3,17.95c-.09.42-.17.84-.26,1.25-.02.1-.04.2-.08.29-.03.06-.09.09-.14.14-.04-.04-.09-.08-.11-.13-.08-.24-.17-.47-.22-.71-.05-.23-.18-.4-.33-.55-.02-.02-.04-.04-.06-.06q-.17-.17,0-.33c.19-.16.37-.32.55-.49.08-.07.14-.07.2.01.12.14.24.27.36.41.04.04.05.11.08.17Z"/>
      <path d="M13.08,11.3c-.02.23-.03.47-.05.7-.02.33-.06.65-.07.98,0,.31-.13.55-.33.76-.12.12-.22.26-.34.41-.08-.2-.14-.39-.23-.56-.14-.26-.09-.47.06-.7.29-.47.55-.96.83-1.44.03-.05.07-.1.11-.16.01,0,.02.01.03.02Z"/>
      <path d="M4.34,14.91c.06.04.13.08.18.14.29.33.57.67.85,1,.15.19.15.43.2.65.13.59.24,1.18.36,1.76.01.07.03.14.03.2,0,.04-.03.09-.06.11-.03.02-.1.02-.13,0-.05-.06-.1-.13-.12-.2-.16-.59-.3-1.19-.47-1.77-.09-.3-.23-.59-.36-.87-.14-.3-.3-.58-.46-.87-.02-.04-.03-.08-.05-.12,0,0,.02-.01.02-.02Z"/>
      <path d="M6.97,19.89c-.88.01-1.66-.32-2.48-.48,0-.01,0-.03,0-.04.12-.05.24-.1.35-.15.22-.09.43-.18.65-.28.17-.08.33-.05.48.05.19.13.38.26.57.39.19.12.29.31.43.5Z"/>
      <path d="M9.45,8.58c.09-.25.17-.5.26-.74.04-.1.06-.21.11-.3.02-.04.07-.09.11-.08.25.01.51.04.76.06.08,0,.07.06.06.12-.07.24-.14.47-.21.71-.03.1-.05.2-.09.3-.02.04-.09.1-.13.09-.26-.03-.53-.08-.79-.12-.02,0-.04-.02-.07-.03Z"/>
      <path d="M10.37,2.53c.51.13,1,.24,1.51.37-.26.4-.49.78-.75,1.18-.26-.52-.5-1.02-.76-1.55Z"/>
      <path d="M9.84,5.5c.06-.08.09-.14.14-.18.25-.21.35-.49.41-.81.02-.15.07-.29.11-.47.05.08.08.13.11.18.12.22.25.44.36.67.06.12.08.26.11.4.02.09.02.19.03.29,0,.08-.01.12-.1.1-.38-.06-.75-.12-1.16-.18Z"/>
      <path d="M11.98,4.33c-.22-.05-.42-.08-.61-.13-.09-.02-.04-.08-.02-.13.15-.24.3-.49.45-.73.06-.1.12-.2.18-.29.04-.07.09-.11.19-.07.15.05.3.07.45.1.09.02.11.06.06.15-.2.33-.4.67-.61,1-.03.04-.07.08-.11.11Z"/>
      <path d="M16.26,17.9c.06.09.1.17.17.24.3.33.26.71.2,1.1-.02.11-.03.21-.04.32,0,.03-.03.08-.05.08-.03,0-.07-.02-.09-.05-.1-.16-.09-.33-.06-.5.01-.08.03-.15-.04-.21-.08-.06-.15-.04-.23,0-.09.05-.19.1-.29.15-.09.05-.15-.01-.21-.08-.05-.06-.09-.13-.03-.2.22-.28.44-.57.67-.87Z"/>
      <path d="M5.12,20.86c-.18-.05-.33-.16-.43-.32-.17-.28-.28-.57-.39-.88.01-.01.02-.02.03-.03.45.14.89.28,1.36.43-.2.28-.38.53-.57.8Z"/>
      <path d="M5.96,0s0,.07,0,.1c0,.36-.02.72-.03,1.08,0,.15-.02.17-.17.14-.28-.05-.55-.1-.83-.16-.12-.02-.13-.05-.04-.13.33-.32.65-.64.98-.97.02-.02.04-.03.07-.05Z"/>
      <path d="M13.17,15.92c-.1-.08-.2-.16-.29-.23-.11-.09-.22-.18-.33-.27-.08-.07-.12-.14-.09-.25.03-.13.05-.26.08-.38,0-.03,0-.06.03-.08.13-.15.26-.29.42-.47.16.57.21,1.11.23,1.66,0,0-.02.01-.03.02Z"/>
      <path d="M11.76,17.39c.13.2.18.4.16.61-.02.25-.04.49-.07.74,0,.04-.01.08-.04.11-.18.19-.36.38-.57.56.11-.69.21-1.37.52-2.02Z"/>
      <path d="M12.94,10.27c-.05-.05-.07-.07-.09-.1-.21-.31-.43-.61-.64-.92-.08-.12-.1-.25-.1-.41.19.09.37.16.54.25.13.07.16.21.19.34.04.22.07.44.1.66,0,.04,0,.09,0,.17Z"/>
      <path d="M12.09,1.63c.21.41.42.81.63,1.22,0,0-.01.02-.02.03-.14-.03-.28-.06-.42-.09-.04,0-.08-.03-.12-.03-.1-.01-.13-.06-.13-.17.01-.27.01-.53.02-.8,0-.05,0-.1,0-.15.01,0,.02,0,.04,0Z"/>
      <path d="M15.65,20.23c-.08-.02-.15-.04-.23-.07-.03-.01-.07-.05-.07-.08,0-.03.04-.06.08-.07.14-.05.29-.1.44-.15.17-.05.2-.09.16-.27-.01-.07-.03-.14-.05-.21-.03-.09.01-.12.09-.14.09-.02.11.02.12.1.01.13.04.25.06.37.02.09,0,.16-.06.23-.13.2-.31.27-.55.27Z"/>
      <path d="M10.51,3.2c.33.53.55,1.1.72,1.69-.01,0-.02.01-.03.02-.13-.25-.25-.5-.4-.73-.19-.3-.26-.62-.28-.97Z"/>
      <path d="M12.85,13.78c0,.16-.03.31-.14.44-.05.06-.09.13-.15.19-.03.03-.09.04-.12.03-.06-.02-.05-.08-.01-.12.13-.18.26-.37.4-.55,0,0,.02,0,.03.01Z"/>
    </g>
  </g>
</svg>