<?xml version="1.0" encoding="UTF-8"?>
<svg id="Layer_2" xmlns="http://www.w3.org/2000/svg" viewBox="0 0 164.12 158.96">
  <defs>
    <style>
      .cls-1 {
        fill: #fff;
      }
    </style>
  </defs>
  <g id="Layer_1-2" data-name="Layer_1">
    <g id="_x34_83OC0">
      <g>
        <path d="M55.14,41.34c.13-.11.37-.23.37-.34,0-.31-.11-.61-.23-1.14.58.38.98.65,1.38.91.04-.05.08-.1.12-.15-.35-.31-.7-.62-1.1-.97,1.33-.45,2.59-.7,3.85.09-.32-.2-.65-.39-.97-.59,0-.07,0-.14,0-.22,1.36-.2,2.72-.41,4.07-.61.63.38,1.18,1.11,2.05.5-.82.56-1.56,1.37-2.47,1.62-2.61.73-5.29,1.24-7.94,1.83-.19.04-.4,0-.67,0-.04-.45-.09-.88-.15-1.52-.17.71-.14,1.39-.45,1.64-.37.3-1.05.24-1.75.37v2.74c-1.56-.48-1.8-.85-1.62-2.37.35-.1.73-.21,1.11-.32l-.08-.24c-.4.15-.96.19-1.17.48-.23.32-.13.87-.18,1.41-1.51-.24-2.97-.47-4.43-.7-1.52.93-3.08,1.77-4.96.32,0,.13-.01.25-.02.38.76.32,1.52.63,2.33.97-.25.73-.59,1.45-.74,2.21-.15.75-.29,1.59-.1,2.3,1.26,4.69,2.57,9.37,3.97,14.01.54,1.78,1.37,3.48,2.1,5.21.55,1.31,1.56,1.98,3,2.07,1.08.07,2.15.23,3.22.35l.06.28c-1.21.3-2.43.6-3.65.88-.12.03-.31-.04-.41-.12-1.61-1.39-3.42-2.56-4.54-4.47-1.2-2.05-1.53-4.35-2.08-6.58-.45-1.81-.73-3.67-1.09-5.5-.04-.19-.11-.38-.2-.69-1.16,1.29-2.24,2.51-3.34,3.71-1.27,1.38-2.49,2.85-4.46,3.26-1.37.28-2.77.48-4.14.75-2.09.41-4.16.97-6.27,1.22-1.56.18-3.2-.01-4.5-1.06-2.14-1.73-4.24-3.52-6.32-5.32-.31-.26-.48-.73-.61-1.14-.75-2.28-1.48-4.56-2.21-6.85-.2-.62.81-2.56,1.45-2.65.18-.03.5.24.58.45.21.51.3,1.07.49,1.59.09.26.3.47.45.71.38,1.39.77,2.78,1.15,4.16q.9,2.65,1.78,3.22c-1.38-1.29-.63-2.81-.34-4.16.56-2.64.45-5.21-.15-7.8-.05-.21-.11-.54,0-.66,1.45-1.5,1.88-3.44,2.14-5.36.56-4.03,2.65-7.32,4.77-10.61.12-.19.48-.32.72-.31,3.01.14,6.02.3,9.03.49.26.02.55.18.77.35.68.55,1.29,1.21,2.01,1.71,3.41,2.34,5.17,5.91,7,9.4.42.81.95.98,1.68.83,1.55-.33,3.02-.81,4.11-2.09.27-.31.76-.43,1.15-.64.14.42.32.83.41,1.26.07.33.01.69.01,1.13.96-.2,1.83-.37,2.79-.57-.12.64-.21,1.17-.3,1.69.06.01.11.03.17.04.12-.37.26-.73.37-1.1.26-.85,1.17-1.06,1.83-.46.34.3.75.53,1.12.79h0ZM32.46,48.87c-.51-.71-1.02-1.39-1.51-2.1-.56-.81-.67-1.7-.19-2.55.39-.7.44-1.72,1.57-1.81-.98-.02-1.71.82-2.09,2.37-.3,1.2.91,3.43,2.23,4.1ZM32.53,44.68c-.04-.42-.07-.77-.1-1.11-.13.62-.16,1.23-.12,1.84.06.89.39,1.68,1.3,1.97.29.09.7-.18,1.05-.28.02-.08.03-.16.05-.24-1.01.21-1.78.09-2.05-1.03-.32-1.33,1.05-1.19,1.42-2-.48.26-.97.52-1.55.84Z"/>
        <path d="M129.25,21.13c.56,1.45,1.2,2.86,1.65,4.33,1.72,5.58,5.23,10.03,9.01,14.29.79.89,1.4,1.74,1.32,2.98.2-.75.4-1.43-.2-2.15-2.21-2.66-4.38-5.36-6.55-8.04-.16-.2-.29-.43-.5-.72.96-.77,1.93-1.49,2.83-2.27,2.73-2.4,5.45-4.81,8.15-7.25.17-.16.28-.56.21-.79-1.35-4.31-3.13-8.45-5.37-12.38-.27-.48-.6-.97-1.02-1.31-.59-.47-.65-.9-.34-1.56.88-1.91,1.69-3.86,2.58-5.77.11-.23.47-.48.73-.49.6-.01,1.23.04,1.82.2,2.06.57,4.11,1.19,6.15,1.82.34.11.7.33.93.6,2.17,2.54,4.43,5.02,6.42,7.7,1.04,1.4,1.84,3.07,1.79,4.95-.02.49,0,.99,0,1.62.93-.18,1.75-.34,2.57-.5,1.3-.25,2.44.49,2.69,1.75.2,1-.35,2.42-1.91,2.53-.52.03-1.03.28-1.55.29-.79.02-.78.45-.73,1.04.23,2.89.45,5.78.62,8.68.03.42-.1.88-.27,1.27-.7,1.58-1.44,3.14-2.17,4.71-.46.99-1.1,1.85-2.11,2.27-2.96,1.24-5.94,2.44-8.93,3.61-.42.16-.93.08-1.39.14-.73.09-1.54-.1-2.1.62-.09.12-.38.09-.59.1-1.72.14-3.44.27-5.16.42-.2.02-.49.01-.59.14-.76.94-1.25.29-1.73-.28-2.29-2.7-4.6-5.4-6.84-8.14-.39-.48-.55-1.15-.79-1.75-1.07-2.66-2.12-5.33-3.22-7.98-.24-.57-.2-.88.33-1.2.8-.49,1.59-1.01,2.32-1.59.68-.55,1.28-1.21,1.98-1.88Z"/>
        <path d="M97.64,92.82c-.26.27-.53.54-.79.81-.62.77-1.24,1.54-1.87,2.31-.13-.18-.32-.34-.36-.53-.12-.52-.17-1.06-.41-1.57.06.76.09,1.53.2,2.29.14,1.02.08,1.87-.62,2.79-1.16,1.5-2.03,3.2-3.08,4.78-.21.32-.64.58-1.02.69-.35.1-.76-.04-1.16-.07.02.04.09.23.2.51-.93.45-1.87.9-2.97,1.44.22-.94.44-1.73.59-2.53.2-1.1,1.39-.76,2.04-1.44-.93.04-1.26-.53-1.52-1.17.19-.35.41-.68.56-1.04.59-1.45.98-3.03,2.64-3.71.02,0,.01-.08.02-.15-.1.03-.18.05-.25.08-2.16.89-2.37,2.98-2.95,4.84-.31-.22-.63-.44-.94-.66-.15-.17-.29-.34-.44-.51.02-.29-.05-.61.07-.85.69-1.42,1.36-2.9,2.78-3.75,1.93-1.15,3.92-2.21,5.91-3.24.41-.21.98-.08,1.46-.19,2.77-.65,5.36-.02,7.98.85,2.26.75,4.61,1.26,6.98,1.78-.36-.16-.71-.36-1.09-.47-3.15-.9-6.29-1.83-9.46-2.62-.9-.22-1.9-.03-3.08-.03.86-.89,1.6-1.64,2.33-2.39.46-.49.91-.97,1.37-1.46.07-1.09.2-2.19.19-3.28,0-.78-.17-1.57-.28-2.35-.1-.74.35-1.03,1.08-.9,1.98.35,3.17,1.48,3.76,3.37.24.77.69,1.48,1.17,2.46-1.79-.77-3.37-1.45-4.95-2.13-.03.07-.06.13-.09.2,1.75.79,3.5,1.58,5.53,2.5-2.11,1.05-3.21,2.5-2.58,4.94.1-.52.22-.89.24-1.27.08-1.76.49-2.36,2.34-3.21.59,1.26,1.23,2.5,1.77,3.79.35.83.91,1.16,1.74,1.48,1.45.56,2.82,1.39,4.15,2.21,1.39.86,2.72,1.83,4.05,2.8,1.39,1.01,2.42,2.29,2.74,4.03.23,1.24.71,2.47.68,3.7-.03,1.7-.4,3.4-.69,5.1-.31,1.85-1.12,3.41-2.61,4.63-1.4,1.15-2.65,2.48-4.03,3.67-.88.76-1.87,1.4-2.82,2.1-.74-1.41-.65-2,.37-3.06.45-.46.87-.96,1.3-1.44-.08-.08-.17-.15-.25-.23-.65.73-1.3,1.45-2.02,2.25-.51-1.93-.99-3.7-1.43-5.48-.05-.2.09-.44.15-.66.04-.16.18-.42.13-.47-.73-.71-.21-1.45-.02-2.13.96-3.51,1.75-7.05,1.46-10.73-.01-.14-.02-.28-.02-.41-.07,0-.14,0-.21,0v3.77c-.06,0-.11,0-.17,0-.51-.91-.96-1.86-1.54-2.73-1.11-1.66-2.27-3.29-4.17-4.17-.13-.06-.27-.08-.41-.11l.02.03c-.35-.24-.69-.51-1.06-.72-1.78-1.01-3.56-2.01-5.35-2.98-.09-.05-.32.17-.48.26-.28.14-.56.28-.83.43Z"/>
        <path d="M76.13,99.66c2.74,1.01,5.44,2.2,8.58,1.54,0,.86-.07,1.7.01,2.53.15,1.54.3,3.09.63,4.6.15.7.69,1.32,1.08,1.96.45.77.93,1.53,1.38,2.29.31.52.56,1.09.92,1.58,2.17,2.94,4.37,5.87,6.56,8.8.08.11.13.25.24.48-2.16.45-4.17,1.22-6.4.65-3.94-1.01-7.9-1.9-11.86-2.84-.79-.19-1.59-.36-2.23-.51-.16-2.4-.31-4.75-.47-7.1-.01-.19-.13-.37-.19-.56-.7-2.05-1.4-4.09-2.1-6.14.01-.29.06-.58.02-.87-.38-2.71-.8-5.42-1.15-8.14-.15-1.16-.16-2.33-.24-3.5.99,1.02,1.96,2.06,2.97,3.07.74.74,1.51,1.44,2.26,2.16Z"/>
        <path d="M68.74,44.47c.48.23.95.57,1.46.65.51.08.73.28.82.73.21,1.05.13,1.99-.32,3.04-.86,2.01-2.27,3.49-3.84,4.9-.65.59-1.24,1.24-1.86,1.86-2.48,2.06-4.92,4.72-5.03,4.96,1.72-1.61,3.44-3.22,5.16-4.83,1.23-1.16,2.46-2.31,3.69-3.47.05.02.09.05.14.07-.1.31-.15.65-.3.93-1.06,2.09-1.06,4.23-.55,6.49.33,1.46.33,3.01.38,4.52.06,1.84.01,3.68.01,5.74-1.68-.19-3.14-.36-4.61-.53-.43-.05-.87-.11-1.31-.1-2.39.04-3.11-.52-3.58-2.89-.43-2.2-.86-4.41-1.27-6.62-.36-1.94-.67-3.89-1.02-5.84-.02-.11-.17-.19-.18-.29-.05-.42-.26-1.01-.07-1.24.82-.97,1.67-1.98,2.7-2.69,1.65-1.14,3.46-2.06,5.2-3.08.55-.26,1.1-.52,1.65-.78l-.07-.31c-.96.05-1.93.09-2.89.14,0,.08,0,.15,0,.23h2.06c-.36.29-.59.47-.81.65-2.12,1.17-4.26,2.32-6.36,3.54-.43.25-.81.71-1.06,1.16-.69,1.28-1.85,1.47-3.32,1.52.42-1.17.79-2.28,1.23-3.37.09-.23.43-.36.68-.51.62-.37,1.24-.73,1.86-1.09.9-.43,1.81-.86,2.71-1.3,2.38-.19,3.67-2.06,5.26-3.45.48-.42.93-.87,1.33-1.25.72.87,1.42,1.71,2.13,2.55l-.03-.03Z"/>
        <path d="M53.85,94.48c.96,0,1.93.03,2.89-.03,1.18-.08,2.26-.46,3.19-1.21-1.19-1.22-2.33-2.38-3.46-3.56-.16-.17-.25-.41-.37-.62.21-.08.42-.22.62-.22,3.19-.01,6.37,0,9.6,0,.47,2.6.9,4.98,1.33,7.35.28,1.55.55,3.1.86,4.65.13.66.06,1.25-.33,1.83-.73,1.09-1.41,2.21-2.11,3.33-.1.17-.15.37-.23.55-.23.21-.47.42-.7.63-.02.02-.05.04-.07.06-1.47,1.62-3.3.82-5,.69-2.86-.21-5.7-.53-8.56-.81-.17-.02-.35-.05-.52-.05-.9-.02-1.44-.41-1.56-1.36-.22-1.79-.5-3.58-.74-5.37-.06-.46.02-.84.64-.75,3.29.48,6.58.97,9.92,1.46-.05.23-.1.44-.15.65.53,0,2.47-5.34,2.61-7.3-.42,1.32-.85,2.65-1.27,3.97-.78,2.46-.78,2.45-3.35,2.07-2.68-.4-5.37-.77-8.16-1.17.57-.61,1.07-1.16,1.57-1.7,1.12-1.03,2.23-2.06,3.35-3.09ZM57.3,105.04c.05.03.11.05.16.08.47-.93.94-1.86,1.42-2.79-.07-.03-.14-.07-.2-.1-.46.94-.92,1.87-1.37,2.81Z"/>
        <path d="M110.98,142.99h-2.01c.93.19,1.81.39,2.7.54.15.03.36-.12.5-.23,1.4-1.1,2.8-2.21,4.25-3.37.95,1.45,1.72,2.83,1.7,4.61-.01.84.64,1.66.77,2.52.19,1.23.21,2.49.23,3.74,0,.22.18.88-.55.65-.05-.02-.26.35-.35.56-.49,1.1-.96,2.2-1.44,3.3-.11.25-.26.49-.48.9-.24-.37-.4-.59-.53-.83-1.51-2.85-3.02-5.69-4.5-8.55-.3-.59-.7-.87-1.36-.9-.97-.04-1.94-.16-2.96-.25.12.1.23.27.38.3.48.09,1,.26,1.46.17,1.46-.27,2.12.46,2.71,1.68,1.28,2.63,2.7,5.19,4.09,7.76.13.25.46.59.64.56.27-.04.58-.33.72-.6.47-.94.86-1.92,1.29-2.88.12-.27.28-.53.55-.75-.2,1.6.19,3.36-1.31,4.57-.7.57-1.4,1.16-2.15,1.66-1.12.74-2.43.85-3.72.82-2.61-.07-5.21-.17-7.81-.36-1.94-.15-2.11-.47-1.71-2.35.3-1.42.9-2.65,1.77-3.85,1.11-1.52,1.9-3.28,2.75-4.98.22-.44.2-1.03.18-1.54-.11-2.22-.28-4.44-.39-6.66-.01-.3.18-.61.29-.98-.06-.07-.37-.26-.47-.53-1.36-3.87-3.58-7.3-5.58-10.84-.08-.15-.16-.3-.24-.45.07-.07.13-.13.2-.2.54.51,1.22.95,1.61,1.56,1.06,1.68,1.99,3.44,2.98,5.17,1.11,1.93,2.04,4,3.42,5.72,1.05,1.32,1.7,2.73,2.4,4.32ZM113.39,144.1c1.57.57,2.96,1.67,4.7,1.69-.69-.31-1.41-.54-2.11-.81-.84-.31-1.68-.65-2.51-.98-.41-.11-.87-.41-1.22-.31-1.54.43-3.06.98-4.58,1.48,1.3-.2,2.53-.61,3.79-.91.62-.15,1.28-.11,1.93-.16Z"/>
        <path d="M58.45,138.48c-.14-.04-.35-.09-.55-.15.39-3.02,1.27-3.53,3.52-1.99-.77.3-1.49.58-2.22.86.02.06.04.12.06.18.55-.18,1.11-.32,1.64-.55.69-.3,1.26-.28,1.82.28.78.78,1.6,1.54,2.41,2.28.12.11.35.19.51.18,1.22-.11,2.43-.32,3.64-.34.62-.01.9-.2,1.08-.74.22-.64.48-1.25.73-1.88.24-.62.48-1.24.71-1.85,1.4.41,2.29,1.08,2.42,2.65.1,1.21.5,2.4.9,3.56.19.55.67,1.01,1.01,1.51.23.34.44.69.65,1.05.34.6.25,1.03-.36,1.48-1.15.85-2.4,1.23-3.82,1.3-3.07.15-6.14.37-9.21.57-.34.02-.73.03-1.02.19-2.08,1.09-4.27,1.67-6.64,1.7-2.05.02-4.09.34-6.14.34-1.6,0-3.02-.7-4.16-1.87-.12-.12-.25-.42-.2-.5.52-.7.84-1.59,1.88-1.8.62-.12,1.18-.51,1.79-.7,1.02-.32,2.05-.58,3.08-.88.19-.05.4-.1.54-.22,1.52-1.28,3.01-2.6,4.54-3.86.41-.33.93-.53,1.37-.77ZM64.43,145.89c.92-.29,1.59-.5,2.37-.75-.58-1.84-1.13-3.59-1.68-5.35-.08.03-.17.05-.25.08.5,1.65,1,3.3,1.48,4.89-.65.38-1.17.69-1.92,1.13Z"/>
        <path d="M105.72,74.79c-7.41-1.85-14.76-3.68-21.99-5.49,2.27-4,6.19-6.46,9.66-9.14,1.28.48,2.49.89,3.67,1.38.97.4,2.02.74,2.83,1.36,2.17,1.68,4.49,3.07,6.96,4.25.5.24.65.45.48,1.06-.5,1.8-.87,3.64-1.29,5.46-.07.31-.17.61-.31,1.12Z"/>
        <path d="M83.38,92.68c-.36-.35-.34-.69-.11-1.15,1.14-2.21,2.36-4.38,3.3-6.68.56-1.38.66-2.95.94-4.45.39-2.15.75-4.3,1.13-6.46-.09-.02-.17-.03-.26-.05-.6,3.27-1.2,6.53-1.85,10.07-.65-.93-1.08-1.71-1.66-2.37-1.37-1.57-1.84-3.19-1.02-5.24.66-1.64.95-3.42,1.43-5.21.31.17.54.27.76.4,3.05,1.85,6.1,3.71,9.16,5.54.49.29.54.58.36,1.07-.79,2.11-1.56,4.22-2.3,6.35-.11.31-.12.73,0,1.03.62,1.58,1.3,3.14,1.94,4.71.14.34.22.71.34,1.1-3.16.83-5.79,2.5-8.36,4.3-1.27-.99-2.53-1.97-3.8-2.96Z"/>
        <path d="M135.54,2.2c.35-.56.87-.78,1.51-.9,1.17-.21,2.32-.54,3.64-.86-1.03,2.34-1.99,4.54-2.98,6.79,1.92,1.46,2.69,3.66,3.66,5.7,1.06,2.24,1.88,4.59,2.79,6.89.22.54.42,1.08.71,1.82-.63-.18-1.14-.32-1.65-.46-1.2-.35-2.41-.7-3.61-1.04l-4.27-1.38c-.45-.21-.62-.53-.47-1.03.08-.27.09-.57.13-.86.03-.25.05-.5.09-.96-.54,1.12,0,2.51-1.44,2.94-.23.03-.46.05-.68.08-.98.44-1.96.87-2.93,1.31-.42.19-.83.39-1.39.65.23-3.67,1.01-7.06,2.27-10.36,1.54-2.78,3.08-5.55,4.62-8.33Z"/>
        <path d="M135.54,2.2c-1.54,2.78-3.08,5.55-4.62,8.33-1.04.93-1.15,2.26-1.45,3.49-.57,2.33-1.15,4.65-1.19,7.07,0,.41-.31.97-.65,1.21-1.77,1.25-3.59,2.42-5.39,3.61-.16.11-.36.15-.73.3-.04-.95-.17-1.78-.1-2.61.25-3.12.39-6.26.9-9.34.48-2.92,1.61-5.67,3.33-8.13.07-.1.15-.19.19-.3.68-1.79,2.11-2.57,3.87-2.99,1.96-.46,3.9-1.01,5.96-1.55-.05.4-.08.64-.11.89Z"/>
        <path d="M73.1,27.92c-.26-.11-.6-.15-.78-.34-.98-1.08-1.93-2.2-2.88-3.3-1.33-1.54-1.83-3.45-2.39-5.33-.61-2.04-.55-2.03,1.1-3.37,1.39-1.12,2.76-2.28,4.1-3.46.51-.45.96-.5,1.47-.09,1.96,1.54,3.92,3.08,5.86,4.64.16.13.31.44.28.64-.23,2.07-.45,4.13-.79,6.18-.08.47-.58.88-.88,1.31-1.7,1.04-3.4,2.08-5.09,3.12Z"/>
        <path d="M72.13,66.47c-1.01,1.05-2.01,2.11-3.16,3.32-.03-.42-.06-.68-.06-.94,0-2.31.06-4.62.02-6.94-.01-.83-.19-1.68-.39-2.49-.45-1.78-.54-3.53.19-5.25.85-1.98,1.72-3.96,2.64-6.05,1.56.93,2.94,1.87,4.41,2.6,1.63.81,2.57,1.88,2.52,3.81-.03,1.15.35,2.31.42,3.47.03.46-.17,1.04-.47,1.4-1.82,2.14-3.7,4.23-5.56,6.34-.21.24-.39.51-.58.76,0,0,.03-.03.03-.03Z"/>
        <path d="M97.64,92.82c.28-.14.56-.28.83-.43,1.05.54,2.09,1.09,3.15,1.62,1.24.62,2.49,1.22,3.74,1.82l-.02-.03c.92.78,1.89,1.52,2.74,2.36,1.5,1.49,2.43,3.36,3.27,5.26.12.27.13.64.06.94-.44,2-.93,3.99-1.37,5.98-.16.71-.51,1.09-1.27,1.18-1.58.2-3.16.47-4.9.74.44-2.01.8-3.81,1.25-5.58.06-.26.5-.44.79-.62.5-.3,1.04-.53,1.52-.85.16-.11.17-.42.13-.68-.61.91-2.69,1.89-3.72,1.62-.23-.06-.45-.34-.57-.58-1.56-3.21-3.11-6.42-4.65-9.64-.35-.74-.69-1.49-.97-2.26-.1-.26-.01-.59-.01-.88Z"/>
        <path d="M72.13,66.47s-.03.03-.03.03c.27-.21.58-.37.81-.62,1.92-2.14,3.81-4.3,5.73-6.43.19-.21.61-.41.85-.35,3.48.89,6.95,1.82,10.43,2.75.07.02.14.08.27.16-.81.63-1.64,1.19-2.35,1.86-.89.84-1.86,1.66-2.49,2.69-1.4,2.29-3.34,3.49-5.98,3.74-2.25.21-4.5.55-6.75.81-.27.03-.61-.04-.82-.19-.64-.46-1.23-.98-1.91-1.54.6-.7,1.18-1.34,1.73-2.02.21-.26.34-.59.51-.88Z"/>
        <path d="M78.84,51.77c.33.08.66.22.99.22,2.81-.02,5.62-.1,8.42-.1.42,0,.85.29,1.24.49.23.12.41.35.73.42-.19-.23-.37-.46-.69-.85,2.03.27,3.88.52,5.88.79-.18.71-.31,1.29-.47,1.87-.33,1.12-.71,2.22-1.01,3.35-.39,1.52-1.36,2.57-2.65,3.34-.31.19-.78.29-1.12.2-3.43-.86-6.84-1.79-10.26-2.66-.58-.15-.8-.44-.87-1-.21-1.74-.49-3.47-.67-5.22-.03-.27.31-.58.48-.87h0ZM93.04,55.45s-.08.09-.12.13c-.74-.79-1.48-1.58-2.22-2.37-.05.04-.09.09-.14.13.82.7,1.65,1.41,2.47,2.11Z"/>
        <path d="M119.72,28.5c1.01-.36,1.83-.82,2.31-1.95.24-.58,1.28-.82,2.04-1.26.34.8.66,1.51.94,2.23.96,2.42,1.87,4.86,2.88,7.26.29.68.79,1.28,1.27,1.87,1.56,1.9,3.14,3.78,4.73,5.66.64.76,1.32,1.48,2.08,2.33-.36.05-.63.12-.9.12-1.64,0-3.28.05-4.92-.03-.56-.03-1.22-.26-1.62-.63-1.56-1.42-3.11-2.86-4.5-4.44-.77-.88-1.28-2.01-1.77-3.09-.64-1.41-1.21-2.86-1.7-4.33-.31-.93-.42-1.94-.62-2.91-.05-.24-.12-.48-.21-.82Z"/>
        <path d="M52.18,68.72c.67.86,1.35,1.73,2.06,2.64-1.61-.22-3.22-.36-4.78-.68-.94-.2-1.44-1.03-1.79-1.9-.5-1.27-.92-2.59-1.53-3.81-.45-.89.36-1.24.53-1.85.21-.19.42-.37.63-.56.82-.59,1.64-1.19,2.31-1.67.03-.59-.04-1.16.09-1.68.3-1.12.7-2.21,1.12-3.52.53.98,1.53,1.45,1.33,2.67.44-.31.83-.59,1.05-.75,1.41.86,2.71,1.66,4.01,2.45,0,0-.01,0-.01,0,.12.11.32.2.34.33.5,2.5.97,5.01,1.44,7.51.02.09-.09.21-.14.31,0,0,.02-.02.02-.02-.02.56-.04,1.13-.06,1.69-.01.34-.03.67-.05,1.09-.35-.08-.61-.14-.88-.2-2.21-1.33-4.42-2.65-6.64-3.98-.27-.21-.54-.42-1.01-.78,2.23.34,4.21.64,6.19.94.01-.1.03-.21.04-.31-2.31-.33-4.63-.67-6.94-1-.09.14-.17.29-.26.43.98.89,1.96,1.78,2.95,2.67l-.03-.02ZM52.28,59.31c-.07.05-.14.09-.22.14,1.2,2.27,2.4,4.54,3.6,6.81.07-.04.14-.08.22-.11-1.2-2.28-2.4-4.55-3.6-6.83Z"/>
        <path d="M111.16,124.31c-.59.37-1.17.73-1.92,1.2.85.46,1.57.85,2.36,1.28-1.75,1.15-3.62,1.75-5.54,2.27-2.28.61-1.99.17-1.88-1.66.11-1.76.12-1.75,1.03-2.68-.22-.19-.44-.38-.5-.44-.15.37-.29.71-.42,1.05-.13.34-.31.67-.35,1.02-.09.65-.09,1.31-.14,2.02-.87-.82-1.85-1.43-2.39-2.31-.91-1.5-1.68-3.1-.86-5.02,1.06-2.47,1.94-5.02,2.91-7.53.11-.29.3-.56.45-.84l1.43,1.73c.3.45.56.92.91,1.33.86,1.01,1.75,1.99,2.63,2.99l-.02-.02c.11.26.22.51.33.78-1.46.62-2.9,1.23-4.34,1.83.03.07.06.15.09.22.99-.39,1.96-.82,2.97-1.16.38-.13.82-.05,1.23-.07v-.03c.34.52.68,1.04,1.06,1.54.47.62.98,1.21,1.49,1.84-.2.25-.38.47-.55.68,0,0,.02-.02.02-.02Z"/>
        <path d="M73.1,27.92c1.7-1.04,3.4-2.08,5.09-3.12.38-.17.75-.33,1.39-.62-.21,1.4-.37,2.53-.54,3.66.03,0,.06.01.09.02.58-1.99,1.16-3.97,1.73-5.96.13.01.27.02.4.03.22,1.24.52,2.47.62,3.72.11,1.28-.02,2.58.03,3.86.04.9-.2,1.64-.77,2.34-.51.62-.91,1.34-1.35,2.02,0,0,.02-.02.02-.02-.68.7-1.36,1.4-2.03,2.1-1.3,1.06-2.6,2.12-3.9,3.18-.39.17-.78.35-1.22.54-1.12-2.09-1.65-4.21-1.02-6.56.37-1.41.55-2.87.87-4.29.08-.33.39-.61.59-.91Z"/>
        <path d="M132.98,18.92c.23-.03.46-.05.68-.08.56-.03,1.13-.06,1.69-.09l4.27,1.38c1.47.54,2.94,1.07,4.42,1.61.22.08.43.15.92.31-3.72,3.24-7.31,6.36-11.03,9.6-.3-.65-.52-1.11-.71-1.58-1.16-2.84-2.29-5.7-3.47-8.53-.26-.62-.09-.85.47-1.11.95-.44,1.84-1,2.76-1.51Z"/>
        <path d="M113.93,49.67c.23,1.66.45,3.33.71,5,.65,4.16,1.3,8.32,2.01,12.47.1.57.06.93-.35,1.32-.34.32-.61.7-1.04,1.19-1.23-1.32-2.44-2.56-3.57-3.87-1.06-1.21-2.05-2.48-3.04-3.74-.17-.21-.27-.53-.28-.79-.02-2.67-.01-5.33-.01-7.83,1.78-1.57,3.54-2.84,5.56-3.76Z"/>
        <path d="M100.74,87.57c-.46.49-.92.97-1.37,1.46-.76.63-1.53,1.24-2.27,1.89-.83.72-.92.72-1.32-.28-.68-1.68-1.39-3.35-2.02-5.05-.15-.4-.19-.94-.06-1.34.66-1.97,1.36-3.92,2.11-5.86.2-.52.53-1.05.94-1.42,1.02-.93,2.1-1.78,3.19-2.62.25-.19.66-.32.96-.27,1.58.27,3.15.6,4.83.93-.22.2-.37.33-.53.48.15.08.27.14.48.24-2.84,2.79-5.66,5.54-8.47,8.3.06.09.13.19.19.28h1.64s0-.04.01-.06c-.33-.04-.66-.08-.97-.12.73-.76,1.45-1.5,2.24-2.33.44,1.94.44,3.86.43,5.77Z"/>
        <path d="M93.68,41.65c.27-.05.54-.11.82-.16.03.01.07.03.1.05.08.15.13.34.25.45,1.57,1.45,3.15,2.89,4.73,4.33.07.06.21.06.32.08h-.02c.08.7.6.56,1.05.5,1.98-.26,3.96-.54,6.07-.83-.26.28-.44.48-.62.68l.03-.03c-.16.06-.33.11-.48.2-3.08,1.76-6.17,3.52-9.25,5.29-.14.08-.23.24-.34.36v-.03c-1.63-.2-3.27-.41-4.91-.61-.61-.07-1.22-.11-1.82-.23-.2-.04-.5-.27-.51-.42-.06-1.39-.06-2.79-.06-4.18,0-.04.14-.07.22-.11l3.4,2.23c.06-.1.12-.19.18-.29-1.16-.68-2.32-1.37-3.48-2.05.05-.26.01-.59.16-.75.92-.98,1.88-1.92,2.82-2.88.22-.22.39-.5.58-.75.25-.27.5-.55.75-.82Z"/>
        <path d="M83.09,79.5c.99,1.44,2.05,2.95,3.05,4.49.16.25.11.75-.03,1.04-1.07,2.24-2.17,4.47-3.28,6.69-.28.56-1.69.59-2.09,0-.73-1.06-1.4-2.17-2.15-3.21-1.79-2.5-3.54-5.02-4.62-7.93-.08-.21-.19-.42-.33-.74.47-.07.86-.16,1.25-.17,2.26-.01,4.51,0,6.77,0,.45,0,.89-.11,1.42-.17Z"/>
        <path d="M124.82,65.73c-1.19.31-2.38.62-3.57.95-1.04.29-2.07.61-3.11.91-.65.18-1.14.14-1.22-.72-.1-.99-.29-1.97-.41-2.95-.02-.18.05-.46.17-.54,1.67-1.14,2.39-3.01,3.46-4.59,1-1.47,1.85-3.04,2.85-4.71.19.42.35.71.46,1.02.96,2.64,1.89,5.28,2.9,7.9.3.79-.16,1.25-.54,1.72-.39.49-.52.94-.48,1.58.09,1.27.03,2.56.03,3.91-2.23-.73-4.54-1.48-6.86-2.23,0-.07,0-.13,0-.2,2.13-.59,4.26-1.19,6.39-1.78-.02-.09-.05-.18-.07-.27Z"/>
        <path d="M88.56,46.52c-3.03,1.54-5.93,2.88-8.68,4.47-1.34.77-2.29.72-3.5-.15-1.37-.99-2.91-1.75-4.33-2.67-.27-.18-.5-.64-.5-.96,0-.25.37-.61.65-.72.98-.37,1.99-.66,2.93-1.17-1.14.33-2.29.65-3.47.99-.14-.45-.27-.85-.33-1.05.84-.84,1.59-1.58,2.43-2.42.7.57,1.49,1.17,2.21,1.83.41.38.77.44,1.25.18,1.25-.69,2.51-1.38,3.78-2.03.25-.13.65-.23.85-.12,2.2,1.22,4.37,2.48,6.7,3.82Z"/>
        <path d="M116.28,29.17c.6-.38,1.21-.76,1.81-1.14v-.08c-.89.29-1.77.6-2.67.85-.27.07-.58-.02-.88-.04.63-.75,1.26-1.5,1.89-2.25.54-.31,1.08-.61,1.69-.96-.08-1.44-.32-3.02-.22-4.58.18-2.74.54-5.47.88-8.2.05-.41.34-.8.57-1.18.98-1.63,2.02-3.23,2.95-4.89.49-.87,1.15-1.44,2.06-1.79.7-.27,1.38-.59,2.29-.97-.83,1.37-1.57,2.55-2.27,3.75-1.66,2.86-2.49,5.97-2.7,9.26-.17,2.69-.38,5.38-.54,8.07-.02.36.03.78.2,1.09.42.76.13,1.27-.51,1.6-.69.35-1.45.59-2.22.89.35.16.71.32,1.16.52-.38.33-.67.58-.84.73.35,1.16.68,2.3,1,3.39-.62-.71-1.28-1.46-1.94-2.21-.57-.62-1.15-1.24-1.72-1.85Z"/>
        <path d="M65.15,107.18c.23-.21.47-.42.7-.63.68-.94,1.36-1.88,2.02-2.84.28-.4.5-.85.86-1.48.3,1.42.56,2.6.81,3.79.45,2.17.93,4.34,1.32,6.53.33,1.87.3,3.73-.91,5.36-.05.06-.04.17-.05.26-.14.12-.28.24-.42.37-1.58.11-2.47-1.18-3.73-1.73.12-.2.29-.43.26-.46-1.09-1.13-2.19-2.25-3.3-3.36-.46-.47-.92-.95-1.37-1.42.52-.7,1.05-1.39,1.57-2.09.75-.76,1.5-1.52,2.24-2.29Z"/>
        <path d="M60.06,46.65l-2.71,1.3c-.77.33-1.54.65-2.48,1.05.68-1.06,1.29-2.01,1.78-2.78,2.16-.1,3.96-.96,6.08-1.41-.77-.47-1.39-.85-2.04-1.25,1.44-1.74,2.61-3.65,4.68-4.75h-.66c-.87.62-1.42-.11-2.05-.5.76-.23,1.51-.46,2.31-.7-.35-1.9-2.02-3.2-2.19-5.17-.16-1.88-.28-5.37-.12-5.21.16.41.32.82.49,1.23.25,2.37.86,4.62,2.15,6.67-.5-1.33-1.01-2.65-1.5-3.94,1.48-.18,2.95-.17,4.3-.57,1.35-.39,2.58-1.19,3.94-1.84-.38,2.05-.83,3.99-1.07,5.95-.12.99-.5,1.32-1.42,1.45-1.32.18-2.63.52-4.13.82.44,1.2.85,2.44,1.35,3.63.18.42.19.68-.14.98-1.43,1.34-2.84,2.7-4.29,4.02-.24.22-.63.25-.95.38-.44.19-.87.4-1.31.61Z"/>
        <path d="M63.87,125.95c-.36-.59-.89-.77-1.56-.68-1.47.2-2.95.38-4.59.59.3,1.38.6,2.81.95,4.42-1.71-1.66-3.3-3.16-4.83-4.72-.18-.19-.14-.7-.06-1.03.36-1.44.37-1.46,1.82-1.48,1.69-.02,3.39,0,5.08,0,0-.1,0-.19,0-.29h-6.39c.09-1.35.16-2.56.25-3.87,1.7.38,3.34.75,4.99,1.13.06.01.11.05.17.05,1.03.09,1.92.31,1.72,1.67-.01.09.09.19.26.5-.05-.7-.08-1.15-.12-1.76,1.16,0,2.25-.02,3.35.02.16,0,.36.25.45.44.42.92.82,1.86-.38,2.57.3-.19.61-.38,1-.62.99,1.9,1.95,3.75,3,5.76-.41-.12-.68-.19-.94-.26-1.38-.81-2.77-1.62-4.15-2.43Z"/>
        <path d="M94.6,41.53s-.07-.03-.1-.05c.2-.25.39-.51.61-.74.23-.25.49-.47.74-.7,0,0-.02.02-.02.02,1.29-.89,2.58-1.79,3.89-2.64.27-.17.75-.31.99-.18,2.34,1.22,4.76,2.36,6.28,4.65.8,1.2,1.43,2.52,2.06,3.86-2.22-.33-4.24.54-6.29.51-.98-.02-1.92.38-2.89.12h.02c-1.77-1.61-3.53-3.23-5.3-4.85Z"/>
        <path d="M18.07,65.05c-1.36.59-2.7.51-3.91-.32-1.99-1.35-3.93-2.76-5.87-4.18-.26-.19-.46-.55-.56-.87-.79-2.63-1.4-5.32-2.37-7.88-.89-2.34.23-4.44.29-6.66.01-.55.24-1.09.25-1.64.04-2.01.92-3.62,2.17-5.13,1.42-1.71,2.72-3.53,4.11-5.27,1.15-1.43,2.43-2.71,4.52-2.86-.14.18-.22.35-.35.45-1.44,1.03-2.37,2.49-3.37,3.91-1.03,1.46-2.11,2.89-3.09,4.38-.37.57-.66,1.26-.76,1.93-.31,2.17-.79,4.38-.67,6.54.08,1.43-.63,1.93-1.44,2.62-.51.44-1,.89-1.61,1.43,1.14,2.21,2.27,4.42,3.42,6.62.07.14.26.21.4.32.35.42.64.94,1.07,1.24,2.58,1.81,5.19,3.58,7.79,5.36Z"/>
        <path d="M75.74,95.2c.19.02.34.04.58.06-2.12-1.28-2.73-3.56-4.03-5.31-.23-.3-.38-.66-.6-.97-1.68-2.28-2.25-5.03-3.31-7.55,1.05-.25,2-.49,2.97-.68.2-.04.54.05.64.2,1.91,2.91,3.82,5.82,5.68,8.76,1.42,2.25,1.36,4.07-.09,6.32.51.38,1.01.76,1.51,1.14,1.19.9,2.49,1.08,3.9.6.83-.28,1.67-.53,2.51-.77.2-.06.43-.03.87-.05-1.02,1.51-2.57,2.04-3.85,2.11-2.91.17-5.22-1.23-6.78-3.86Z"/>
        <path d="M116.21,63.06c-.81-6.15-1.61-12.31-2.43-18.58.46.18.95.38,1.43.56-.16,1.32.97,1.82,1.62,2.52,1.8,1.96,3.76,3.78,5.62,5.68.16.17.23.65.11.85-1.44,2.38-2.9,4.75-4.4,7.08-.45.7-1.05,1.31-1.58,1.96-.12-.03-.24-.05-.36-.08Z"/>
        <path d="M99.74,121.64c-.69-1.83-1.45-3.64-2.05-5.5-.23-.73-.12-1.57-.16-2.36-.12-1.9-.25-3.8-.33-5.7,0-.19.26-.54.43-.56,2.33-.37,4.68-.7,7.07-1.04-.53,5.38-2.88,10.2-4.96,15.17Z"/>
        <path d="M79.8,33.89c.41-.47.82-.94,1.23-1.42.22-.26.41-.53.76-.98.41,1.82.77,3.4,1.12,4.99.23,1.03.49,2.05.66,3.08.05.31-.04.77-.25.98-1.72,1.67-3.74,2.88-5.89,3.91-.56.27-.97.21-1.41-.21-.49-.46-1.03-.87-1.57-1.27-.47-.34-.53-.66-.17-1.16,1.69-2.32,3.35-4.65,5.01-6.99.21-.3.36-.64.54-.96,0,0-.02.02-.02.02Z"/>
        <path d="M116.28,29.17c.57.62,1.15,1.24,1.72,1.85.59.86,1.23,1.69,1.75,2.6.92,1.63,1.76,3.32,2.63,4.98-.08.05-.15.11-.23.16l-.42-.17v-.09c-.57-.63-1.16-1.23-1.69-1.88-.45-.55-.83-1.15-1.36-1.91h.89l.02-.14c-.42-.14-.84-.29-1.43-.48.18.5.29.81.44,1.22-.34.03-.58.04-.72.05-.4.83-.78,1.64-1.16,2.43,1.94.49,3.91,1,5.88,1.5.02.14.03.28.05.43-1.72.8-3.43,1.61-5.22,2.44-.85-2.22-2.13-4.17-2.07-5.53.2,1.37-1.12,3.34-1.86,5.48.16-2.14.26-4.28.5-6.41.22-1.9.18-3.73-.69-5.57,1-.49,1.83-1.16,2.98-.96Z"/>
        <path d="M87.19,40.02c-1,.73-2.02.08-3.02.04-.09,0-.21-.2-.24-.33-.59-2.73-1.16-5.46-1.74-8.19.06-.08.12-.17.18-.25,1.79.62,3.58,1.23,5.27,1.82-.23-.15-.57-.38-1.04-.7,1.55-.28,2.96-.53,4.52-.81-.29,1.01-.55,1.89-.84,2.88-.45-.39-.87-.75-1.3-1.11.71,1.59,2.5,1.81,3.57,2.9-1.97,1-3.73,2.32-5.39,3.78l.03-.03Z"/>
        <path d="M96.5,115.09c0,.17.02.34.04.63-1.37-.2-2.72-.4-4.07-.61-.52-.08-1.04-.26-1.56-.25-1.51.01-2.28-1.01-2.66-2.17-.38-1.14-.96-2.08-1.72-2.95-.37-.41-.65-.78-.25-1.36.14-.2.02-.58-.17-.89v1.08c-.84-.98-.69-1.85.29-2.32,1.03-.49,2.06-.96,3.14-1.46.82,1.34,1.58,2.65,2.4,3.91,1.15,1.76,2.35,3.49,3.55,5.22.17.25.44.45.66.67.11.17.23.33.34.5Z"/>
        <path d="M96.5,115.09c-.11-.17-.23-.33-.34-.5-1.42-2.15-2.85-4.28-4.24-6.44-.67-1.05-1.24-2.17-1.76-3.07,1.51-2.34,2.93-4.53,4.34-6.72.07.02.13.04.2.05.31,1.76.56,3.54.95,5.29.29,1.29.82,2.53,1.14,3.82.18.76.15,1.57.21,2.35.13,1.78.26,3.56.38,5.34.01.18-.06.37-.11.69-.32-.34-.54-.58-.77-.83Z"/>
        <path d="M108.1,61.15c-1.39-2.09-2.65-3.95-3.86-5.84-.15-.24-.09-.66-.02-.98.61-2.74,1.81-5.23,3.26-7.61.13-.22.21-.47.4-.93.6.37,1.14.75,1.72,1.07.83.46,1.67.91,2.54,1.29.57.25,1.2.36,1.81.53.02.1.05.19.07.29-1.93,1.32-3.87,2.63-5.91,4.03v8.15Z"/>
        <path d="M18.07,65.05c-2.6-1.78-5.21-3.54-7.79-5.36-.43-.3-.72-.82-1.07-1.24-1.02-2.04-2.02-4.09-3.07-6.11-.27-.51-.25-.83.21-1.19.91-.71,1.78-1.48,2.82-2.35.43,1.32.79,2.42,1.15,3.51.28.86.64,1.71.84,2.58.45,1.97,1.32,3.61,3.01,4.84,1.51,1.1,2.85,2.44,4.35,3.56.77.58,1.73.92,2.65,1.4-1.01.11-2.05.23-3.09.35Z"/>
        <path d="M63.12,28.47c-.16-.41-.32-.82-.49-1.23-.13-2.1-.27-4.2-.39-6.3-.02-.4,0-.81,0-1.16-1.32,0-2.56.04-3.8-.02-.39-.02-.86-.19-1.13-.46-.9-.88-1.73-1.83-2.56-2.77-.24-.27-.38-.63-.67-1.15,1.39-.18,2.62-.36,3.85-.47.16-.02.38.24.53.41,1.01,1.14,2.01,2.29,3.01,3.44.19.21.36.44.66.63-.28-1.36.78-1.9,1.43-2.65.95-1.09,1.94-2.15,3.03-3.13-.33,1.14-.79,2.26-.97,3.42-.25,1.58-.35,3.2-.43,4.8-.06,1.31-.34,2.53-.9,3.71-.45.95-.77,1.95-1.15,2.93Z"/>
        <path d="M101.31,61.35c-1.22-.71-2.44-1.42-3.66-2.14-.07-.04-.13-.09-.43-.28,1.32.13,2.4.27,3.47.34,1.78.11,3.56.17,5.34.29.29.02.7.18.84.4,2.18,3.45,4.84,6.52,7.65,9.45.06.06.1.13.16.21-1.46-.1-9.05-3.41-10.91-4.76.12-.18.25-.37.37-.55.16-.08.32-.16.48-.23.24-.16.48-.33.84-.57-1.5-.78-2.85-1.48-4.19-2.18l.03.02Z"/>
        <path d="M14.06,54.17c-.38-1.39-.77-2.78-1.15-4.16-.22-.82-.44-1.64-.67-2.45-.24-.83-.82-.98-1.43-.38-.25.24-.45.54-.65.82-.18.25-.35.52-.52.77-.79-.27-.98-.77-.88-1.51.27-2.12.42-4.26.77-6.36.14-.83.6-1.65,1.08-2.36,1.3-1.91,2.62-3.82,4.07-5.62.89-1.11,1.98-2.08,3.08-2.98.45-.37,1.18-.4,1.84-.49-2.6,2.57-4.37,5.72-6.43,8.66-.59.85-.86,1.73-.91,2.77-.15,3.65.65,7.14,1.6,10.62.26.94.46,1.9.72,2.97-.26-.15-.38-.22-.5-.29Z"/>
        <path d="M46.82,112.43c2.78.17,5.56.28,8.32.56.6.06,1.19.66,1.71,1.1.66.56,1.25,1.21,1.87,1.82l-.02-.03c.74.71,1.48,1.42,2.23,2.13.19.19.38.38.56.56.36.51.71,1.02,1.22,1.76-1.55-.3-2.88-.57-4.21-.83-.23-.05-.45-.13-.68-.15-2.32-.28-4.15-1.39-5.85-2.99-1.56-1.47-3.42-2.63-5.15-3.93,0,0,0,0,0,0Z"/>
        <path d="M81.42,77.69c-1.31-1.11-2.61-2.22-3.93-3.32-1.13-.94-2.27-1.87-3.51-2.89,2.13-.34,4.11-.62,6.08-.97.88-.16,1.73-.55,2.61-.67.41-.06.89.24,1.32.41.8.32,1.09.76.79,1.73-.69,2.19-1.21,4.44-1.81,6.74-.54-.36-1.05-.7-1.56-1.04l.02.02Z"/>
        <path d="M47.3,110.53c-.39.5-.77,1-1.15,1.5.78,2.45,1.56,4.91,2.33,7.36-2.48-2.4-4.97-4.78-6.9-7.65,0,0,0,0,0,0,.08-.38.23-.77.21-1.15-.06-1.13-.18-2.26-.29-3.48,1.89,0,3.72,0,5.55,0,.55,0,1.11-.01,1.66.03.26.02.51.16.77.25-.73,1.04-1.46,2.09-2.19,3.13Z"/>
        <path d="M59.83,131.45c1.14.46,1.95.89,2.82,1.12,2.65.7,5.32,1.35,8,1.95.67.15.86.32.57.97-.41.94-.72,1.92-1.16,2.84-.12.26-.51.53-.81.57-1.16.14-2.33.21-3.49.26-.19,0-.43-.11-.58-.24-1.2-.98-2.4-1.97-3.58-2.98-.23-.2-.4-.49-.52-.77-.18-.43-.28-.89-.43-1.34-.24-.72-.49-1.43-.82-2.38Z"/>
        <path d="M111.14,124.33c.3-.08.59-.16.93-.24.56,2.12,1.14,4.24,1.65,6.38.08.32-.09.74-.24,1.07-1.07,2.39-2.17,4.77-3.26,7.16-.06.12-.06.27-.09.41,0,0,.02-.02.02-.02-.21-.14-.49-.23-.61-.43-.8-1.36-1.59-2.73-2.32-4.13-.15-.28-.06-.69-.09-1.04l-.02.02c.76-1.09,1.54-2.16,2.27-3.26.47-.7.82-1.49,1.32-2.15.39-.51.94-.9,1.5-1.42-.77-.37-1.52-.72-2.35-1.12.47-.45.89-.85,1.3-1.25,0,0-.02.02-.02.02Z"/>
        <path d="M76.13,99.66c-.76-.72-1.53-1.42-2.26-2.16-1-1.01-1.98-2.04-2.97-3.07-.37-.54-.74-1.07-1.12-1.61l.03.03c-.77-1.26-1.55-2.51-2.43-3.94.93.45,1.75.9,2.61,1.25.54.22,1.16.25,1.72.44.32.11.66.32.85.59,1.4,1.91,2.73,3.87,4.16,5.76,1.38,1.81,3.42,2.41,5.55,2.64.6.06,1.26-.38,1.89-.6.32-.11.64-.25,1.07-.42-.17.75-.21,1.43-.49,1.99-.14.29-.7.47-1.09.52-1.79.25-3.48-.25-5.16-.78-.78-.24-1.58-.42-2.37-.63Z"/>
        <path d="M70.32,73.65c-.23.46-.58.89-.66,1.38-.31,1.72-.54,3.45-.8,5.18-.02.14-.06.28-.13.59-.35-.22-.66-.35-.87-.57-1.55-1.6-2.95-3.31-3.82-5.4-.4-.97-.04-1.78.86-2.21,1.54-.73,3.2-1.3,4.4-2.63.11-.12.5-.14.65-.04.55.38,1.05.83,1.56,1.25-.06.28-.12.54-.18.79-.34.56-.67,1.11-1.01,1.67Z"/>
        <path d="M69.47,118.52c.14-.12.28-.24.42-.37,1.25-.84,1.23-2.21,1.26-3.45.03-1.47-.18-2.95-.29-4.42,0,0-.03,0-.03,0,.16-.3.34-.59.47-.9.33-.81.64-1.63.96-2.45.7,2.05,1.4,4.09,2.1,6.14.11,2.1.24,4.2.33,6.3.02.43-.1.86-.16,1.28-2.05.49-4.41-.52-5.06-2.13Z"/>
        <path d="M14.67,65.55c-.2.03-.49.07-.78.11-1.11.16-2.08,0-2.98-.83-1.38-1.26-2.91-2.36-4.32-3.6-.5-.45-.92-1.06-1.18-1.68-.5-1.18-.87-2.42-1.27-3.64-.16-.48-.41-.64-.91-.52-.51.13-1.03.2-1.56.26-.8.1-1.44-.37-1.62-1.15-.18-.79.19-1.45.99-1.7.55-.18,1.29-.17,1.61-.53.25-.29,0-1.03-.03-1.55.08-.02.11-.04.13-.04,1.52.05,2.37.7,2.69,2.32.41,2.08,1.13,4.11,1.7,6.16.27.97.81,1.71,1.65,2.29,1.98,1.34,3.93,2.73,5.87,4.1Z"/>
        <path d="M81.4,77.67c.18.25.36.5.61.85-2.94.28-5.81.55-8.76.83-.9-2.59-.83-5.18.3-7.81,2.4,1.93,4.73,3.82,7.08,5.7.24.19.53.31.8.45,0,0-.02-.02-.02-.02Z"/>
        <path d="M84.06,69.67c5.36,1.34,10.6,2.66,15.84,3.97,0,.1,0,.21,0,.31-1.21,1.01-2.41,2.03-3.64,3.01-.14.11-.52.09-.7-.02-3.8-2.31-7.6-4.64-11.39-6.97-.02-.01-.02-.05-.1-.3Z"/>
        <path d="M93.68,41.65c-.25.27-.5.55-.75.82-.69.62-1.39,1.22-2.06,1.86-.7.66-1.36,1.36-2.01,2.01-2.33-1.35-4.62-2.68-7.02-4.07.69-.6,1.28-1.16,1.91-1.65.18-.14.5-.19.75-.17,2.85.26,5.7.54,8.55.84.22.02.43.23.64.35Z"/>
        <path d="M74.59,11.15c1.07-.04,2.14-.13,3.2-.1,1,.03,1.86-.27,2.75-.7,1.64-.79,3.36-1.42,5.16-1.97-1.38,2.98-3.38,5.45-5.41,8.01-2.03-1.61-4.03-3.15-5.82-4.94.04-.1.08-.2.11-.3Z"/>
        <path d="M53.85,94.48c-1.12,1.03-2.23,2.06-3.35,3.09-.68.51-1.35,1.01-2.01,1.51-.34-.29-.68-.59-1.02-.88-.37-.64-.74-1.27-1.11-1.91-.28-.93-.6-1.86-.83-2.8-.14-.57.09-.92.76-1,.95-.11,1.9-.32,2.85-.47.19-.03.43-.02.59.06,1.31.65,2.6,1.32,3.89,2,.12.06.16.26.24.4Z"/>
        <path d="M11.12,33.73c-1.18,1.56-2.29,3.18-3.56,4.66-1.27,1.47-1.81,3.14-2.03,5.01-.29,2.37-.7,4.73-1.08,7.22-.63-.14-1.25-.17-1.72-.43-.28-.16-.49-.71-.47-1.07.09-1.69.33-3.38.4-5.07.08-2.07.98-3.63,2.52-4.99,1.99-1.76,3.85-3.66,5.77-5.5.06.06.12.12.18.18Z"/>
        <path d="M115.89,45.29c.54.17.79.24,1.03.32,3.4,1.23,6.81,2.46,10.14,3.67-1.31,1.41-2.58,2.79-3.95,4.27-2.28-2.36-4.47-4.6-6.62-6.88-.27-.29-.34-.76-.61-1.39Z"/>
        <path d="M61.33,111.55c.46.47.92.95,1.37,1.42.49.6.98,1.21,1.48,1.8.22.26.47.5.62.89-1.51-.47-3.02-.94-4.52-1.42-1.14-.37-2.29-.7-3.39-1.15-.74-.3-1.4-.78-2.1-1.17,0,0-.01-.03-.03-.07-.93-.91-1.85-1.82-2.79-2.71-.15-.14-.38-.2-.58-.29l-1.21-1.36c.42.02.86-.01,1.27.08.47.11.92.34,1.38.52,1.33.53,2.66,1.06,3.98,1.6,1.51.61,3.02,1.24,4.53,1.86Z"/>
        <path d="M109.12,120.27v.03c.18-.27.34-.54.55-.89-.25-.22-.54-.46-.82-.71l.02.02c-1.18-1.44-2.36-2.88-3.54-4.32-.48-.58-.95-1.15-1.43-1.73.53-.12,1.06-.25,1.59-.35,1.15-.21,2.3-.41,3.46-.61.91-.16,1.14.17.94,1.04-.1.44.05.96.15,1.42.66,2.99,1.35,5.98,2.03,8.97-.08.03-.16.06-.25.09-.9-.99-1.8-1.98-2.71-2.97Z"/>
        <path d="M62.39,128.73c.84.6,1.68,1.22,2.53,1.81.34.23.74.38,1.04.65,1.09.97,2.4,1.16,3.75,1.06.9-.07,1.35.29,1.55,1.12.07.3.2.59.38,1.08-1.57-.29-3-.45-4.36-.84-2.58-.75-5.12-1.62-7.66-2.47-.25-.08-.52-.4-.58-.66-.36-1.41-.66-2.83-1.01-4.38.44.16.8.28,1.16.41.12.09.24.19.36.28.96.65,1.92,1.3,2.88,1.96l-.03-.02Z"/>
        <path d="M106.38,46.74c.19-.04.38-.08.73-.15-.27.53-.47,1-.73,1.42-1.19,1.93-1.88,4.06-2.46,6.23-.11.4-.23.65-.7.5-2.15-.64-4.3-1.27-6.45-1.92-.15-.05-.27-.2-.4-.31,0,0-.01.03-.01.03.22-.07.46-.1.65-.21,2.69-1.53,5.37-3.06,8.04-4.61.49-.28.91-.68,1.37-1.02l-.03.03Z"/>
        <path d="M46.36,96.28c.37.64.74,1.27,1.11,1.91.15.28.3.56.49.92-.4,0-.73.02-1.06,0-.35-.02-.7-.07-1.04-.14-.86-.18-1.72-.38-2.58-.58-.25-1.4-.71-2.75-.29-4.22.48-1.67,1.76-2.63,3.07-3.43.7-.43,1.76-.3,2.66-.39.96-.1,1.92-.19,2.89-.26.96-.07,1.93-.12,3.13-.19-.35.19-.49.28-.65.34-2.38,1.03-4.91,1.52-7.46,1.86-.9.12-1.44.45-1.36,1.41.08,1.03.12,2.09,1.1,2.78Z"/>
        <path d="M59.54,126.8c-.12-.09-.24-.19-.36-.28-.1-.14-.19-.28-.38-.55,1.77-.07,3.4-.9,5.07-.01,1.38.81,2.77,1.62,4.15,2.43.31.25.62.5,1.02.83-.4.07-.69.13-.98.18,1.92-.23,1.93,1.36,2.63,2.65-1.57-.24-2.95.12-4.22-.83-1.28-.95-2.72-1.67-4.09-2.49l.03.02c-.96-.65-1.92-1.3-2.88-1.96Z"/>
        <path d="M100.48,100.97c.94,1.78,1.85,3.5,2.82,5.35-1.58.26-3.07.54-4.56.75-1.85.26-1.86.24-2.36-1.56-.14-.51-.26-1.02-.35-1.54-.25-1.34-.24-1.34,1-1.77,1.13-.39,2.26-.81,3.45-1.23Z"/>
        <path d="M94.98,95.95c.62-.77,1.24-1.54,1.87-2.31.19.13.47.23.55.41.97,2.15,1.91,4.31,2.93,6.62-1.54.58-3.02,1.14-4.6,1.74-.32-1.98-.64-3.84-.92-5.71-.04-.24.11-.5.17-.75Z"/>
        <path d="M83.38,92.68c1.27.99,2.53,1.97,3.8,2.96-.2.34-.41.68-.65,1.08-.45-.29-.83-.53-1.3-.83.16.27.27.44.53.86-1.73.3-3.32.58-4.91.84-.19.03-.41-.04-.6-.11-1.25-.47-1.33-.69-.78-1.89.34-.74.66-1.5,1.01-2.23.52-1.09,1.43-1.38,2.5-.81.12.07.27.1.4.15Z"/>
        <path d="M42.57,96.26c.16.85.32,1.7.5,2.64,1.71.2,3.44.4,5.26.61.08,1.34.16,2.67.25,4.2-2.42-.74-4.67-1.42-6.91-2.14-.18-.06-.39-.47-.35-.67.28-1.56.62-3.12.94-4.67.11.01.21.03.32.04Z"/>
        <path d="M105.3,57.61c-1.9-.14-3.72-.26-5.55-.43-.99-.09-1.98-.24-2.94-.46-.31-.07-.66-.43-.78-.74-.38-.98-.94-1.98-.2-3.11,1.57.47,3.13.93,4.69,1.4.36.11.72.3,1.09.33,1.84.18,2.91,1.3,3.68,3.02Z"/>
        <path d="M82.58,14.63c1.58-2.16,3.16-4.33,4.77-6.48.14-.19.43-.34.67-.37,1.06-.17,2.13-.29,3.33-.45-.12.3-.17.51-.27.69-.97,1.6-1.95,3.2-2.94,4.78-.18.29-.41.67-.69.76-1.57.47-3.17.87-4.76,1.29-.03-.07-.06-.15-.09-.22Z"/>
        <path d="M112.59,35.16c-.38.57-.76,1.15-1.14,1.72-.09-.01-.18-.02-.27-.03-.05-.44-.1-.88-.13-1.14-.62-.45-1.19-.88-1.95-1.44.84-1.38,1.66-2.81,2.57-4.18.43-.65.98-.23,1.14.24.38,1.11.89,2.28.87,3.42-.06,2.62-.41,5.24-.81,7.91-.44-1.37-.9-2.74-1.29-4.12-.07-.24.17-.58.32-.85.26-.48.56-.94.84-1.4-.05-.04-.1-.08-.15-.12Z"/>
        <path d="M125.81,69.66c-.07-1.19-.15-2.38-.21-3.57,0-.17,0-.38.1-.5,1.74-2.11,2.31-4.75,3.33-7.19.22-.53.43-1.07.67-1.7.5,3.05.41,5.96-.61,8.79-.3.84-.61,1.72-1.12,2.44-.51.72-1.28,1.25-1.94,1.86-.08-.05-.15-.09-.23-.14Z"/>
        <path d="M126.6,62.78c-.54-1.48-1.09-2.95-1.63-4.43-.53-1.45-1.07-2.9-1.66-4.5,2.11.63,4.13,1.24,6.27,1.87-.95,2.43-1.85,4.76-2.76,7.09l-.21-.04Z"/>
        <path d="M70.87,110.28c-.28-.97-.6-1.93-.81-2.91-.43-1.96-.83-3.93-1.17-5.91-.1-.58.03-1.2.05-1.8.05-.13.1-.25.15-.38.42-1.34.85-2.68,1.33-4.23.12.46.2.68.23.9.35,2.46.69,4.91,1.05,7.37.24,1.61.58,3.21-.2,4.8-.33.67-.45,1.44-.66,2.17h.03Z"/>
        <path d="M103.19,32.05c-.27-.39-.39-.58-.38-.56-.31.24-.54.53-.83.61-.64.19-1.31.27-2.21.44.11-.95-.04-1.94.38-2.54.29-.41,1.35-.64,2.13-.21.18-.36,1.79-.82,3.92-1.04-.21-1.62-.16-3.18,2.17-3.16-.19,1.48-.37,3-.61,4.52-.03.19-.34.4-.56.48-1.33.51-2.67.98-4.01,1.47Z"/>
        <path d="M38.51,103.38c-.2-.08-.57-.15-.58-.24-.02-.41-.03-.86.13-1.22.15-.33.51-.57.67-.97-.27.21-.55.43-.85.66-.45-2.96,2.19-7.3,5.12-8.49-.5,1.64-1.01,3.28-1.49,4.92-.18.62-.36,1.25-.41,1.88-.06.81-.19,1.55-.77,2.16-.61.43-1.21.86-1.82,1.29Z"/>
        <path d="M61.48,118.58c-.19-.19-.38-.38-.56-.56-.74-.71-1.48-1.42-2.23-2.13l.02.03c-.69-.84-1.38-1.67-2.17-2.63,2.96.98,5.78,1.91,8.49,2.8,0,1.06.03,2.04-.02,3.01-.01.33-.19.92-.32.93-.63.03-1.32.04-1.87-.21-.53-.24-.9-.8-1.34-1.23Z"/>
        <path d="M17.43,38.09c.22,3.15-1.9,6.77-4.75,7.96-.01-1.94-.04-3.79-.03-5.64,0-.15.21-.35.36-.42,1.44-.63,2.88-1.24,4.41-1.89Z"/>
        <path d="M50.18,107.49c.4.45.81.9,1.21,1.36.8.79,1.58,1.61,2.39,2.38.28.26.65.42.97.63.02.04.03.06.03.07.12.22.25.44.43.76-2.92-.18-5.72-.36-8.65-.54.27-.6.5-1.11.73-1.61.73-1.04,1.46-2.09,2.19-3.13.23.03.46.06.69.1Z"/>
        <path d="M70.32,73.65c.34-.56.67-1.11,1.01-1.67.42-.62,1-.71,1.74-.45-.21.82-.47,1.64-.64,2.48-.33,1.61-.15,3.2.31,4.76.16.55.11.95-.51,1.15-.96.31-1.91.65-3.1,1.06.32-2.64.31-5.06,1.2-7.34Z"/>
        <path d="M42.67,50.93c-.54-1.21-.66-2.45-.22-3.77.23.02.44.04.69.06-.45-.52-.08-2.13.51-2.38.29-.12.6-.23.9-.32.7-.19,1.23-.19,1.53.7.44,1.32,1.04,2.58,1.6,3.95-1.49.49-2.84.92-4.18,1.37-.3.1-.57.26-.86.4l.03-.02Z"/>
        <path d="M56.23,89.76c.98,1.03,2.1,2.2,3.32,3.47-2.14.87-4.11,1.44-6.19.33-1.02-.55-2.08-1.04-3.2-1.59,1.97-.72,3.86-1.4,6.07-2.21Z"/>
        <path d="M78.84,51.77c3.2-1.62,6.4-3.23,9.78-4.94v4.65c-3.2.1-6.49.19-9.78.29,0,0,0,0,0,0Z"/>
        <path d="M44.76,58.86c-.28-.37-.65-.69-.8-1.1-.27-.74-.45-1.52-.56-2.29-.04-.3.15-.82.38-.93,1.03-.47,2.11-.83,3.32-1.29.57,2.13,1.14,4.25,1.74,6.46-1.45-.31-2.78-.6-4.11-.88,0,0,.03.03.03.03Z"/>
        <path d="M57.01,6.12c.25,2.76-.39,5.31.88,7.9-1.31.17-2.42.35-3.54.44-.16.01-.46-.32-.51-.53-.17-.71-.34-1.44-.34-2.16,0-.54.14-1.17.44-1.61.91-1.32,1.94-2.56,3.07-4.04Z"/>
        <path d="M65.63,23.32c1.87,1.26,3.61,2.38,5.06,4.32-2.36.52-4.52,1-6.81,1.51-.29-2.38,1.35-3.85,1.75-5.83Z"/>
        <path d="M90.25,115.03c2.21.37,4.41.73,6.61,1.11.18.03.44.16.5.3.63,1.59,1.23,3.18,1.74,4.87-3.03-1.99-6.28-3.62-8.98-6.03.04-.08.09-.17.13-.25Z"/>
        <path d="M73.89,39.15c1.3-1.06,2.6-2.12,3.9-3.18-.02.15.02.34-.06.45-1.75,2.45-3.51,4.88-5.28,7.32-.48.67-1.18.88-2.02.92-.34-1.32-.68-2.6-1.03-3.93,1.61-.4,3.35-.14,4.48-1.57Z"/>
        <path d="M91.5,116.86c2.61,1.69,5.21,3.36,7.78,5.07.25.17.44.53.53.84.31.97.55,1.96.82,2.92-1.8-.22-8.1-6.26-9.14-8.82Z"/>
        <path d="M49.07,59.49c-.59-2.17-1.18-4.34-1.79-6.59-.91.34-1.73.65-2.62.98.67-1.34,1.28-2.62,1.96-3.86.13-.24.57-.3.99-.51.39,2.13,1.66,3.65,2.76,5.26.11.16.21.4.16.56-.4,1.4-.83,2.79-1.25,4.18-.07,0-.14-.01-.21-.02Z"/>
        <path d="M61.33,111.55c-1.51-.62-3.02-1.24-4.53-1.86-1.32-.54-2.65-1.06-3.98-1.6-.21-.18-.42-.37-.74-.65,3.8.36,7.49.72,11.24,1.08-.16.37-.29.65-.41.93-.52.7-1.05,1.39-1.57,2.09Z"/>
        <path d="M110.12,139.11c1.36-.4,2.73-.79,4.09-1.19.47-.14.93-.32,1.39-.48.08.11.15.17.19.24q.78,1.84-.85,3.08c-1.06.81-2.12,1.63-3.34,2.57-.51-1.5-.98-2.87-1.45-4.24,0,0-.02.02-.02.02Z"/>
        <path d="M95.85,40.05c-.55.3-1.1.59-1.75.94-1.02-1.08-2.08-2.2-3.18-3.38.57-.59,1.28-1.1,2.17-.85,1.93.54,3.87.56,5.83.38.13-.01.27.04.63.09-.94.67-1.73,1.21-2.49,1.78-.43.32-.82.7-1.23,1.05,0,0,.02-.02.02-.02Z"/>
        <path d="M125.49,45.78c-3.22-.26-6.39-.52-9.71-.79.38-.78.62-1.37.94-1.92.32-.53.74-.77,1.46-.55,1.92.59,3.86,1.13,5.82,1.59.91.21,1.34.7,1.49,1.66Z"/>
        <path d="M115.3,70.01c.58-.64,1.09-1.24,1.64-1.8.13-.13.44-.21.62-.15,2.4.74,4.78,1.51,7.15,2.35-3.17,1.21-6.27,1.42-9.41-.4Z"/>
        <path d="M78.82,96.34c-.66-.16-.83-.4-.6-1.03,1.42-3.94,1.34-3.14-.86-6.67-1.49-2.38-3.08-4.7-4.62-7.05-.22-.34-.4-.71-.65-1.16.39-.21.73-.39,1.15-.62.54,1.16.95,2.3,1.56,3.32,1.34,2.23,2.65,4.49,4.22,6.55,1.35,1.76,1.78,3.36.42,5.25-.28.39-.41.9-.63,1.4Z"/>
        <path d="M87.89,6.95c-.13-2.27-.26-4.42-.4-6.87.79.73,1.33,1.41,2.02,1.83,1.63.98,1.79,2.55,1.87,4.17,0,.21-.29.59-.48.62-.95.13-1.91.18-3,.26Z"/>
        <path d="M38.51,103.38c.61-.43,1.21-.86,1.82-1.29.16-.06.33-.12.65-.24.04,1.22.05,2.38.13,3.53.12,1.69.3,3.37.44,5.05.04.43.02.87.03,1.31,0,0,0,0,0,0-.28-.47-.54-.97-.86-1.42-1.2-1.73-1.92-3.65-2.49-5.66-.15-.53-.13-.93.28-1.28Z"/>
        <path d="M51.55,116.69c1.19.19,2.63,1.87,2.58,3.01-.04.93-.09,1.86-.15,3.03-1.59-.91-3.03-1.72-4.43-2.57-.13-.08-.07-.46-.1-.7.7-.92,1.4-1.85,2.1-2.77Z"/>
        <path d="M69.08,99.28c-.05.13-.1.25-.15.38-.15-.09-.41-.17-.43-.29-.59-3.33-1.16-6.67-1.72-10-.01-.07.04-.15.11-.39.75,1.03,1.43,1.96,2.12,2.89.25.34.53.66.8.99,0,0-.03-.03-.03-.03.64.97.45,1.94.13,2.97-.36,1.14-.56,2.32-.82,3.48Z"/>
        <path d="M104.63,64.08c-.16.08-.32.16-.48.23-.58.4-1.09.31-1.63-.13-.47-.39-1.02-.68-1.5-1.07-1.59-1.28-3.43-1.98-5.37-2.48-.46-.12-.9-.33-1.39-.51,1.12-1.26,1.83-1.41,3.08-.77,1.32.68,2.64,1.33,3.97,2,0,0-.03-.02-.03-.02.99.63,1.97,1.3,2.99,1.88.41.24.51.47.36.87Z"/>
        <path d="M65.94,37.47c1.56-.33,2.96-.64,4.37-.9.22-.04.64.1.7.26.36.95.65,1.92.98,2.96-1.68.22-3.26.44-4.9.66-.37-.97-.73-1.92-1.14-2.98Z"/>
        <path d="M129.4,55.34c-1.94-.59-3.89-1.18-5.39-1.63,1.02-1.25,2.14-2.61,3.26-3.98.11.04.22.08.32.12.7,1.76,1.4,3.52,2.11,5.29-.1.07-.19.14-.29.21Z"/>
        <path d="M113.9,131.38c.59,2.03,1.11,3.81,1.66,5.74-1.56.53-3.18,1.08-4.79,1.62-.07-.06-.14-.13-.21-.19,1.08-2.31,2.16-4.63,3.34-7.17Z"/>
        <path d="M18.12,31.86c-.16,1.71-.33,3.43-.49,5.14-.06.58-.34.9-.92,1.11-1.31.48-2.59,1.05-3.88,1.58-.08-.06-.15-.13-.23-.19,1.75-2.58,3.5-5.16,5.25-7.75.09.04.18.07.27.11Z"/>
        <path d="M113.09,26.49c-.14.36-.34.71-.41,1.08-.14.78-1.09,1.61-1.86,1.53-.1-.01-.18-.18-.29-.3-.4,1-1.31,1.17-2.51,1.36.25-1.54.48-2.96.75-4.37.02-.1.48-.26.61-.18.87.48,1.67.44,2.57-.02.5-.26,1.18-.17,1.93-.25-.27.44-.45.72-.62,1-.05.05-.11.1-.16.15Z"/>
        <path d="M14.9,54.7c-.68-2.62-1.28-4.98-1.89-7.34-.16-.61,0-1.06.59-1.38.45-.25.85-.59,1.29-.91,1.12,3.18.91,6.28.01,9.64Z"/>
        <path d="M55.06,71.9c1.42,1.27,2.83,2.55,4.31,3.88-1.78,1.2-3.54,1-5.47.38.28-1.34.56-2.69.84-4.05.11-.07.21-.14.32-.21Z"/>
        <path d="M46.89,106.34c.05.13.11.27.18.45h-5.62c-.07-1.66-.14-3.22-.22-4.91.28.14.42.21.56.28,0,0,0-.01,0-.01,1.33,1.17,2.67,2.34,4.01,3.49.07.06.22.03.33.05.25.21.5.43.75.64Z"/>
        <path d="M51.55,116.69c-.7.92-1.4,1.85-2.1,2.77-.15.09-.29.19-.5.32-.09-.23-.19-.42-.26-.63-.6-1.93-1.19-3.85-1.77-5.78-.09-.3-.07-.62-.1-.94,0,0,0,0,0,0,.27.29.52.62.83.87,1.14.91,2.32,1.79,3.46,2.71.2.16.3.45.44.68Z"/>
        <path d="M51.24,66.8c2.21,1.33,4.42,2.65,6.64,3.98.68.46,1.11,1.02.68,1.98-1.44-.18-2.87-.39-3.97-1.56-.79-.84-1.6-1.65-2.41-2.48,0,0,.03.02.03.02-.5-.65-1.01-1.31-1.52-1.98.22.01.39.02.56.04Z"/>
        <path d="M107.13,133.49c-.25-.08-.63-.07-.73-.24-.64-1.11-1.22-2.25-1.85-3.44,1.96-.61,3.86-1.2,5.96-1.85-.85,1.3-1.64,2.47-2.39,3.67-.38.6-.68,1.25-1.02,1.88,0,0,.02-.02.02-.02Z"/>
        <path d="M46.89,106.34c-.25-.21-.5-.43-.75-.64-1.45-1.18-2.89-2.36-4.34-3.54,0,0,0,.01,0,.01.21,0,.44-.05.64,0,1.77.5,3.53,1.04,5.3,1.51.66.17,1.08.42,1.2,1.15.11.65.33,1.28.51,1.95-1,.26-1.82.1-2.57-.45Z"/>
        <path d="M59,73.37c0-.89,0-1.77-.01-2.66-.02-.84-.08-1.68-.12-2.52,0,0-.02.02-.02.02.18.11.45.17.53.33,1.06,1.87,2.09,3.75,3.21,5.78-.78.4-1.72.88-2.67,1.36-.27-.66-.48-1.18-.7-1.71l-.22-.6Z"/>
        <path d="M56.33,59.3c-.73-.6-1.47-1.19-2.18-1.81-.16-.14-.3-.4-.31-.6-.03-1.16-.01-2.32-.01-3.53.64-.16,1.26-.3,2.05-.5.27,2.14.54,4.19.8,6.25-.11.06-.23.13-.34.19Z"/>
        <path d="M61.69,18.12c-.96-1.09-1.86-2.11-2.82-3.2,2.31-.39,4.51-.76,6.72-1.13-1.21,1.35-2.52,2.8-3.89,4.33Z"/>
        <path d="M124.83,44.13c-2.38-.66-4.5-1.24-6.86-1.89,1.71-.8,3.2-1.5,4.8-2.25.65,1.31,1.29,2.6,2.06,4.14Z"/>
        <path d="M127.07,48.93c-3.37-1.2-6.5-2.32-9.63-3.44.01-.05.02-.11.03-.16.71.06,1.41.12,2.12.18,1.89.17,3.77.34,5.66.54.23.02.54.16.64.33.4.76.73,1.55,1.19,2.55Z"/>
        <path d="M47.29,62.57c-.21.19-.42.37-.63.56-.27.16-.53.32-.87.53-.48-1.52-.96-2.97-1.39-4.43-.02-.08.24-.24.37-.37,0,0-.03-.03-.03-.03.96.31,1.92.63,2.88.93.31.1.64.11.93.24.23.1.51.27.57.47.04.15-.22.41-.38.58-.47.52-.95,1.02-1.43,1.52Z"/>
        <path d="M106.19,59.18c-1.63-.08-3.16-.13-4.69-.25-1.19-.09-2.38-.35-3.57-.38-.98-.03-1.49-.35-1.46-1.37,1.28.12,2.58.26,3.88.37,1.37.12,2.74.26,4.11.29.87.02,1.47.25,1.73,1.34Z"/>
        <path d="M66.18,17.59c.48,1.44.95,2.88,1.45,4.31.46,1.32,1.18,2.45,2.27,3.38.63.54,1.1,1.25,1.64,1.89-.05.07-.11.13-.16.2-.17-.09-.41-.14-.51-.28-1.28-1.83-3.17-2.92-4.92-4.19-.16-.12-.35-.36-.34-.53.09-1.59.22-3.19.34-4.78.08,0,.15,0,.23,0Z"/>
        <path d="M67.86,70.76c-1.05.49-2.07,1.02-3.15,1.44-.33.13-.81-.01-1.18-.14-.83-.27-1.67-.53-2.42-.95-.38-.21-.57-.76-.96-1.34,2.69.25,5.16.49,7.64.72.03.09.05.18.08.27Z"/>
        <path d="M115.38,38.06c.65,1.54,1.19,2.83,1.79,4.26-1.18.6-2.35,1.19-3.51,1.78-.1-.08-.19-.17-.29-.25.64-1.84,1.28-3.69,2.01-5.79Z"/>
        <path d="M87.16,40.05c.92-.6,1.86-1.16,2.74-1.81.46-.34.75-.38,1.16.07.81.89,1.68,1.74,2.67,2.74-2.13-.2-4.04-.36-5.94-.57-.22-.02-.41-.3-.61-.46,0,0-.03.03-.03.03Z"/>
        <path d="M72.04,28.28c-1.58.74-3.11,1.62-4.75,2.16-.92.3-2.03.07-3.04.03-.14,0-.4-.37-.37-.53.04-.21.28-.5.48-.54.71-.15,1.46-.15,2.16-.32,1.47-.36,2.91-.82,4.38-1.19.34-.09.74.03,1.11.06,0,.11.02.22.03.34Z"/>
        <path d="M113.09,26.49c.05-.05.11-.1.16-.15.24-.16.46-.34.71-.48.28-.16.59-.29,1-.28-.15.25-.29.5-.44.75.03.03.05.05.08.08.32-.25.64-.5.97-.75.05.06.1.12.15.18-.16.19-.32.38-.58.69.53-.23.91-.4,1.37-.61-.04.27-.06.43-.09.59-.63.75-1.26,1.5-1.89,2.25-1.16,1.06-1.21,1.07-2.13.48.24-.97.47-1.86.69-2.75Z"/>
        <path d="M50.81,45.95c-1.02.79-1.94,1.51-2.97,2.3-.57-1.27-1.08-2.4-1.64-3.63,1.63.06,3.16,0,4.6,1.33Z"/>
        <path d="M104.32,81.63c-1.03-.36-1.93-.67-2.9-1.01,1.31-1.25,2.56-2.44,3.8-3.62-.28,1.45-.58,2.97-.9,4.63Z"/>
        <path d="M18.14,35.23c-.08-3.26.42-5.68,3.75-6.53-1.31,2.29-2.59,4.5-3.75,6.53Z"/>
        <path d="M96.95,36.92c-2.24.26-4.07-.44-5.58-2,2.06-1.02,3.74-.44,5.58,2Z"/>
        <path d="M53.59,76.05c-.98-1.07-1.85-2.03-2.79-3.05,1.12-.35,2.33-.73,3.71-1.16-.33,1.49-.62,2.81-.92,4.21Z"/>
        <path d="M111.63,29.5c-.46.73-.86,1.35-1.24,1.98-.42.7-.81,1.42-1.26,2.1-.13.2-.42.29-.64.43-.14-.28-.4-.56-.39-.84.03-.72.15-1.44.27-2.16.03-.17.14-.4.28-.46.82-.37,1.65-.71,2.48-1.05.09-.04.22,0,.48,0Z"/>
        <path d="M95.32,33.35c-.13.04-.27.09-.55.18.07-.94.13-1.79.2-2.71,1.29-.24,2.55-.49,3.8-.71.09-.02.2.14.3.21-1.25,1.01-2.5,2.02-3.76,3.03Z"/>
        <path d="M42.65,50.96c1.14-.29,2.29-.58,3.43-.87.07.05.14.1.21.15-.54.96-1.07,1.92-1.63,2.87-.13.23-.4.38-.6.56-.09-.08-.19-.16-.28-.24-.25-.51-.52-1.02-.76-1.54-.14-.31-.23-.64-.34-.96,0,0-.03.02-.03.02Z"/>
        <path d="M71.89,11.81c-1.86,1.55-3.6,2.99-5.33,4.43-.05-.07-.11-.13-.16-.2.9-2.46,2.58-3.96,5.49-4.23Z"/>
        <path d="M95.32,33.35c1.25-1.01,2.5-2.02,3.76-3.03.14.06.4.11.41.19.07.66.1,1.32.15,2.09-1.3.3-2.62.61-3.94.89-.11.02-.25-.09-.38-.14Z"/>
        <path d="M121.72,38.51v.09c-1.51-.29-3.01-.57-4.64-.88.32-.66.53-1.24.87-1.73.38-.55.79-.37,1.22.06.83.84,1.71,1.65,2.56,2.46Z"/>
        <path d="M68.77,44.5c-.35-.66-.74-1.31-1.06-1.99-.72-1.53-.48-1.84,1.3-1.67.32,1.2.64,2.42.99,3.75-.5-.05-.88-.09-1.26-.12,0,0,.03.03.03.03Z"/>
        <path d="M85.49,99.96c.15.17.29.34.44.51.2.34.4.69.64,1.1-.37,1.34-.77,2.78-1.17,4.21h-.26c-.06-.62-.18-1.24-.17-1.85.01-1.05.09-2.09.18-3.14.03-.29.22-.56.34-.84Z"/>
        <path d="M65.23,77.94c.9,1.07,1.95,2.06,2.66,3.24.74,1.24,1.15,2.67,1.7,4.02-.08.04-.15.09-.23.13-1.48-2.41-2.95-4.83-4.43-7.24.1-.05.2-.1.3-.15Z"/>
        <path d="M80.87,16.48c.23,1.76-.82,6.93-1.52,7.63.47-2.55.26-5.24,1.52-7.63Z"/>
        <path d="M94.07,31.27c.15-.07.3-.15.5-.25,0,.82.03,1.58-.02,2.35,0,.15-.29.34-.47.4-.77.23-1.55.42-2.47.48.25-.36.49-.71.73-1.07.58-.63,1.16-1.27,1.74-1.9Z"/>
        <path d="M95.29,55.17c.32,1.01.61,1.82.83,2.65.05.18-.08.53-.24.64-.65.43-1.34.8-2.22,1.32.57-1.6,1.07-3.01,1.63-4.6Z"/>
        <path d="M53.82,122.98c-.04.21-.06.33-.09.44-.12.39-.24.78-.19.97-1.33-1.17-2.66-2.34-3.99-3.52.06-.07.12-.14.17-.21,1.35.76,2.7,1.52,4.1,2.31Z"/>
        <path d="M94.07,31.27c-.58.64-1.16,1.27-1.74,1.9-.49.42-.98.85-1.47,1.28l-.25-.11c.29-.9.35-2.05.96-2.63.5-.49,1.64-.32,2.5-.44Z"/>
        <path d="M108.07,30.83c-.11.89-.21,1.77-.33,2.69-.95-.19-1.61-.9-1.56-1.65.03-.45,1.06-.82,1.64-1.23.08.06.16.12.25.19Z"/>
        <path d="M57.39,45.94c.91-.59,1.61-1.04,2.31-1.5.96-.64,1.1-.63,2.15.33-1.47.39-2.86.75-4.46,1.18Z"/>
        <path d="M59,73.37l.22.6c.06.42.12.85.2,1.46-.97-.9-1.82-1.69-2.66-2.48.03-.06.07-.13.1-.19.71.2,1.42.41,2.14.61Z"/>
        <path d="M76.99,79.24c1.9-.14,3.8-.27,5.7-.41,0,.16.02.32.03.49-.93.03-1.85.06-2.78.08-.96.01-1.93,0-2.89,0-.02-.05-.04-.1-.06-.16Z"/>
        <path d="M61.89,71.9c.61.26,1.22.53,1.88.81-.08.48-.15.96-.27,1.67-.88-.7-1.2-1.61-1.77-2.32.06-.05.11-.11.17-.16Z"/>
        <path d="M113.93,44.22c.84-.38,1.5-.68,2.23-1.01-.37,1.67-.47,1.72-2.23,1.01Z"/>
        <path d="M43.77,53.43c.09.08.19.16.28.24-.23.24-.46.48-.81.84-.35-1.14-.61-1.98-.93-3.01.56.74,1.01,1.33,1.45,1.92Z"/>
        <path d="M57.2,60.07s.01,0,.01,0c-.17-1.11-.34-2.23-.52-3.34.08,0,.15-.02.23-.03.12,1.12.74,2.18.27,3.37Z"/>
        <path d="M55.15,41.33c-.37-.41-.73-.81-1.17-1.3.35-.12.6-.21,1.01-.35.06.6.1,1.13.15,1.66,0,0,0,0,0,0Z"/>
        <path d="M41.85,48.08c.09.89.18,1.78.27,2.67l-.18.02c-.11-.9-.22-1.79-.33-2.69.08,0,.16,0,.24,0Z"/>
        <path class="cls-1" d="M58.69,115.88c.74.71,1.48,1.42,2.23,2.13-.74-.71-1.48-1.42-2.23-2.13Z"/>
        <path class="cls-1" d="M59.54,126.8c.96.65,1.92,1.3,2.88,1.96-.96-.65-1.92-1.3-2.88-1.96Z"/>
      </g>
    </g>
  </g>
</svg>